<svg xmlns="http://www.w3.org/2000/svg" xmlns:xlink="http://www.w3.org/1999/xlink" width="816" zoomAndPan="magnify" viewBox="0 0 612 599.999999" height="800" preserveAspectRatio="xMidYMid meet" version="1.0"><path fill="#e6e6e6" d="M 575.199219 210.867188 L 496.3125 325.800781 L 492.980469 299.9375 L 261.566406 452.714844 L 255.414062 377.65625 L 81.042969 481.234375 L 60.375 429.5625 L 301.113281 303.023438 L 308.15625 370.953125 L 486.417969 248.921875 L 483.6875 227.816406 Z M 575.199219 210.867188 " fill-opacity="1" fill-rule="nonzero"/><path fill="#e6e6e6" d="M 526.449219 277.835938 L 525.414062 278.511719 L 526.199219 277.246094 Z M 526.449219 277.835938 " fill-opacity="1" fill-rule="nonzero"/><path fill="#e6e6e6" d="M 526.449219 503.515625 C 526.449219 503.757812 526.351562 503.996094 526.152344 504.238281 C 525.957031 504.476562 525.664062 504.71875 525.269531 504.957031 C 524.878906 505.195312 524.386719 505.433594 523.800781 505.671875 C 523.210938 505.910156 522.527344 506.148438 521.746094 506.382812 C 520.964844 506.617188 520.089844 506.851562 519.117188 507.085938 C 518.144531 507.320312 517.074219 507.550781 515.914062 507.78125 C 514.75 508.011719 513.496094 508.238281 512.144531 508.464844 C 510.796875 508.691406 509.355469 508.914062 507.824219 509.136719 C 506.292969 509.359375 504.667969 509.578125 502.957031 509.796875 C 501.246094 510.015625 499.445312 510.230469 497.558594 510.441406 C 495.671875 510.652344 493.699219 510.863281 491.640625 511.066406 C 489.582031 511.273438 487.441406 511.476562 485.214844 511.675781 C 482.992188 511.878906 480.6875 512.074219 478.300781 512.265625 C 475.914062 512.460938 473.453125 512.648438 470.914062 512.835938 C 468.371094 513.019531 465.757812 513.203125 463.070312 513.378906 C 460.378906 513.558594 457.621094 513.734375 454.789062 513.902344 C 451.957031 514.074219 449.058594 514.238281 446.089844 514.398438 C 443.125 514.5625 440.09375 514.71875 436.996094 514.871094 C 433.902344 515.023438 430.746094 515.171875 427.53125 515.3125 C 424.316406 515.457031 421.042969 515.597656 417.710938 515.730469 C 414.382812 515.863281 411 515.992188 407.566406 516.113281 C 404.132812 516.238281 400.648438 516.355469 397.117188 516.46875 C 393.585938 516.582031 390.011719 516.691406 386.390625 516.792969 C 382.773438 516.898438 379.113281 516.996094 375.414062 517.085938 C 371.714844 517.179688 367.980469 517.265625 364.210938 517.347656 C 360.441406 517.425781 356.640625 517.503906 352.808594 517.574219 C 348.976562 517.640625 345.117188 517.707031 341.234375 517.765625 C 337.347656 517.824219 333.445312 517.875 329.515625 517.921875 C 325.589844 517.96875 321.644531 518.011719 317.683594 518.046875 C 313.722656 518.082031 309.75 518.109375 305.765625 518.132812 C 301.78125 518.15625 297.789062 518.175781 293.789062 518.1875 C 289.792969 518.199219 285.789062 518.203125 281.785156 518.203125 C 277.78125 518.203125 273.78125 518.199219 269.78125 518.1875 C 265.78125 518.175781 261.789062 518.15625 257.804688 518.132812 C 253.820312 518.109375 249.847656 518.082031 245.886719 518.046875 C 241.925781 518.011719 237.980469 517.96875 234.054688 517.921875 C 230.128906 517.875 226.222656 517.824219 222.335938 517.765625 C 218.453125 517.707031 214.59375 517.640625 210.765625 517.574219 C 206.933594 517.503906 203.132812 517.425781 199.359375 517.347656 C 195.589844 517.265625 191.855469 517.179688 188.15625 517.085938 C 184.457031 516.996094 180.796875 516.898438 177.179688 516.792969 C 173.558594 516.691406 169.984375 516.582031 166.453125 516.46875 C 162.921875 516.355469 159.4375 516.238281 156.003906 516.113281 C 152.570312 515.992188 149.1875 515.863281 145.859375 515.730469 C 142.527344 515.597656 139.257812 515.457031 136.039062 515.3125 C 132.824219 515.171875 129.667969 515.023438 126.574219 514.871094 C 123.476562 514.71875 120.445312 514.5625 117.480469 514.398438 C 114.511719 514.238281 111.613281 514.074219 108.78125 513.902344 C 105.953125 513.734375 103.191406 513.558594 100.503906 513.378906 C 97.8125 513.203125 95.199219 513.019531 92.660156 512.835938 C 90.117188 512.648438 87.65625 512.460938 85.269531 512.265625 C 82.886719 512.074219 80.582031 511.878906 78.355469 511.675781 C 76.132812 511.476562 73.988281 511.273438 71.929688 511.066406 C 69.871094 510.863281 67.898438 510.652344 66.011719 510.441406 C 64.125 510.230469 62.324219 510.015625 60.613281 509.796875 C 58.902344 509.578125 57.277344 509.359375 55.746094 509.136719 C 54.214844 508.914062 52.773438 508.691406 51.425781 508.464844 C 50.074219 508.238281 48.820312 508.011719 47.65625 507.78125 C 46.496094 507.550781 45.429688 507.320312 44.457031 507.085938 C 43.480469 506.851562 42.605469 506.617188 41.824219 506.382812 C 41.042969 506.148438 40.359375 505.910156 39.769531 505.671875 C 39.183594 505.433594 38.695312 505.195312 38.300781 504.957031 C 37.910156 504.71875 37.613281 504.476562 37.417969 504.238281 C 37.222656 503.996094 37.121094 503.757812 37.121094 503.515625 C 37.121094 503.277344 37.222656 503.035156 37.417969 502.796875 C 37.613281 502.554688 37.910156 502.316406 38.300781 502.078125 C 38.695312 501.839844 39.183594 501.601562 39.769531 501.363281 C 40.359375 501.125 41.042969 500.886719 41.824219 500.652344 C 42.605469 500.414062 43.480469 500.179688 44.457031 499.949219 C 45.429688 499.714844 46.496094 499.484375 47.65625 499.253906 C 48.820312 499.023438 50.074219 498.796875 51.425781 498.570312 C 52.773438 498.34375 54.214844 498.117188 55.746094 497.894531 C 57.277344 497.675781 58.902344 497.453125 60.613281 497.238281 C 62.324219 497.019531 64.125 496.804688 66.011719 496.59375 C 67.898438 496.382812 69.871094 496.171875 71.929688 495.964844 C 73.988281 495.761719 76.132812 495.558594 78.355469 495.355469 C 80.582031 495.15625 82.886719 494.960938 85.269531 494.765625 C 87.65625 494.574219 90.117188 494.386719 92.660156 494.199219 C 95.199219 494.011719 97.8125 493.832031 100.503906 493.652344 C 103.191406 493.476562 105.953125 493.300781 108.78125 493.132812 C 111.613281 492.960938 114.511719 492.796875 117.480469 492.632812 C 120.445312 492.472656 123.476562 492.316406 126.574219 492.164062 C 129.667969 492.011719 132.824219 491.863281 136.039062 491.71875 C 139.257812 491.578125 142.527344 491.4375 145.859375 491.304688 C 149.1875 491.171875 152.570312 491.042969 156.003906 490.917969 C 159.4375 490.796875 162.921875 490.675781 166.453125 490.5625 C 169.984375 490.449219 173.558594 490.34375 177.179688 490.238281 C 180.796875 490.136719 184.457031 490.039062 188.15625 489.949219 C 191.855469 489.855469 195.589844 489.769531 199.359375 489.6875 C 203.132812 489.605469 206.933594 489.53125 210.765625 489.460938 C 214.59375 489.390625 218.453125 489.328125 222.335938 489.269531 C 226.222656 489.210938 230.128906 489.160156 234.054688 489.113281 C 237.980469 489.066406 241.925781 489.023438 245.886719 488.988281 C 249.847656 488.953125 253.820312 488.921875 257.804688 488.898438 C 261.789062 488.875 265.78125 488.859375 269.78125 488.847656 C 273.78125 488.835938 277.78125 488.828125 281.785156 488.828125 C 285.789062 488.828125 289.792969 488.835938 293.789062 488.847656 C 297.789062 488.859375 301.78125 488.875 305.765625 488.898438 C 309.75 488.921875 313.722656 488.953125 317.683594 488.988281 C 321.644531 489.023438 325.589844 489.066406 329.515625 489.113281 C 333.445312 489.160156 337.347656 489.210938 341.234375 489.269531 C 345.117188 489.328125 348.976562 489.390625 352.808594 489.460938 C 356.640625 489.53125 360.441406 489.605469 364.210938 489.6875 C 367.980469 489.769531 371.714844 489.855469 375.414062 489.949219 C 379.113281 490.039062 382.773438 490.136719 386.390625 490.238281 C 390.011719 490.34375 393.585938 490.449219 397.117188 490.5625 C 400.648438 490.675781 404.132812 490.796875 407.566406 490.917969 C 411 491.042969 414.382812 491.171875 417.710938 491.304688 C 421.042969 491.4375 424.316406 491.578125 427.53125 491.71875 C 430.746094 491.863281 433.902344 492.011719 436.996094 492.164062 C 440.09375 492.316406 443.125 492.472656 446.089844 492.632812 C 449.058594 492.796875 451.957031 492.960938 454.789062 493.132812 C 457.621094 493.300781 460.378906 493.476562 463.070312 493.652344 C 465.757812 493.832031 468.371094 494.011719 470.914062 494.199219 C 473.453125 494.386719 475.914062 494.574219 478.300781 494.765625 C 480.6875 494.960938 482.992188 495.15625 485.214844 495.355469 C 487.441406 495.558594 489.582031 495.761719 491.640625 495.964844 C 493.699219 496.171875 495.671875 496.382812 497.558594 496.59375 C 499.445312 496.804688 501.246094 497.019531 502.957031 497.238281 C 504.667969 497.453125 506.292969 497.675781 507.824219 497.894531 C 509.355469 498.117188 510.796875 498.34375 512.144531 498.570312 C 513.496094 498.796875 514.75 499.023438 515.914062 499.253906 C 517.074219 499.484375 518.144531 499.714844 519.117188 499.949219 C 520.089844 500.179688 520.964844 500.414062 521.746094 500.652344 C 522.527344 500.886719 523.210938 501.125 523.800781 501.363281 C 524.386719 501.601562 524.878906 501.839844 525.269531 502.078125 C 525.664062 502.316406 525.957031 502.554688 526.152344 502.796875 C 526.351562 503.035156 526.449219 503.277344 526.449219 503.515625 Z M 526.449219 503.515625 " fill-opacity="0.4471" fill-rule="nonzero"/><path fill="#f4a28c" d="M 458.6875 289.546875 C 458.964844 289.925781 459.214844 290.320312 459.441406 290.730469 C 459.667969 291.140625 459.871094 291.5625 460.050781 291.996094 C 460.230469 292.429688 460.378906 292.871094 460.507812 293.324219 C 460.632812 293.777344 460.730469 294.234375 460.804688 294.695312 C 460.875 295.160156 460.921875 295.625 460.9375 296.09375 C 460.957031 296.5625 460.945312 297.03125 460.90625 297.496094 C 460.871094 297.964844 460.804688 298.429688 460.710938 298.886719 C 460.621094 299.347656 460.5 299.800781 460.355469 300.246094 C 460.210938 300.691406 460.039062 301.128906 459.84375 301.554688 C 459.644531 301.980469 459.425781 302.390625 459.179688 302.789062 C 458.933594 303.191406 458.667969 303.574219 458.375 303.941406 C 458.085938 304.308594 457.777344 304.660156 457.445312 304.992188 C 457.113281 305.324219 456.761719 305.632812 456.394531 305.925781 C 456.027344 306.214844 455.644531 306.484375 455.242188 306.730469 C 454.84375 306.972656 454.429688 307.195312 454.003906 307.390625 C 453.578125 307.589844 453.144531 307.761719 452.699219 307.90625 C 444.300781 310.738281 430.871094 312.789062 412.667969 307.90625 C 379.535156 298.992188 367.980469 243.878906 367.980469 243.878906 C 367.980469 243.878906 361.742188 234.609375 366.414062 230.632812 C 371.085938 226.660156 374.882812 241.167969 374.882812 241.167969 C 374.882812 241.167969 381.730469 267.601562 406.460938 277.265625 C 426.558594 285.105469 449.078125 276.285156 458.6875 289.546875 Z M 458.6875 289.546875 " fill-opacity="1" fill-rule="nonzero"/><path fill="#000000" d="M 458.6875 289.546875 C 458.964844 289.925781 459.214844 290.320312 459.441406 290.730469 C 459.667969 291.140625 459.871094 291.5625 460.050781 291.996094 C 460.230469 292.429688 460.378906 292.871094 460.507812 293.324219 C 460.632812 293.777344 460.730469 294.234375 460.804688 294.695312 C 460.875 295.160156 460.921875 295.625 460.9375 296.09375 C 460.957031 296.5625 460.945312 297.03125 460.90625 297.496094 C 460.871094 297.964844 460.804688 298.429688 460.710938 298.886719 C 460.621094 299.347656 460.5 299.800781 460.355469 300.246094 C 460.210938 300.691406 460.039062 301.128906 459.84375 301.554688 C 459.644531 301.980469 459.425781 302.390625 459.179688 302.789062 C 458.933594 303.191406 458.667969 303.574219 458.375 303.941406 C 458.085938 304.308594 457.777344 304.660156 457.445312 304.992188 C 457.113281 305.324219 456.761719 305.632812 456.394531 305.925781 C 456.027344 306.214844 455.644531 306.484375 455.242188 306.730469 C 454.84375 306.972656 454.429688 307.195312 454.003906 307.390625 C 453.578125 307.589844 453.144531 307.761719 452.699219 307.90625 C 444.300781 310.738281 430.871094 312.789062 412.667969 307.90625 C 379.535156 298.992188 367.980469 243.878906 367.980469 243.878906 C 367.980469 243.878906 361.742188 234.609375 366.414062 230.632812 C 371.085938 226.660156 374.882812 241.167969 374.882812 241.167969 C 374.882812 241.167969 381.730469 267.601562 406.460938 277.265625 C 426.558594 285.105469 449.078125 276.285156 458.6875 289.546875 Z M 458.6875 289.546875 " fill-opacity="0.0863" fill-rule="nonzero"/><path fill="#f4a28c" d="M 466.964844 406.835938 L 434.867188 492.199219 L 428.554688 491.839844 L 439.574219 402.609375 Z M 466.964844 406.835938 " fill-opacity="1" fill-rule="nonzero"/><path fill="#f4a28c" d="M 489.394531 397.53125 L 481.921875 432.679688 L 506.511719 415.515625 L 510.738281 421.039062 C 510.738281 421.039062 485.382812 457.582031 466.980469 452.179688 C 448.578125 446.78125 463.558594 389.902344 463.558594 389.902344 Z M 489.394531 397.53125 " fill-opacity="1" fill-rule="nonzero"/><path fill="#f4a28c" d="M 458.226562 250.6875 L 464.714844 279.796875 L 448.402344 282.21875 L 450.238281 260.0625 Z M 458.226562 250.6875 " fill-opacity="1" fill-rule="nonzero"/><path fill="#ce8172" d="M 449.632812 264.894531 C 451.699219 264.226562 453.40625 263.035156 454.75 261.328125 C 454.75 261.328125 454.855469 266.785156 449.203125 272.539062 Z M 449.632812 264.894531 " fill-opacity="0.3098" fill-rule="nonzero"/><path fill="#f4a28c" d="M 441.480469 250.5625 C 441.660156 255.644531 442.503906 260.609375 444.015625 265.464844 C 444.121094 265.746094 444.257812 266.011719 444.417969 266.269531 C 444.582031 266.523438 444.765625 266.757812 444.972656 266.976562 C 445.179688 267.195312 445.410156 267.390625 445.65625 267.5625 C 445.902344 267.738281 446.164062 267.882812 446.4375 268.007812 C 446.714844 268.128906 447 268.222656 447.292969 268.285156 C 447.589844 268.351562 447.886719 268.386719 448.1875 268.394531 C 448.488281 268.402344 448.789062 268.378906 449.085938 268.328125 C 449.382812 268.273438 449.671875 268.195312 449.953125 268.085938 C 450.878906 267.785156 451.742188 267.363281 452.542969 266.8125 C 453.347656 266.265625 454.054688 265.617188 454.671875 264.863281 C 455.285156 264.109375 455.78125 263.285156 456.160156 262.390625 C 456.535156 261.496094 456.78125 260.566406 456.886719 259.601562 L 458.671875 251.382812 C 458.761719 250.539062 458.722656 249.703125 458.550781 248.875 C 458.382812 248.046875 458.089844 247.261719 457.675781 246.519531 C 457.261719 245.78125 456.746094 245.125 456.128906 244.542969 C 455.507812 243.964844 454.816406 243.492188 454.054688 243.128906 C 448.507812 240.082031 441.035156 245.019531 441.480469 250.5625 Z M 441.480469 250.5625 " fill-opacity="1" fill-rule="nonzero"/><path fill="#f4a28c" d="M 452.019531 257.246094 C 452.019531 257.246094 451.683594 253.683594 454.320312 253.683594 C 456.960938 253.683594 457.496094 258.671875 454 259.5625 Z M 452.019531 257.246094 " fill-opacity="1" fill-rule="nonzero"/><path fill="#f4a28c" d="M 441.964844 256.285156 L 439.894531 260.0625 C 439.835938 260.171875 439.789062 260.285156 439.757812 260.402344 C 439.726562 260.523438 439.707031 260.644531 439.707031 260.769531 C 439.707031 260.890625 439.722656 261.011719 439.75 261.132812 C 439.78125 261.253906 439.824219 261.367188 439.882812 261.476562 C 439.941406 261.582031 440.015625 261.683594 440.097656 261.773438 C 440.183594 261.863281 440.277344 261.941406 440.378906 262.007812 C 440.484375 262.074219 440.59375 262.128906 440.710938 262.167969 C 440.828125 262.207031 440.949219 262.230469 441.070312 262.238281 L 444.636719 262.46875 Z M 441.964844 256.285156 " fill-opacity="1" fill-rule="nonzero"/><path fill="#0984e3" d="M 448.402344 282.203125 C 448.402344 282.203125 408.707031 297.175781 419.496094 324.5 C 427.304688 344.285156 437.738281 340.648438 440.359375 356.425781 L 443.121094 371.949219 L 483.511719 359.902344 C 483.511719 359.902344 478.765625 337.175781 481.386719 322.09375 C 484.007812 307.015625 492 269.511719 448.402344 282.203125 Z M 448.402344 282.203125 " fill-opacity="1" fill-rule="nonzero"/><path fill="#000000" d="M 459.027344 290.988281 C 459.027344 290.988281 443.621094 312.574219 457.246094 334.625 C 459.546875 338.351562 461.578125 342.273438 463.539062 346.195312 L 472.097656 363.339844 L 483.546875 359.917969 L 481.960938 350.382812 Z M 459.027344 290.988281 " fill-opacity="0.0863" fill-rule="nonzero"/><path fill="#ffd200" d="M 454.320312 253.683594 C 454.320312 253.683594 447.296875 281.808594 456.710938 285.625 C 466.125 289.4375 481.441406 286.160156 481.851562 274.519531 C 482.261719 262.878906 470.742188 261.667969 468.371094 245.820312 C 466 229.976562 435.6875 235.464844 436.6875 244.625 C 437.683594 253.789062 454.320312 253.683594 454.320312 253.683594 Z M 454.320312 253.683594 " fill-opacity="1" fill-rule="nonzero"/><path fill="#24285b" d="M 483.511719 359.917969 L 443.121094 371.96875 L 435.582031 419.453125 L 489.714844 418.757812 C 489.714844 418.757812 503.605469 383.109375 483.511719 359.917969 Z M 483.511719 359.917969 " fill-opacity="1" fill-rule="nonzero"/><path fill="#0984e3" d="M 429.019531 491.859375 C 429.019531 491.859375 425.292969 496.085938 420.851562 495.601562 C 416.410156 495.121094 415.394531 501.394531 422.632812 501.144531 C 424.878906 501.082031 427.101562 500.832031 429.304688 500.398438 C 431.363281 500.039062 433.371094 500.222656 435.332031 500.949219 C 435.714844 501.058594 436.101562 501.050781 436.480469 500.921875 C 436.859375 500.796875 437.171875 500.574219 437.417969 500.253906 C 439.59375 497.972656 434.902344 492.199219 434.902344 492.199219 Z M 429.019531 491.859375 " fill-opacity="1" fill-rule="nonzero"/><path fill="#0984e3" d="M 510.167969 421.238281 C 510.167969 421.238281 515.785156 421.433594 518.261719 425.160156 C 520.742188 428.882812 526.199219 425.65625 521.417969 420.273438 C 519.949219 418.578125 518.339844 417.027344 516.585938 415.621094 C 515.007812 414.253906 513.867188 412.582031 513.164062 410.613281 C 513.015625 410.253906 512.777344 409.972656 512.449219 409.757812 C 512.125 409.546875 511.769531 409.445312 511.378906 409.453125 C 508.242188 409.222656 506.585938 415.585938 506.585938 415.585938 Z M 510.167969 421.238281 " fill-opacity="1" fill-rule="nonzero"/><path fill="#0984e3" d="M 156.378906 492.019531 C 156.378906 492.019531 159.195312 496.566406 163.726562 495.976562 C 168.253906 495.390625 170.324219 499.542969 166.578125 501.484375 C 162.832031 503.429688 151.4375 500.539062 151.4375 500.539062 L 150.066406 492.339844 Z M 156.378906 492.019531 " fill-opacity="1" fill-rule="nonzero"/><path fill="#f4a28c" d="M 183.570312 300.9375 C 183.570312 300.9375 228.433594 272.167969 245.390625 242.363281 L 239.6875 236.089844 C 239.6875 236.089844 201.117188 270.207031 167.308594 276.089844 Z M 183.570312 300.9375 " fill-opacity="1" fill-rule="nonzero"/><path fill="#f4a28c" d="M 245.390625 242.363281 C 245.480469 242.363281 248.957031 237.996094 249.082031 237.691406 C 250.503906 235.722656 251.351562 233.53125 251.613281 231.117188 C 251.582031 230.425781 251.453125 229.75 251.230469 229.09375 C 251.011719 228.4375 250.707031 227.824219 250.316406 227.25 C 249.925781 226.679688 249.464844 226.167969 248.933594 225.722656 C 248.40625 225.277344 247.824219 224.914062 247.191406 224.628906 C 246.921875 224.460938 246.628906 224.335938 246.316406 224.261719 C 246.003906 224.183594 245.691406 224.15625 245.371094 224.179688 C 245.050781 224.203125 244.742188 224.273438 244.445312 224.390625 C 244.144531 224.511719 243.875 224.671875 243.625 224.875 C 243.308594 225.257812 243.078125 225.6875 242.929688 226.160156 C 242.558594 227.167969 242.242188 228.199219 241.984375 229.242188 C 241.804688 228.460938 241.542969 227.707031 241.203125 226.980469 C 241.058594 226.675781 240.863281 226.339844 240.523438 226.285156 C 240.359375 226.265625 240.210938 226.300781 240.066406 226.382812 C 239.925781 226.464844 239.824219 226.582031 239.757812 226.730469 C 239.632812 227.027344 239.574219 227.335938 239.578125 227.65625 C 239.488281 229.441406 239.363281 231.222656 239.3125 233.003906 C 239.355469 233.648438 239.445312 234.28125 239.578125 234.914062 C 239.578125 235.144531 239.578125 235.910156 239.757812 236.105469 Z M 245.390625 242.363281 " fill-opacity="1" fill-rule="nonzero"/><path fill="#0984e3" d="M 122.75 313.484375 C 139.027344 319.027344 165.542969 321.878906 193.878906 299.421875 L 186.261719 266.996094 C 186.261719 266.996094 140.703125 273.289062 118.503906 291.953125 C 117.65625 292.679688 116.917969 293.503906 116.289062 294.425781 C 115.660156 295.347656 115.164062 296.335938 114.796875 297.390625 C 114.433594 298.445312 114.210938 299.53125 114.132812 300.644531 C 114.054688 301.757812 114.125 302.863281 114.339844 303.957031 C 114.554688 305.050781 114.910156 306.101562 115.40625 307.101562 C 115.898438 308.101562 116.515625 309.019531 117.253906 309.859375 C 117.992188 310.695312 118.828125 311.421875 119.761719 312.035156 C 120.691406 312.652344 121.6875 313.132812 122.75 313.484375 Z M 122.75 313.484375 " fill-opacity="1" fill-rule="nonzero"/><path fill="#ffffff" d="M 122.75 313.484375 C 139.027344 319.027344 165.542969 321.878906 193.878906 299.421875 L 186.261719 266.996094 C 186.261719 266.996094 140.703125 273.289062 118.503906 291.953125 C 117.65625 292.679688 116.917969 293.503906 116.289062 294.425781 C 115.660156 295.347656 115.164062 296.335938 114.796875 297.390625 C 114.433594 298.445312 114.210938 299.53125 114.132812 300.644531 C 114.054688 301.757812 114.125 302.863281 114.339844 303.957031 C 114.554688 305.050781 114.910156 306.101562 115.40625 307.101562 C 115.898438 308.101562 116.515625 309.019531 117.253906 309.859375 C 117.992188 310.695312 118.828125 311.421875 119.761719 312.035156 C 120.691406 312.652344 121.6875 313.132812 122.75 313.484375 Z M 122.75 313.484375 " fill-opacity="0.4588" fill-rule="nonzero"/><path fill="#f4a28c" d="M 150.226562 246.140625 C 151.683594 250.269531 152.5625 254.519531 152.867188 258.886719 C 152.867188 259.410156 152.765625 259.914062 152.566406 260.398438 C 152.367188 260.878906 152.082031 261.308594 151.710938 261.679688 C 151.34375 262.050781 150.917969 262.335938 150.433594 262.539062 C 149.953125 262.738281 149.449219 262.839844 148.925781 262.84375 C 148.089844 262.894531 147.265625 262.824219 146.449219 262.632812 C 145.632812 262.445312 144.863281 262.144531 144.132812 261.734375 C 143.40625 261.324219 142.75 260.820312 142.164062 260.21875 C 141.582031 259.617188 141.09375 258.949219 140.703125 258.210938 L 136.765625 252.167969 C 136.429688 251.519531 136.199219 250.835938 136.074219 250.121094 C 135.949219 249.402344 135.9375 248.679688 136.039062 247.960938 C 136.140625 247.238281 136.347656 246.546875 136.664062 245.890625 C 136.980469 245.234375 137.386719 244.640625 137.886719 244.109375 C 141.328125 239.921875 148.871094 241.5625 150.226562 246.140625 Z M 150.226562 246.140625 " fill-opacity="1" fill-rule="nonzero"/><path fill="#f4a28c" d="M 137.441406 253.253906 L 139.867188 278.816406 L 153.863281 276.460938 L 146.480469 258.816406 Z M 137.441406 253.253906 " fill-opacity="1" fill-rule="nonzero"/><path fill="#ffd200" d="M 148.425781 246.945312 C 146.074219 247.519531 143.699219 247.941406 141.292969 248.210938 C 141.765625 248.640625 142.164062 249.128906 142.492188 249.671875 C 142.820312 250.21875 143.066406 250.800781 143.222656 251.417969 C 143.382812 252.035156 143.449219 252.664062 143.421875 253.300781 C 143.398438 253.9375 143.28125 254.558594 143.078125 255.160156 C 142.875 255.738281 142.585938 256.269531 142.203125 256.746094 C 141.824219 257.226562 141.375 257.628906 140.855469 257.953125 C 140.335938 258.277344 139.777344 258.507812 139.179688 258.640625 C 138.582031 258.769531 137.976562 258.800781 137.371094 258.726562 C 136.996094 257.597656 136.71875 256.445312 136.53125 255.269531 C 136.070312 253.949219 135.355469 252.488281 133.875 252.148438 C 132.949219 252.128906 132.035156 252.015625 131.128906 251.808594 C 130.847656 251.671875 130.609375 251.484375 130.410156 251.242188 C 130.210938 251 130.070312 250.730469 129.988281 250.425781 C 129.90625 250.125 129.890625 249.820312 129.9375 249.511719 C 129.988281 249.199219 130.101562 248.917969 130.273438 248.65625 C 130.808594 247.941406 131.824219 247.441406 131.789062 246.570312 C 131.753906 245.695312 130.914062 245.359375 130.363281 244.789062 C 129.863281 244.21875 129.554688 243.558594 129.445312 242.808594 C 129.335938 242.058594 129.4375 241.339844 129.757812 240.652344 C 130.417969 239.300781 131.34375 238.164062 132.539062 237.246094 C 132.78125 237.089844 132.9375 236.871094 133 236.585938 C 133 236.179688 132.628906 235.910156 132.359375 235.605469 C 132.0625 235.203125 131.910156 234.746094 131.910156 234.242188 C 131.910156 233.738281 132.0625 233.285156 132.359375 232.878906 C 132.972656 232.0625 133.757812 231.464844 134.714844 231.097656 C 137.214844 230.078125 139.8125 229.484375 142.503906 229.316406 C 143.71875 229.097656 144.910156 229.191406 146.070312 229.601562 C 146.347656 229.703125 146.597656 229.84375 146.828125 230.027344 C 147.058594 230.210938 147.25 230.425781 147.410156 230.671875 C 147.574219 230.917969 147.691406 231.179688 147.765625 231.464844 C 147.84375 231.746094 147.871094 232.035156 147.855469 232.328125 C 147.695312 233.433594 146.625 234.378906 146.839844 235.484375 C 147.050781 236.585938 148.480469 237.035156 149.636719 237.050781 C 150.84375 236.859375 151.957031 237.105469 152.972656 237.78125 C 154.167969 238.941406 153.203125 241.203125 151.617188 241.722656 C 151.300781 241.792969 151.007812 241.925781 150.742188 242.113281 C 150.28125 242.542969 150.476562 243.34375 150.851562 243.894531 C 151.292969 244.378906 151.605469 244.929688 151.796875 245.554688 C 151.992188 247.015625 149.675781 246.660156 148.835938 246.800781 Z M 148.425781 246.945312 " fill-opacity="1" fill-rule="nonzero"/><path fill="#f4a28c" d="M 143.898438 254.714844 C 143.898438 254.714844 143.09375 251.808594 140.953125 252.613281 C 138.816406 253.414062 139.957031 257.601562 143.039062 257.230469 Z M 143.898438 254.714844 " fill-opacity="1" fill-rule="nonzero"/><path fill="#f4a28c" d="M 151.636719 250.882812 L 154.507812 253.273438 C 154.585938 253.339844 154.65625 253.414062 154.71875 253.5 C 154.78125 253.585938 154.828125 253.675781 154.867188 253.773438 C 154.90625 253.871094 154.929688 253.972656 154.945312 254.074219 C 154.957031 254.179688 154.957031 254.285156 154.945312 254.386719 C 154.929688 254.492188 154.902344 254.59375 154.867188 254.691406 C 154.828125 254.785156 154.777344 254.878906 154.714844 254.960938 C 154.652344 255.046875 154.582031 255.125 154.5 255.191406 C 154.421875 255.257812 154.332031 255.3125 154.238281 255.359375 L 151.476562 256.660156 Z M 151.636719 250.882812 " fill-opacity="1" fill-rule="nonzero"/><path fill="#ce8172" d="M 148.265625 262.59375 C 146.402344 262.609375 144.691406 262.109375 143.128906 261.097656 C 143.851562 262.808594 144.863281 264.324219 146.164062 265.652344 C 147.460938 266.976562 148.960938 268.019531 150.65625 268.78125 Z M 148.265625 262.59375 " fill-opacity="0.3098" fill-rule="nonzero"/><path fill="#0984e3" d="M 103.457031 293.503906 C 104.449219 291.71875 105.582031 290.019531 106.84375 288.410156 C 108.105469 286.800781 109.484375 285.300781 110.984375 283.910156 C 112.480469 282.515625 114.078125 281.25 115.777344 280.109375 C 117.472656 278.964844 119.25 277.964844 121.101562 277.101562 C 122.957031 276.238281 124.867188 275.523438 126.835938 274.960938 C 128.800781 274.398438 130.800781 273.992188 132.828125 273.742188 C 134.859375 273.492188 136.898438 273.40625 138.941406 273.476562 C 140.984375 273.546875 143.011719 273.773438 145.019531 274.164062 L 151.207031 275.304688 C 151.207031 275.304688 194.910156 281.703125 192.21875 321.953125 C 191.71875 328.144531 190.796875 334.273438 189.460938 340.335938 C 188.125 346.402344 186.382812 352.351562 184.234375 358.179688 C 182.085938 364.007812 179.554688 369.664062 176.636719 375.148438 C 173.71875 380.632812 170.445312 385.894531 166.808594 390.933594 L 107.804688 384.230469 C 107.804688 384.230469 85.5 326.765625 103.457031 293.503906 Z M 103.457031 293.503906 " fill-opacity="1" fill-rule="nonzero"/><path fill="#24285b" d="M 158.160156 492.535156 L 166.808594 390.933594 L 107.804688 384.230469 L 88.316406 493.5 L 99.320312 493.5 L 136.210938 422.609375 C 136.640625 418.902344 148.035156 493.5 148.035156 493.5 Z M 158.160156 492.535156 " fill-opacity="1" fill-rule="nonzero"/><path fill="#000000" d="M 133.695312 293.574219 C 133.695312 293.574219 137.621094 324.359375 130.238281 352.484375 C 122.855469 380.613281 130.238281 386.851562 130.238281 386.851562 L 107.804688 384.304688 C 107.804688 384.304688 102.882812 371.824219 101.992188 365.5 C 101.101562 359.171875 101.636719 289.9375 133.695312 293.574219 Z M 133.695312 293.574219 " fill-opacity="0.0784" fill-rule="nonzero"/><path fill="#0984e3" d="M 105.417969 311.203125 C 117.488281 323.449219 139.9375 337.851562 175.316406 330.417969 L 170.785156 291.328125 C 170.785156 291.328125 139.457031 283.289062 111.28125 290.152344 C 110.207031 290.421875 109.183594 290.832031 108.21875 291.371094 C 107.25 291.914062 106.367188 292.574219 105.574219 293.347656 C 104.777344 294.121094 104.097656 294.988281 103.535156 295.941406 C 102.96875 296.894531 102.539062 297.90625 102.238281 298.976562 C 101.941406 300.042969 101.789062 301.132812 101.777344 302.242188 C 101.769531 303.351562 101.902344 304.441406 102.183594 305.515625 C 102.460938 306.589844 102.875 307.609375 103.421875 308.574219 C 103.972656 309.539062 104.636719 310.414062 105.417969 311.203125 Z M 105.417969 311.203125 " fill-opacity="1" fill-rule="nonzero"/><path fill="#ffffff" d="M 105.417969 311.203125 C 117.488281 323.449219 139.9375 337.851562 175.316406 330.417969 L 170.785156 291.328125 C 170.785156 291.328125 139.457031 283.289062 111.28125 290.152344 C 110.207031 290.421875 109.183594 290.832031 108.21875 291.371094 C 107.25 291.914062 106.367188 292.574219 105.574219 293.347656 C 104.777344 294.121094 104.097656 294.988281 103.535156 295.941406 C 102.96875 296.894531 102.539062 297.90625 102.238281 298.976562 C 101.941406 300.042969 101.789062 301.132812 101.777344 302.242188 C 101.769531 303.351562 101.902344 304.441406 102.183594 305.515625 C 102.460938 306.589844 102.875 307.609375 103.421875 308.574219 C 103.972656 309.539062 104.636719 310.414062 105.417969 311.203125 Z M 105.417969 311.203125 " fill-opacity="0.4588" fill-rule="nonzero"/><path fill="#f4a28c" d="M 174.886719 326.765625 C 174.886719 326.765625 227.898438 321.097656 256.394531 302.023438 L 254.09375 293.859375 C 254.09375 293.859375 204.34375 307.121094 171.464844 297.28125 Z M 174.886719 326.765625 " fill-opacity="1" fill-rule="nonzero"/><path fill="#f4a28c" d="M 256.394531 301.988281 C 258.917969 300.890625 261.355469 299.625 263.703125 298.191406 C 265.382812 297.09375 266.621094 295.628906 267.414062 293.789062 C 267.6875 292.621094 267.710938 291.449219 267.484375 290.273438 C 267.257812 289.09375 266.800781 288.015625 266.113281 287.03125 C 265.832031 286.570312 265.441406 286.234375 264.941406 286.023438 C 264.441406 285.816406 263.929688 285.769531 263.402344 285.890625 C 262.839844 286.132812 262.363281 286.492188 261.976562 286.960938 C 261.011719 288.011719 260.050781 289.066406 259.105469 290.132812 C 259.101562 289.152344 258.984375 288.183594 258.746094 287.230469 C 258.746094 287.03125 258.605469 286.78125 258.390625 286.765625 C 258.257812 286.761719 258.136719 286.804688 258.035156 286.890625 C 255.519531 288.566406 252.523438 291.863281 253.328125 294.699219 C 253.914062 296.820312 255.804688 299.882812 256.394531 301.988281 Z M 256.394531 301.988281 " fill-opacity="1" fill-rule="nonzero"/><path fill="#0984e3" d="M 90.011719 493.355469 C 90.011719 493.355469 87.175781 497.902344 82.664062 497.3125 C 78.152344 496.726562 76.046875 500.878906 79.8125 502.820312 C 83.574219 504.765625 94.949219 501.878906 94.949219 501.878906 L 96.324219 493.675781 Z M 90.011719 493.355469 " fill-opacity="1" fill-rule="nonzero"/><path fill="#f4a28c" d="M 473.132812 287.121094 C 473.585938 287.25 474.027344 287.402344 474.460938 287.582031 C 474.894531 287.757812 475.316406 287.964844 475.722656 288.191406 C 476.132812 288.421875 476.527344 288.671875 476.90625 288.945312 C 477.289062 289.222656 477.648438 289.515625 477.996094 289.835938 C 478.339844 290.152344 478.664062 290.488281 478.972656 290.84375 C 479.277344 291.199219 479.5625 291.570312 479.824219 291.960938 C 480.085938 292.347656 480.324219 292.75 480.539062 293.167969 C 480.753906 293.585938 480.941406 294.011719 481.105469 294.453125 C 481.269531 294.890625 481.410156 295.335938 481.519531 295.792969 C 481.632812 296.246094 481.71875 296.707031 481.773438 297.171875 C 481.832031 297.636719 481.863281 298.105469 481.867188 298.574219 C 481.871094 299.042969 481.84375 299.511719 481.792969 299.976562 C 481.742188 300.441406 481.664062 300.902344 481.558594 301.359375 C 481.449219 301.816406 481.316406 302.265625 481.160156 302.707031 C 481 303.148438 480.816406 303.578125 480.609375 303.996094 C 480.398438 304.417969 480.164062 304.820312 479.910156 305.214844 C 475.113281 312.664062 465.910156 322.648438 448.632812 330.167969 C 417.195312 343.875 373.742188 307.996094 373.742188 307.996094 C 373.742188 307.996094 363.042969 304.644531 364.238281 298.636719 C 365.433594 292.628906 377.433594 301.578125 377.433594 301.578125 C 377.433594 301.578125 399.292969 317.957031 424.632812 310.082031 C 445.246094 303.699219 457.351562 282.753906 473.132812 287.121094 Z M 473.132812 287.121094 " fill-opacity="1" fill-rule="nonzero"/><path fill="#0984e3" d="M 228.078125 188.515625 C 228.332031 189 228.609375 189.476562 228.910156 189.933594 C 229.210938 190.394531 229.535156 190.835938 229.878906 191.265625 C 230.226562 191.691406 230.59375 192.101562 230.980469 192.492188 C 231.367188 192.882812 231.769531 193.25 232.195312 193.601562 C 232.617188 193.953125 233.058594 194.28125 233.515625 194.585938 C 233.972656 194.890625 234.441406 195.171875 234.929688 195.433594 C 235.414062 195.691406 235.910156 195.925781 236.417969 196.132812 C 236.925781 196.34375 237.445312 196.527344 237.96875 196.683594 C 238.496094 196.839844 239.03125 196.96875 239.570312 197.074219 C 240.109375 197.179688 240.652344 197.253906 241.199219 197.304688 C 241.75 197.351562 242.296875 197.375 242.847656 197.367188 C 243.394531 197.363281 243.945312 197.332031 244.492188 197.269531 C 245.035156 197.210938 245.578125 197.121094 246.117188 197.007812 C 246.652344 196.890625 247.183594 196.75 247.707031 196.582031 C 248.230469 196.414062 248.746094 196.222656 249.25 196 C 249.753906 195.78125 250.242188 195.539062 250.722656 195.269531 C 267.734375 185.714844 296.03125 173.453125 305.574219 153.023438 C 317.949219 126.535156 263.972656 91.757812 263.972656 91.757812 L 256.179688 100.671875 C 256.179688 100.671875 326.132812 144.699219 238.207031 161.953125 C 227.007812 164.164062 222.78125 178.460938 228.078125 188.566406 Z M 228.078125 188.515625 " fill-opacity="1" fill-rule="nonzero"/><path fill="#ffffff" d="M 228.078125 188.515625 C 228.332031 189 228.609375 189.476562 228.910156 189.933594 C 229.210938 190.394531 229.535156 190.835938 229.878906 191.265625 C 230.226562 191.691406 230.59375 192.101562 230.980469 192.492188 C 231.367188 192.882812 231.769531 193.25 232.195312 193.601562 C 232.617188 193.953125 233.058594 194.28125 233.515625 194.585938 C 233.972656 194.890625 234.441406 195.171875 234.929688 195.433594 C 235.414062 195.691406 235.910156 195.925781 236.417969 196.132812 C 236.925781 196.34375 237.445312 196.527344 237.96875 196.683594 C 238.496094 196.839844 239.03125 196.96875 239.570312 197.074219 C 240.109375 197.179688 240.652344 197.253906 241.199219 197.304688 C 241.75 197.351562 242.296875 197.375 242.847656 197.367188 C 243.394531 197.363281 243.945312 197.332031 244.492188 197.269531 C 245.035156 197.210938 245.578125 197.121094 246.117188 197.007812 C 246.652344 196.890625 247.183594 196.75 247.707031 196.582031 C 248.230469 196.414062 248.746094 196.222656 249.25 196 C 249.753906 195.78125 250.242188 195.539062 250.722656 195.269531 C 267.734375 185.714844 296.03125 173.453125 305.574219 153.023438 C 317.949219 126.535156 263.972656 91.757812 263.972656 91.757812 L 256.179688 100.671875 C 256.179688 100.671875 326.132812 144.699219 238.207031 161.953125 C 227.007812 164.164062 222.78125 178.460938 228.078125 188.566406 Z M 228.078125 188.515625 " fill-opacity="0.4588" fill-rule="nonzero"/><path fill="#0984e3" d="M 384.296875 199.832031 C 384.296875 199.832031 388.09375 197.445312 387.597656 193.648438 C 387.097656 189.851562 390.539062 188.050781 392.214844 191.207031 C 393.890625 194.359375 391.5 203.96875 391.5 203.96875 L 384.582031 205.164062 Z M 384.296875 199.832031 " fill-opacity="1" fill-rule="nonzero"/><path fill="#0984e3" d="M 389.824219 280.1875 C 389.824219 280.1875 394.015625 281.828125 396.777344 279.152344 C 399.542969 276.480469 403.019531 278.171875 401.488281 281.417969 C 399.953125 284.660156 390.789062 288.421875 390.789062 288.421875 L 385.707031 283.59375 Z M 389.824219 280.1875 " fill-opacity="1" fill-rule="nonzero"/><path fill="#f4a28c" d="M 196.996094 155.644531 C 200.503906 158.191406 203.609375 161.164062 206.304688 164.558594 C 206.589844 164.980469 206.78125 165.441406 206.882812 165.941406 C 206.984375 166.441406 206.988281 166.941406 206.890625 167.445312 C 206.792969 167.945312 206.605469 168.40625 206.324219 168.832031 C 206.042969 169.261719 205.691406 169.617188 205.273438 169.90625 C 204.617188 170.410156 203.910156 170.8125 203.140625 171.113281 C 202.371094 171.410156 201.574219 171.597656 200.753906 171.667969 C 199.929688 171.738281 199.117188 171.695312 198.308594 171.53125 C 197.5 171.367188 196.730469 171.089844 196 170.707031 L 189.402344 167.980469 C 188.773438 167.640625 188.210938 167.21875 187.710938 166.703125 C 187.214844 166.191406 186.808594 165.617188 186.488281 164.980469 C 186.167969 164.339844 185.953125 163.667969 185.84375 162.964844 C 185.730469 162.261719 185.730469 161.554688 185.835938 160.847656 C 186.300781 155.5 193.34375 152.648438 196.996094 155.644531 Z M 196.996094 155.644531 " fill-opacity="1" fill-rule="nonzero"/><path fill="#f4a28c" d="M 190.523438 168.515625 L 206.714844 187.996094 L 216.828125 178.316406 L 200.992188 168.03125 Z M 190.523438 168.515625 " fill-opacity="1" fill-rule="nonzero"/><path fill="#24285b" d="M 195.980469 157.265625 C 194.472656 159.136719 192.765625 160.804688 190.863281 162.273438 C 191.488281 162.359375 192.089844 162.527344 192.664062 162.789062 C 193.238281 163.046875 193.765625 163.382812 194.238281 163.796875 C 194.714844 164.210938 195.121094 164.683594 195.457031 165.214844 C 195.792969 165.75 196.046875 166.320312 196.214844 166.925781 C 196.378906 167.511719 196.441406 168.105469 196.402344 168.710938 C 196.363281 169.316406 196.226562 169.898438 195.988281 170.457031 C 195.753906 171.015625 195.429688 171.519531 195.023438 171.96875 C 194.613281 172.417969 194.144531 172.789062 193.609375 173.078125 L 186.226562 166.429688 C 185.683594 165.972656 185.210938 165.453125 184.808594 164.871094 C 184.402344 164.285156 184.085938 163.660156 183.851562 162.988281 C 183.621094 162.316406 183.480469 161.628906 183.4375 160.921875 C 183.390625 160.210938 183.441406 159.511719 183.589844 158.816406 C 183.828125 157.605469 184.148438 156.417969 184.550781 155.253906 C 185.566406 152.347656 189.777344 150.457031 190.007812 147.25 C 190.007812 146.910156 190.097656 146.597656 190.277344 146.308594 C 190.457031 146.019531 190.699219 145.800781 191.003906 145.652344 C 191.308594 145.503906 191.632812 145.445312 191.96875 145.480469 C 192.308594 145.511719 192.609375 145.632812 192.878906 145.839844 C 195.445312 147.5 198.65625 151.027344 197.210938 155.199219 C 196.917969 155.957031 196.507812 156.644531 195.980469 157.265625 Z M 195.980469 157.265625 " fill-opacity="1" fill-rule="nonzero"/><path fill="#f4a28c" d="M 196.550781 166.160156 C 196.550781 166.160156 194.289062 164.234375 192.984375 166.070312 C 191.683594 167.90625 194.949219 170.6875 197.246094 168.675781 Z M 196.550781 166.160156 " fill-opacity="1" fill-rule="nonzero"/><path fill="#f4a28c" d="M 200.777344 158.710938 L 204.34375 159.050781 C 204.542969 159.074219 204.726562 159.144531 204.890625 159.257812 C 205.058594 159.371094 205.1875 159.515625 205.28125 159.695312 C 205.375 159.871094 205.425781 160.0625 205.425781 160.261719 C 205.425781 160.460938 205.382812 160.652344 205.289062 160.832031 L 203.773438 163.417969 Z M 200.777344 158.710938 " fill-opacity="1" fill-rule="nonzero"/><path fill="#ce8172" d="M 204.523438 170.136719 C 203.015625 171.175781 201.34375 171.714844 199.511719 171.757812 C 201.046875 172.746094 202.707031 173.417969 204.496094 173.78125 C 206.285156 174.140625 208.074219 174.160156 209.871094 173.84375 Z M 204.523438 170.136719 " fill-opacity="0.3098" fill-rule="nonzero"/><path fill="#0984e3" d="M 206.714844 187.996094 L 213.597656 181.402344 C 215.277344 179.796875 216.859375 178.105469 218.34375 176.320312 C 223.066406 170.582031 238.542969 154.824219 261.40625 162.3125 C 289.113281 171.367188 304.949219 225.160156 304.949219 225.160156 L 273.332031 261.4375 C 273.332031 261.4375 163.511719 240.9375 206.714844 187.996094 Z M 206.714844 187.996094 " fill-opacity="1" fill-rule="nonzero"/><path fill="#f4a28c" d="M 257.640625 98.941406 C 257.640625 98.941406 245.390625 93.472656 244.429688 88.25 C 243.464844 83.027344 253.878906 91.011719 253.878906 91.011719 C 253.878906 91.011719 258.765625 81.777344 263.972656 91.707031 Z M 257.640625 98.941406 " fill-opacity="1" fill-rule="nonzero"/><path fill="#f4a28c" d="M 254.808594 92.703125 C 254.808594 92.703125 246.425781 83.792969 249.117188 82.007812 C 251.8125 80.226562 258.300781 90.511719 258.300781 90.511719 Z M 254.808594 92.703125 " fill-opacity="1" fill-rule="nonzero"/><path fill="#24285b" d="M 273.332031 261.398438 C 273.332031 261.398438 296.675781 280.863281 310.636719 262.808594 C 324.597656 244.75 327.003906 202.578125 384.851562 206.480469 L 384.386719 196.910156 C 384.386719 196.910156 338.96875 179.210938 302.59375 218.15625 Z M 273.332031 261.398438 " fill-opacity="1" fill-rule="nonzero"/><path fill="#24285b" d="M 291.984375 269.242188 C 291.984375 269.242188 336.5625 238.316406 381.675781 286.730469 L 389.824219 280.1875 C 389.824219 280.1875 363.078125 227.335938 294.625 235.144531 Z M 291.984375 269.242188 " fill-opacity="1" fill-rule="nonzero"/><path fill="#000000" d="M 229.734375 200.207031 C 229.734375 200.207031 240.222656 205.554688 246.855469 225.160156 C 253.488281 244.769531 287.722656 240.257812 287.722656 240.257812 L 273.332031 261.507812 C 273.332031 261.507812 237.832031 253.984375 218.679688 241.703125 C 199.53125 229.421875 229.238281 201.402344 229.238281 201.402344 Z M 229.734375 200.207031 " fill-opacity="0.0784" fill-rule="nonzero"/><path fill="#0984e3" d="M 206.875 229.921875 C 232.855469 240.917969 291.398438 255.765625 304.039062 173.738281 L 292.378906 169.191406 C 292.378906 169.191406 269.195312 224.144531 223.761719 199.046875 C 222.070312 198.089844 220.324219 197.246094 218.519531 196.515625 C 210.441406 193.308594 190.3125 187.230469 190.5625 206.214844 C 190.59375 207.484375 190.71875 208.746094 190.933594 209.996094 C 191.148438 211.25 191.453125 212.480469 191.84375 213.6875 C 192.238281 214.894531 192.714844 216.070312 193.277344 217.207031 C 193.839844 218.347656 194.480469 219.441406 195.199219 220.488281 C 195.921875 221.535156 196.710938 222.523438 197.574219 223.457031 C 198.4375 224.386719 199.363281 225.253906 200.351562 226.050781 C 201.339844 226.851562 202.382812 227.574219 203.476562 228.222656 C 204.566406 228.871094 205.703125 229.4375 206.875 229.921875 Z M 206.875 229.921875 " fill-opacity="1" fill-rule="nonzero"/><path fill="#ffffff" d="M 206.875 229.921875 C 232.855469 240.917969 291.398438 255.765625 304.039062 173.738281 L 292.378906 169.191406 C 292.378906 169.191406 269.195312 224.144531 223.761719 199.046875 C 222.070312 198.089844 220.324219 197.246094 218.519531 196.515625 C 210.441406 193.308594 190.3125 187.230469 190.5625 206.214844 C 190.59375 207.484375 190.71875 208.746094 190.933594 209.996094 C 191.148438 211.25 191.453125 212.480469 191.84375 213.6875 C 192.238281 214.894531 192.714844 216.070312 193.277344 217.207031 C 193.839844 218.347656 194.480469 219.441406 195.199219 220.488281 C 195.921875 221.535156 196.710938 222.523438 197.574219 223.457031 C 198.4375 224.386719 199.363281 225.253906 200.351562 226.050781 C 201.339844 226.851562 202.382812 227.574219 203.476562 228.222656 C 204.566406 228.871094 205.703125 229.4375 206.875 229.921875 Z M 206.875 229.921875 " fill-opacity="0.4588" fill-rule="nonzero"/><path fill="#f4a28c" d="M 294.445312 169.992188 C 294.820312 167.96875 295.460938 166.03125 296.371094 164.179688 C 297.277344 162.332031 298.421875 160.636719 299.796875 159.101562 C 304.019531 154.894531 308.335938 155.539062 310.726562 158.816406 C 313.113281 162.097656 302.59375 167.535156 302.59375 167.535156 L 302.378906 173.078125 Z M 294.445312 169.992188 " fill-opacity="1" fill-rule="nonzero"/><path fill="#e6e6e6" d="M 103.730469 217.046875 L 128.8125 202.296875 L 132.765625 209.011719 L 107.679688 223.761719 Z M 103.730469 217.046875 " fill-opacity="0.498" fill-rule="nonzero"/><path fill="#e6e6e6" d="M 446.90625 197.445312 L 418.761719 204.835938 L 416.78125 197.304688 L 444.929688 189.910156 Z M 446.90625 197.445312 " fill-opacity="0.498" fill-rule="nonzero"/><path fill="#e6e6e6" d="M 368.71875 156.265625 L 348.917969 149.863281 L 350.628906 144.574219 L 370.429688 150.972656 Z M 368.71875 156.265625 " fill-opacity="0.498" fill-rule="nonzero"/><path fill="#e6e6e6" d="M 421.601562 158.632812 L 430.488281 139.824219 L 435.519531 142.199219 L 426.628906 161.007812 Z M 421.601562 158.632812 " fill-opacity="0.498" fill-rule="nonzero"/><path fill="#e6e6e6" d="M 322.128906 307.257812 L 331.019531 288.449219 L 336.050781 290.824219 L 327.160156 309.632812 Z M 322.128906 307.257812 " fill-opacity="0.498" fill-rule="nonzero"/><path fill="#e6e6e6" d="M 504.300781 174.34375 L 483.6875 171.496094 L 484.449219 165.988281 L 505.0625 168.835938 Z M 504.300781 174.34375 " fill-opacity="0.498" fill-rule="nonzero"/><path fill="#e6e6e6" d="M 170.726562 183.46875 L 150.679688 177.878906 L 152.175781 172.523438 L 172.21875 178.109375 Z M 170.726562 183.46875 " fill-opacity="0.498" fill-rule="nonzero"/><path fill="#e6e6e6" d="M 239.226562 133.027344 L 218.835938 137.179688 L 217.722656 131.730469 L 238.113281 127.574219 Z M 239.226562 133.027344 " fill-opacity="0.498" fill-rule="nonzero"/><path fill="#e6e6e6" d="M 138.3125 138.515625 L 117.921875 142.671875 L 116.8125 137.222656 L 137.203125 133.066406 Z M 138.3125 138.515625 " fill-opacity="0.498" fill-rule="nonzero"/></svg>