<svg xmlns="http://www.w3.org/2000/svg" xmlns:xlink="http://www.w3.org/1999/xlink" width="400" zoomAndPan="magnify" viewBox="0 0 612 599.999999" height="200" preserveAspectRatio="xMidYMid meet" version="1.0"><defs><clipPath id="d99191d156"><path d="M 116.007812 131 L 433 131 L 433 502.339844 L 116.007812 502.339844 Z M 116.007812 131 " clip-rule="nonzero"/></clipPath><clipPath id="87e54e50ce"><path d="M 390 131 L 433 131 L 433 502.339844 L 390 502.339844 Z M 390 131 " clip-rule="nonzero"/></clipPath><clipPath id="32bf8e723e"><path d="M 204 97.339844 L 345 97.339844 L 345 169 L 204 169 Z M 204 97.339844 " clip-rule="nonzero"/></clipPath></defs><rect x="-61.2" width="734.4" fill="#ffffff" y="-60" height="719.999999" fill-opacity="1"/><rect x="-61.2" width="734.4" fill="#ffffff" y="-60" height="719.999999" fill-opacity="1"/><g clip-path="url(#d99191d156)"><path fill="#837683" d="M 414.421875 131.921875 C 424.4375 131.921875 432.605469 140.078125 432.605469 150.078125 L 432.605469 484.183594 C 432.605469 494.183594 424.4375 502.339844 414.421875 502.339844 L 134.375 502.339844 C 124.359375 502.339844 116.191406 494.183594 116.191406 484.183594 L 116.191406 150.078125 C 116.191406 140.078125 124.359375 131.921875 134.375 131.921875 Z M 414.421875 131.921875 " fill-opacity="1" fill-rule="evenodd"/></g><g clip-path="url(#87e54e50ce)"><path fill="#685e68" d="M 390.953125 502.339844 L 414.421875 502.339844 C 424.4375 502.339844 432.605469 494.183594 432.605469 484.183594 L 432.605469 150.078125 C 432.605469 140.078125 424.4375 131.921875 414.421875 131.921875 L 390.953125 131.921875 Z M 390.953125 502.339844 " fill-opacity="1" fill-rule="evenodd"/></g><path fill="#eceff1" d="M 399.132812 157.183594 L 149.664062 157.183594 C 145.160156 157.183594 141.488281 160.851562 141.488281 165.347656 L 141.488281 468.917969 C 141.488281 473.414062 145.160156 477.082031 149.664062 477.082031 L 399.132812 477.082031 C 403.636719 477.082031 407.308594 473.414062 407.308594 468.917969 L 407.308594 165.347656 C 407.308594 160.851562 403.636719 157.183594 399.132812 157.183594 Z M 399.132812 157.183594 " fill-opacity="1" fill-rule="evenodd"/><path fill="#d1d1d6" d="M 390.953125 477.082031 L 399.132812 477.082031 C 399.390625 477.082031 399.644531 477.070312 399.894531 477.046875 C 404.042969 476.660156 407.308594 473.15625 407.308594 468.917969 L 407.308594 165.347656 C 407.308594 161.105469 404.042969 157.601562 399.894531 157.21875 C 399.644531 157.195312 399.390625 157.183594 399.132812 157.183594 L 390.953125 157.183594 Z M 390.953125 477.082031 " fill-opacity="1" fill-rule="evenodd"/><g clip-path="url(#32bf8e723e)"><path fill="#e3a76f" d="M 212.5625 120.945312 L 238.484375 120.945312 C 241.820312 120.945312 244.675781 119.070312 245.992188 116.011719 C 250.730469 105.03125 261.664062 97.339844 274.398438 97.339844 C 287.132812 97.339844 298.066406 105.03125 302.800781 116.011719 C 304.121094 119.070312 306.972656 120.945312 310.3125 120.945312 L 336.230469 120.945312 C 340.734375 120.945312 344.410156 124.613281 344.410156 129.113281 L 344.410156 159.992188 C 344.410156 164.488281 340.734375 168.15625 336.230469 168.15625 L 212.5625 168.15625 C 208.058594 168.15625 204.386719 164.488281 204.386719 159.992188 L 204.386719 129.113281 C 204.386719 124.613281 208.058594 120.945312 212.5625 120.945312 Z M 212.5625 120.945312 " fill-opacity="1" fill-rule="evenodd"/></g><path fill="#c48958" d="M 328.054688 159.992188 L 204.386719 159.992188 C 204.386719 164.488281 208.058594 168.15625 212.5625 168.15625 L 336.234375 168.15625 C 340.738281 168.15625 344.410156 164.488281 344.410156 159.992188 L 344.410156 129.109375 C 344.410156 124.613281 340.738281 120.945312 336.234375 120.945312 L 336.234375 151.828125 C 336.234375 153.871094 335.472656 155.746094 334.21875 157.183594 C 332.71875 158.902344 330.511719 159.992188 328.054688 159.992188 Z M 328.054688 159.992188 " fill-opacity="1" fill-rule="evenodd"/><path fill="#eceff1" d="M 281.046875 116.007812 C 281.480469 116.445312 281.871094 116.917969 282.214844 117.429688 C 282.558594 117.945312 282.847656 118.484375 283.085938 119.054688 C 283.320312 119.625 283.5 120.210938 283.621094 120.816406 C 283.738281 121.421875 283.800781 122.03125 283.800781 122.648438 C 283.800781 123.265625 283.738281 123.875 283.621094 124.480469 C 283.5 125.085938 283.320312 125.671875 283.085938 126.242188 C 282.847656 126.8125 282.558594 127.351562 282.214844 127.863281 C 281.871094 128.378906 281.484375 128.851562 281.046875 129.289062 C 280.609375 129.722656 280.132812 130.113281 279.621094 130.457031 C 279.105469 130.796875 278.566406 131.085938 277.996094 131.324219 C 277.425781 131.558594 276.835938 131.738281 276.230469 131.859375 C 275.625 131.976562 275.011719 132.039062 274.394531 132.039062 C 273.777344 132.039062 273.167969 131.976562 272.5625 131.859375 C 271.957031 131.738281 271.367188 131.558594 270.796875 131.324219 C 270.226562 131.085938 269.683594 130.796875 269.171875 130.457031 C 268.65625 130.113281 268.183594 129.722656 267.746094 129.289062 C 267.308594 128.851562 266.917969 128.378906 266.578125 127.863281 C 266.234375 127.351562 265.945312 126.8125 265.707031 126.242188 C 265.472656 125.671875 265.292969 125.085938 265.171875 124.480469 C 265.050781 123.875 264.992188 123.265625 264.992188 122.648438 C 264.992188 122.03125 265.050781 121.421875 265.171875 120.816406 C 265.292969 120.210938 265.472656 119.625 265.707031 119.054688 C 265.945312 118.484375 266.234375 117.945312 266.578125 117.429688 C 266.917969 116.917969 267.308594 116.445312 267.746094 116.007812 C 268.183594 115.574219 268.65625 115.183594 269.171875 114.839844 C 269.683594 114.496094 270.226562 114.207031 270.796875 113.972656 C 271.367188 113.738281 271.957031 113.558594 272.5625 113.4375 C 273.167969 113.316406 273.777344 113.257812 274.394531 113.257812 C 275.011719 113.257812 275.625 113.316406 276.230469 113.4375 C 276.835938 113.558594 277.425781 113.738281 277.996094 113.972656 C 278.566406 114.207031 279.105469 114.496094 279.621094 114.839844 C 280.132812 115.183594 280.609375 115.570312 281.046875 116.007812 Z M 281.046875 116.007812 " fill-opacity="1" fill-rule="nonzero"/><path fill="#fe646f" d="M 192.523438 208.785156 L 224.257812 208.785156 C 230.015625 208.785156 234.730469 213.488281 234.730469 219.238281 L 234.730469 250.925781 C 234.730469 256.675781 230.015625 261.382812 224.257812 261.382812 L 192.523438 261.382812 C 186.765625 261.382812 182.054688 256.675781 182.054688 250.925781 L 182.054688 219.238281 C 182.050781 213.488281 186.765625 208.785156 192.523438 208.785156 Z M 192.523438 208.785156 " fill-opacity="1" fill-rule="evenodd"/><path fill="#fd4755" d="M 228.539062 209.703125 C 232.179688 211.34375 234.730469 215.007812 234.730469 219.238281 L 234.730469 250.925781 C 234.730469 256.675781 230.015625 261.382812 224.257812 261.382812 L 192.523438 261.382812 C 188.285156 261.382812 184.617188 258.835938 182.972656 255.199219 C 184.28125 255.789062 185.730469 256.121094 187.253906 256.121094 L 218.988281 256.121094 C 224.746094 256.121094 229.457031 251.414062 229.457031 245.664062 L 229.457031 213.976562 C 229.460938 212.457031 229.128906 211.011719 228.539062 209.703125 Z M 228.539062 209.703125 " fill-opacity="1" fill-rule="evenodd"/><path fill="#ffe177" d="M 198.195312 232.238281 C 195.640625 229.6875 195.640625 225.550781 198.195312 223 C 200.75 220.449219 204.890625 220.449219 207.445312 223 L 218.453125 233.992188 L 251.253906 204.269531 C 253.921875 201.847656 258.054688 202.039062 260.480469 204.703125 C 262.90625 207.367188 262.714844 211.492188 260.046875 213.914062 L 222.890625 247.585938 L 222.851562 247.621094 C 220.296875 250.171875 216.15625 250.171875 213.601562 247.621094 Z M 198.195312 232.238281 " fill-opacity="1" fill-rule="evenodd"/><path fill="#6cf5c2" d="M 192.523438 297.65625 L 224.257812 297.65625 C 230.015625 297.65625 234.730469 302.363281 234.730469 308.113281 L 234.730469 339.796875 C 234.730469 345.550781 230.015625 350.253906 224.257812 350.253906 L 192.523438 350.253906 C 186.765625 350.253906 182.054688 345.550781 182.054688 339.796875 L 182.054688 308.113281 C 182.050781 302.363281 186.765625 297.65625 192.523438 297.65625 Z M 192.523438 297.65625 " fill-opacity="1" fill-rule="evenodd"/><path fill="#00e499" d="M 228.539062 298.574219 C 232.179688 300.21875 234.730469 303.882812 234.730469 308.113281 L 234.730469 339.796875 C 234.730469 345.550781 230.015625 350.253906 224.257812 350.253906 L 192.523438 350.253906 C 188.285156 350.253906 184.617188 347.707031 182.972656 344.074219 C 184.28125 344.664062 185.730469 344.992188 187.253906 344.992188 L 218.988281 344.992188 C 224.746094 344.992188 229.457031 340.289062 229.457031 334.535156 L 229.457031 302.851562 C 229.460938 301.332031 229.128906 299.882812 228.539062 298.574219 Z M 228.539062 298.574219 " fill-opacity="1" fill-rule="evenodd"/><path fill="#ffe177" d="M 198.195312 321.109375 C 195.640625 318.558594 195.640625 314.425781 198.195312 311.875 C 200.75 309.324219 204.890625 309.324219 207.445312 311.875 L 218.453125 322.867188 L 251.253906 293.144531 C 253.921875 290.71875 258.054688 290.914062 260.480469 293.578125 C 262.90625 296.238281 262.714844 300.363281 260.046875 302.789062 L 222.890625 336.457031 L 222.851562 336.496094 C 220.296875 339.046875 216.15625 339.046875 213.601562 336.496094 Z M 198.195312 321.109375 " fill-opacity="1" fill-rule="evenodd"/><path fill="#8ac9fe" d="M 192.523438 386.53125 L 224.257812 386.53125 C 230.015625 386.53125 234.730469 391.234375 234.730469 396.984375 L 234.730469 428.671875 C 234.730469 434.421875 230.015625 439.128906 224.257812 439.128906 L 192.523438 439.128906 C 186.765625 439.128906 182.054688 434.421875 182.054688 428.671875 L 182.054688 396.984375 C 182.050781 391.234375 186.765625 386.53125 192.523438 386.53125 Z M 192.523438 386.53125 " fill-opacity="1" fill-rule="evenodd"/><path fill="#60b7ff" d="M 228.539062 387.449219 C 232.179688 389.089844 234.730469 392.753906 234.730469 396.984375 L 234.730469 428.671875 C 234.730469 434.421875 230.015625 439.128906 224.257812 439.128906 L 192.523438 439.128906 C 188.285156 439.128906 184.617188 436.582031 182.972656 432.945312 C 184.28125 433.535156 185.730469 433.867188 187.253906 433.867188 L 218.988281 433.867188 C 224.746094 433.867188 229.457031 429.160156 229.457031 423.410156 L 229.457031 391.722656 C 229.460938 390.203125 229.128906 388.753906 228.539062 387.449219 Z M 228.539062 387.449219 " fill-opacity="1" fill-rule="evenodd"/><path fill="#ffe177" d="M 198.195312 409.984375 C 195.640625 407.433594 195.640625 403.296875 198.195312 400.746094 C 200.75 398.195312 204.890625 398.195312 207.445312 400.746094 L 218.453125 411.738281 L 251.253906 382.015625 C 253.921875 379.59375 258.054688 379.785156 260.480469 382.449219 C 262.90625 385.113281 262.714844 389.238281 260.046875 391.660156 L 222.890625 425.332031 L 222.851562 425.367188 C 220.296875 427.917969 216.15625 427.917969 213.601562 425.367188 Z M 198.195312 409.984375 " fill-opacity="1" fill-rule="evenodd"/><path fill="#a79ba7" d="M 278.394531 227.375 C 274.785156 227.375 271.855469 224.453125 271.855469 220.84375 C 271.855469 217.238281 274.785156 214.3125 278.394531 214.3125 L 353.21875 214.3125 C 356.832031 214.3125 359.761719 217.238281 359.761719 220.84375 C 359.761719 224.453125 356.832031 227.375 353.21875 227.375 Z M 278.394531 255.851562 C 274.785156 255.851562 271.855469 252.929688 271.855469 249.320312 C 271.855469 245.714844 274.785156 242.789062 278.394531 242.789062 L 315.808594 242.789062 C 319.421875 242.789062 322.351562 245.714844 322.351562 249.320312 C 322.351562 252.929688 319.421875 255.851562 315.808594 255.851562 Z M 278.394531 255.851562 " fill-opacity="1" fill-rule="evenodd"/><path fill="#a79ba7" d="M 278.394531 307.214844 C 274.785156 307.214844 271.855469 304.289062 271.855469 300.683594 C 271.855469 297.074219 274.785156 294.152344 278.394531 294.152344 L 353.21875 294.152344 C 356.832031 294.152344 359.761719 297.074219 359.761719 300.683594 C 359.761719 304.289062 356.832031 307.214844 353.21875 307.214844 Z M 278.394531 335.691406 C 274.785156 335.691406 271.855469 332.765625 271.855469 329.160156 C 271.855469 325.550781 274.785156 322.628906 278.394531 322.628906 L 315.808594 322.628906 C 319.421875 322.628906 322.351562 325.550781 322.351562 329.160156 C 322.351562 332.765625 319.421875 335.691406 315.808594 335.691406 Z M 278.394531 335.691406 " fill-opacity="1" fill-rule="evenodd"/><path fill="#a79ba7" d="M 278.394531 405.121094 C 274.785156 405.121094 271.855469 402.199219 271.855469 398.589844 C 271.855469 394.984375 274.785156 392.058594 278.394531 392.058594 L 353.21875 392.058594 C 356.832031 392.058594 359.761719 394.984375 359.761719 398.589844 C 359.761719 402.199219 356.832031 405.121094 353.21875 405.121094 Z M 278.394531 433.597656 C 274.785156 433.597656 271.855469 430.675781 271.855469 427.066406 C 271.855469 423.460938 274.785156 420.535156 278.394531 420.535156 L 315.808594 420.535156 C 319.421875 420.535156 322.351562 423.460938 322.351562 427.066406 C 322.351562 430.675781 319.421875 433.597656 315.808594 433.597656 Z M 278.394531 433.597656 " fill-opacity="1" fill-rule="evenodd"/><path fill="#e3a76f" d="M 365 332.972656 L 454.605469 178 C 459.464844 169.597656 470.289062 166.703125 478.699219 171.554688 L 484.8125 175.074219 C 493.226562 179.925781 496.125 190.734375 491.265625 199.136719 L 401.660156 354.105469 L 371.320312 371.597656 C 369.980469 372.371094 368.445312 372.371094 367.105469 371.597656 C 365.765625 370.824219 365 369.5 365 367.953125 Z M 365 332.972656 " fill-opacity="1" fill-rule="evenodd"/><path fill="#c48958" d="M 488.457031 177.867188 C 493.960938 183.367188 495.339844 192.09375 491.265625 199.132812 L 401.660156 354.105469 L 378.996094 367.171875 Z M 488.457031 177.867188 " fill-opacity="1" fill-rule="evenodd"/><path fill="#685e68" d="M 365 367.953125 L 365 332.972656 L 401.660156 354.105469 L 371.320312 371.597656 C 369.980469 372.371094 368.445312 372.371094 367.105469 371.597656 C 365.765625 370.824219 365 369.5 365 367.953125 Z M 365 367.953125 " fill-opacity="1" fill-rule="evenodd"/></svg>