<svg xmlns="http://www.w3.org/2000/svg" xmlns:xlink="http://www.w3.org/1999/xlink" width="400" zoomAndPan="magnify" viewBox="0 0 224.87999 225" height="200" preserveAspectRatio="xMidYMid meet" version="1.0"><defs><clipPath id="76994ce099"><path d="M 0 0.0585938 L 224.761719 0.0585938 L 224.761719 224.9375 L 0 224.9375 Z M 0 0.0585938 " clip-rule="nonzero"/></clipPath><clipPath id="e68e26d571"><path d="M 22 52 L 201 52 L 201 182 L 22 182 Z M 22 52 " clip-rule="nonzero"/></clipPath><clipPath id="81aa7fb5c9"><path d="M 46.367188 42.945312 L 203.046875 80.703125 L 178.636719 181.996094 L 21.957031 144.242188 Z M 46.367188 42.945312 " clip-rule="nonzero"/></clipPath><clipPath id="16005c417a"><path d="M 46.367188 42.945312 L 203.046875 80.703125 L 178.636719 181.996094 L 21.957031 144.242188 Z M 46.367188 42.945312 " clip-rule="nonzero"/></clipPath><clipPath id="1f827a739c"><path d="M 46.367188 42.945312 L 203.046875 80.703125 L 178.636719 181.996094 L 21.957031 144.242188 Z M 46.367188 42.945312 " clip-rule="nonzero"/></clipPath><clipPath id="67d556c628"><path d="M 44.367188 51.441406 L 201.128906 89.214844 L 178.742188 182.113281 L 21.984375 144.335938 Z M 44.367188 51.441406 " clip-rule="nonzero"/></clipPath><clipPath id="e38fdae362"><path d="M 44.367188 51.441406 L 200.976562 89.179688 L 178.617188 181.96875 L 22.007812 144.230469 Z M 44.367188 51.441406 " clip-rule="nonzero"/></clipPath><clipPath id="9096a15e9e"><path d="M 39 77 L 110 77 L 110 146 L 39 146 Z M 39 77 " clip-rule="nonzero"/></clipPath><clipPath id="b4e33314b2"><path d="M 46.367188 42.945312 L 203.046875 80.703125 L 178.636719 181.996094 L 21.957031 144.242188 Z M 46.367188 42.945312 " clip-rule="nonzero"/></clipPath><clipPath id="121452d53a"><path d="M 46.367188 42.945312 L 203.046875 80.703125 L 178.636719 181.996094 L 21.957031 144.242188 Z M 46.367188 42.945312 " clip-rule="nonzero"/></clipPath><clipPath id="691ee7ee56"><path d="M 46.367188 42.945312 L 203.046875 80.703125 L 178.636719 181.996094 L 21.957031 144.242188 Z M 46.367188 42.945312 " clip-rule="nonzero"/></clipPath><clipPath id="dcb0179ecc"><path d="M 119 98 L 173 98 L 173 114 L 119 114 Z M 119 98 " clip-rule="nonzero"/></clipPath><clipPath id="1b1fdcd005"><path d="M 46.367188 42.945312 L 203.046875 80.703125 L 178.636719 181.996094 L 21.957031 144.242188 Z M 46.367188 42.945312 " clip-rule="nonzero"/></clipPath><clipPath id="00101c090b"><path d="M 46.367188 42.945312 L 203.046875 80.703125 L 178.636719 181.996094 L 21.957031 144.242188 Z M 46.367188 42.945312 " clip-rule="nonzero"/></clipPath><clipPath id="5c881aba85"><path d="M 46.367188 42.945312 L 203.046875 80.703125 L 178.636719 181.996094 L 21.957031 144.242188 Z M 46.367188 42.945312 " clip-rule="nonzero"/></clipPath><clipPath id="7e04d728ba"><path d="M 116 112 L 172 112 L 172 129 L 116 129 Z M 116 112 " clip-rule="nonzero"/></clipPath><clipPath id="a49e064899"><path d="M 46.367188 42.945312 L 203.046875 80.703125 L 178.636719 181.996094 L 21.957031 144.242188 Z M 46.367188 42.945312 " clip-rule="nonzero"/></clipPath><clipPath id="c16a4bc3af"><path d="M 46.367188 42.945312 L 203.046875 80.703125 L 178.636719 181.996094 L 21.957031 144.242188 Z M 46.367188 42.945312 " clip-rule="nonzero"/></clipPath><clipPath id="53bc24cf0a"><path d="M 46.367188 42.945312 L 203.046875 80.703125 L 178.636719 181.996094 L 21.957031 144.242188 Z M 46.367188 42.945312 " clip-rule="nonzero"/></clipPath><clipPath id="8332a4fa5b"><path d="M 112 127 L 176 127 L 176 146 L 112 146 Z M 112 127 " clip-rule="nonzero"/></clipPath><clipPath id="e648ac24f4"><path d="M 46.367188 42.945312 L 203.046875 80.703125 L 178.636719 181.996094 L 21.957031 144.242188 Z M 46.367188 42.945312 " clip-rule="nonzero"/></clipPath><clipPath id="959441ac14"><path d="M 46.367188 42.945312 L 203.046875 80.703125 L 178.636719 181.996094 L 21.957031 144.242188 Z M 46.367188 42.945312 " clip-rule="nonzero"/></clipPath><clipPath id="96c8cda690"><path d="M 46.367188 42.945312 L 203.046875 80.703125 L 178.636719 181.996094 L 21.957031 144.242188 Z M 46.367188 42.945312 " clip-rule="nonzero"/></clipPath><clipPath id="73a45ba5b2"><path d="M 109 141 L 150 141 L 150 154 L 109 154 Z M 109 141 " clip-rule="nonzero"/></clipPath><clipPath id="f97d6dffaf"><path d="M 46.367188 42.945312 L 203.046875 80.703125 L 178.636719 181.996094 L 21.957031 144.242188 Z M 46.367188 42.945312 " clip-rule="nonzero"/></clipPath><clipPath id="a7147ae3a0"><path d="M 46.367188 42.945312 L 203.046875 80.703125 L 178.636719 181.996094 L 21.957031 144.242188 Z M 46.367188 42.945312 " clip-rule="nonzero"/></clipPath><clipPath id="3b4b1475ca"><path d="M 46.367188 42.945312 L 203.046875 80.703125 L 178.636719 181.996094 L 21.957031 144.242188 Z M 46.367188 42.945312 " clip-rule="nonzero"/></clipPath><clipPath id="a33ab79ab9"><path d="M 103 57 L 143 57 L 143 83 L 103 83 Z M 103 57 " clip-rule="nonzero"/></clipPath><clipPath id="0122dfadab"><path d="M 46.367188 42.945312 L 203.046875 80.703125 L 178.636719 181.996094 L 21.957031 144.242188 Z M 46.367188 42.945312 " clip-rule="nonzero"/></clipPath><clipPath id="86d311a489"><path d="M 46.367188 42.945312 L 203.046875 80.703125 L 178.636719 181.996094 L 21.957031 144.242188 Z M 46.367188 42.945312 " clip-rule="nonzero"/></clipPath><clipPath id="775bf7ea3d"><path d="M 46.367188 42.945312 L 203.046875 80.703125 L 178.636719 181.996094 L 21.957031 144.242188 Z M 46.367188 42.945312 " clip-rule="nonzero"/></clipPath><clipPath id="1b21918715"><path d="M 68 92 L 88 92 L 88 106 L 68 106 Z M 68 92 " clip-rule="nonzero"/></clipPath><clipPath id="e3f0f98372"><path d="M 46.367188 42.945312 L 203.046875 80.703125 L 178.636719 181.996094 L 21.957031 144.242188 Z M 46.367188 42.945312 " clip-rule="nonzero"/></clipPath><clipPath id="69cd69eb6b"><path d="M 46.367188 42.945312 L 203.046875 80.703125 L 178.636719 181.996094 L 21.957031 144.242188 Z M 46.367188 42.945312 " clip-rule="nonzero"/></clipPath><clipPath id="eb7dfbb4d1"><path d="M 46.367188 42.945312 L 203.046875 80.703125 L 178.636719 181.996094 L 21.957031 144.242188 Z M 46.367188 42.945312 " clip-rule="nonzero"/></clipPath><clipPath id="0eddd5eb36"><path d="M 64 113 L 80 113 L 80 130 L 64 130 Z M 64 113 " clip-rule="nonzero"/></clipPath><clipPath id="8acacfb313"><path d="M 46.367188 42.945312 L 203.046875 80.703125 L 178.636719 181.996094 L 21.957031 144.242188 Z M 46.367188 42.945312 " clip-rule="nonzero"/></clipPath><clipPath id="4a9938bd0a"><path d="M 46.367188 42.945312 L 203.046875 80.703125 L 178.636719 181.996094 L 21.957031 144.242188 Z M 46.367188 42.945312 " clip-rule="nonzero"/></clipPath><clipPath id="e713cd1f2c"><path d="M 46.367188 42.945312 L 203.046875 80.703125 L 178.636719 181.996094 L 21.957031 144.242188 Z M 46.367188 42.945312 " clip-rule="nonzero"/></clipPath><clipPath id="a12b285356"><path d="M 67 100 L 85 100 L 85 117 L 67 117 Z M 67 100 " clip-rule="nonzero"/></clipPath><clipPath id="7abc8ebe25"><path d="M 46.367188 42.945312 L 203.046875 80.703125 L 178.636719 181.996094 L 21.957031 144.242188 Z M 46.367188 42.945312 " clip-rule="nonzero"/></clipPath><clipPath id="7e8a0b8e0c"><path d="M 46.367188 42.945312 L 203.046875 80.703125 L 178.636719 181.996094 L 21.957031 144.242188 Z M 46.367188 42.945312 " clip-rule="nonzero"/></clipPath><clipPath id="70df480c80"><path d="M 46.367188 42.945312 L 203.046875 80.703125 L 178.636719 181.996094 L 21.957031 144.242188 Z M 46.367188 42.945312 " clip-rule="nonzero"/></clipPath><clipPath id="385ce93775"><path d="M 50 115 L 88 115 L 88 144 L 50 144 Z M 50 115 " clip-rule="nonzero"/></clipPath><clipPath id="5a2716a915"><path d="M 46.367188 42.945312 L 203.046875 80.703125 L 178.636719 181.996094 L 21.957031 144.242188 Z M 46.367188 42.945312 " clip-rule="nonzero"/></clipPath><clipPath id="3e67c13cc8"><path d="M 46.367188 42.945312 L 203.046875 80.703125 L 178.636719 181.996094 L 21.957031 144.242188 Z M 46.367188 42.945312 " clip-rule="nonzero"/></clipPath><clipPath id="915ce7cda9"><path d="M 46.367188 42.945312 L 203.046875 80.703125 L 178.636719 181.996094 L 21.957031 144.242188 Z M 46.367188 42.945312 " clip-rule="nonzero"/></clipPath><clipPath id="d14988e108"><path d="M 56 126 L 60 126 L 60 137 L 56 137 Z M 56 126 " clip-rule="nonzero"/></clipPath><clipPath id="1a4f8c3cdc"><path d="M 46.367188 42.945312 L 203.046875 80.703125 L 178.636719 181.996094 L 21.957031 144.242188 Z M 46.367188 42.945312 " clip-rule="nonzero"/></clipPath><clipPath id="240a37cdb6"><path d="M 46.367188 42.945312 L 203.046875 80.703125 L 178.636719 181.996094 L 21.957031 144.242188 Z M 46.367188 42.945312 " clip-rule="nonzero"/></clipPath><clipPath id="89530624d4"><path d="M 46.367188 42.945312 L 203.046875 80.703125 L 178.636719 181.996094 L 21.957031 144.242188 Z M 46.367188 42.945312 " clip-rule="nonzero"/></clipPath><clipPath id="9617a0e95e"><path d="M 78 132 L 82 132 L 82 143 L 78 143 Z M 78 132 " clip-rule="nonzero"/></clipPath><clipPath id="e363291a20"><path d="M 46.367188 42.945312 L 203.046875 80.703125 L 178.636719 181.996094 L 21.957031 144.242188 Z M 46.367188 42.945312 " clip-rule="nonzero"/></clipPath><clipPath id="261d5520b8"><path d="M 46.367188 42.945312 L 203.046875 80.703125 L 178.636719 181.996094 L 21.957031 144.242188 Z M 46.367188 42.945312 " clip-rule="nonzero"/></clipPath><clipPath id="66c45255bb"><path d="M 46.367188 42.945312 L 203.046875 80.703125 L 178.636719 181.996094 L 21.957031 144.242188 Z M 46.367188 42.945312 " clip-rule="nonzero"/></clipPath><clipPath id="4213b05c7c"><path d="M 69 122 L 74 122 L 74 127 L 69 127 Z M 69 122 " clip-rule="nonzero"/></clipPath><clipPath id="51cdc41fcf"><path d="M 46.367188 42.945312 L 203.046875 80.703125 L 178.636719 181.996094 L 21.957031 144.242188 Z M 46.367188 42.945312 " clip-rule="nonzero"/></clipPath><clipPath id="6ad76597b4"><path d="M 46.367188 42.945312 L 203.046875 80.703125 L 178.636719 181.996094 L 21.957031 144.242188 Z M 46.367188 42.945312 " clip-rule="nonzero"/></clipPath><clipPath id="61a3fb30f2"><path d="M 46.367188 42.945312 L 203.046875 80.703125 L 178.636719 181.996094 L 21.957031 144.242188 Z M 46.367188 42.945312 " clip-rule="nonzero"/></clipPath><clipPath id="0899457b51"><path d="M 64 125 L 72 125 L 72 140 L 64 140 Z M 64 125 " clip-rule="nonzero"/></clipPath><clipPath id="b732a8449a"><path d="M 46.367188 42.945312 L 203.046875 80.703125 L 178.636719 181.996094 L 21.957031 144.242188 Z M 46.367188 42.945312 " clip-rule="nonzero"/></clipPath><clipPath id="edbe434655"><path d="M 46.367188 42.945312 L 203.046875 80.703125 L 178.636719 181.996094 L 21.957031 144.242188 Z M 46.367188 42.945312 " clip-rule="nonzero"/></clipPath><clipPath id="3fb291af3b"><path d="M 46.367188 42.945312 L 203.046875 80.703125 L 178.636719 181.996094 L 21.957031 144.242188 Z M 46.367188 42.945312 " clip-rule="nonzero"/></clipPath><clipPath id="9bf8418b2f"><path d="M 71 119 L 83 119 L 83 126 L 71 126 Z M 71 119 " clip-rule="nonzero"/></clipPath><clipPath id="9bdac6f112"><path d="M 46.367188 42.945312 L 203.046875 80.703125 L 178.636719 181.996094 L 21.957031 144.242188 Z M 46.367188 42.945312 " clip-rule="nonzero"/></clipPath><clipPath id="d9e49a4943"><path d="M 46.367188 42.945312 L 203.046875 80.703125 L 178.636719 181.996094 L 21.957031 144.242188 Z M 46.367188 42.945312 " clip-rule="nonzero"/></clipPath><clipPath id="393e81da33"><path d="M 46.367188 42.945312 L 203.046875 80.703125 L 178.636719 181.996094 L 21.957031 144.242188 Z M 46.367188 42.945312 " clip-rule="nonzero"/></clipPath><clipPath id="f9c6b654be"><path d="M 63 115 L 72 115 L 72 124 L 63 124 Z M 63 115 " clip-rule="nonzero"/></clipPath><clipPath id="407a2f3756"><path d="M 46.367188 42.945312 L 203.046875 80.703125 L 178.636719 181.996094 L 21.957031 144.242188 Z M 46.367188 42.945312 " clip-rule="nonzero"/></clipPath><clipPath id="a9b806c3a1"><path d="M 46.367188 42.945312 L 203.046875 80.703125 L 178.636719 181.996094 L 21.957031 144.242188 Z M 46.367188 42.945312 " clip-rule="nonzero"/></clipPath><clipPath id="9c8aa42903"><path d="M 46.367188 42.945312 L 203.046875 80.703125 L 178.636719 181.996094 L 21.957031 144.242188 Z M 46.367188 42.945312 " clip-rule="nonzero"/></clipPath></defs><g clip-path="url(#76994ce099)"><path fill="#ffffff" d="M 0 0.0585938 L 224.878906 0.0585938 L 224.878906 922.066406 L 0 922.066406 Z M 0 0.0585938 " fill-opacity="1" fill-rule="nonzero"/><path fill="#ffffff" d="M 0 0.0585938 L 224.878906 0.0585938 L 224.878906 224.941406 L 0 224.941406 Z M 0 0.0585938 " fill-opacity="1" fill-rule="nonzero"/><path fill="#ffffff" d="M 0 0.0585938 L 224.878906 0.0585938 L 224.878906 224.941406 L 0 224.941406 Z M 0 0.0585938 " fill-opacity="1" fill-rule="nonzero"/></g><g clip-path="url(#e68e26d571)"><g clip-path="url(#81aa7fb5c9)"><g clip-path="url(#16005c417a)"><g clip-path="url(#1f827a739c)"><g clip-path="url(#67d556c628)"><g clip-path="url(#e38fdae362)"><path fill="#e1efff" d="M 196.730469 88.304688 C 199.058594 88.863281 200.488281 91.203125 199.929688 93.523438 L 179.628906 177.765625 C 179.070312 180.085938 176.730469 181.515625 174.40625 180.953125 L 26.21875 145.246094 C 23.894531 144.683594 22.460938 142.347656 23.019531 140.027344 L 43.320312 55.785156 C 43.878906 53.464844 46.21875 52.035156 48.542969 52.59375 L 196.730469 88.304688 " fill-opacity="1" fill-rule="evenodd"/></g></g></g></g></g></g><g clip-path="url(#9096a15e9e)"><g clip-path="url(#b4e33314b2)"><g clip-path="url(#121452d53a)"><g clip-path="url(#691ee7ee56)"><path fill="#bbecfe" d="M 39.480469 130.273438 L 51.757812 79.320312 C 52.03125 78.195312 53.164062 77.503906 54.289062 77.777344 L 108.050781 90.730469 C 109.175781 91.003906 109.867188 92.132812 109.597656 93.257812 L 97.320312 144.210938 C 97.046875 145.335938 95.917969 146.027344 94.789062 145.757812 L 41.03125 132.800781 C 39.90625 132.53125 39.210938 131.398438 39.480469 130.273438 " fill-opacity="1" fill-rule="evenodd"/></g></g></g></g><g clip-path="url(#dcb0179ecc)"><g clip-path="url(#1b1fdcd005)"><g clip-path="url(#00101c090b)"><g clip-path="url(#5c881aba85)"><path fill="#b0ccdd" d="M 170.480469 113.816406 L 121.246094 101.953125 C 120.316406 101.730469 119.742188 100.792969 119.96875 99.863281 C 120.191406 98.9375 121.128906 98.363281 122.058594 98.589844 L 171.292969 110.453125 C 172.222656 110.675781 172.796875 111.613281 172.570312 112.542969 C 172.347656 113.46875 171.410156 114.039062 170.480469 113.816406 " fill-opacity="1" fill-rule="evenodd"/></g></g></g></g><g clip-path="url(#7e04d728ba)"><g clip-path="url(#a49e064899)"><g clip-path="url(#c16a4bc3af)"><g clip-path="url(#53bc24cf0a)"><path fill="#b0ccdd" d="M 169.742188 128.871094 L 117.777344 116.347656 C 116.847656 116.125 116.273438 115.191406 116.5 114.261719 C 116.722656 113.332031 117.660156 112.761719 118.589844 112.984375 L 170.550781 125.507812 C 171.480469 125.730469 172.054688 126.667969 171.832031 127.59375 C 171.605469 128.523438 170.671875 129.09375 169.742188 128.871094 " fill-opacity="1" fill-rule="evenodd"/></g></g></g></g><g clip-path="url(#8332a4fa5b)"><g clip-path="url(#e648ac24f4)"><g clip-path="url(#959441ac14)"><g clip-path="url(#96c8cda690)"><path fill="#b0ccdd" d="M 173.414062 144.988281 L 114.308594 130.742188 C 113.378906 130.519531 112.804688 129.585938 113.03125 128.65625 C 113.253906 127.726562 114.191406 127.15625 115.121094 127.378906 L 174.226562 141.625 C 175.15625 141.847656 175.730469 142.78125 175.507812 143.710938 C 175.285156 144.640625 174.347656 145.210938 173.414062 144.988281 " fill-opacity="1" fill-rule="evenodd"/></g></g></g></g><g clip-path="url(#73a45ba5b2)"><g clip-path="url(#f97d6dffaf)"><g clip-path="url(#a7147ae3a0)"><g clip-path="url(#3b4b1475ca)"><path fill="#b0ccdd" d="M 147.042969 153.863281 L 110.839844 145.140625 C 109.914062 144.917969 109.339844 143.980469 109.5625 143.050781 C 109.785156 142.121094 110.722656 141.550781 111.652344 141.777344 L 147.851562 150.5 C 148.78125 150.722656 149.355469 151.65625 149.132812 152.585938 C 148.90625 153.515625 147.96875 154.085938 147.042969 153.863281 " fill-opacity="1" fill-rule="evenodd"/></g></g></g></g><g clip-path="url(#a33ab79ab9)"><g clip-path="url(#0122dfadab)"><g clip-path="url(#86d311a489)"><g clip-path="url(#775bf7ea3d)"><path fill="#354458" d="M 136.480469 82.910156 L 104.640625 75.238281 C 103.515625 74.96875 102.820312 73.835938 103.089844 72.710938 L 106.265625 59.53125 C 106.539062 58.40625 107.671875 57.714844 108.796875 57.988281 L 140.636719 65.660156 C 141.765625 65.933594 142.457031 67.0625 142.1875 68.1875 L 139.011719 81.367188 C 138.738281 82.492188 137.605469 83.183594 136.480469 82.910156 " fill-opacity="1" fill-rule="evenodd"/></g></g></g></g><g clip-path="url(#1b21918715)"><g clip-path="url(#e3f0f98372)"><g clip-path="url(#69cd69eb6b)"><g clip-path="url(#eb7dfbb4d1)"><path fill="#8f4c2e" d="M 68.429688 101.527344 C 68.269531 100.597656 68.433594 99.625 68.601562 98.679688 C 68.742188 97.863281 68.898438 97.023438 69.273438 96.28125 C 69.671875 95.496094 70.460938 94.800781 71.125 94.296875 C 71.273438 94.1875 71.421875 94.082031 71.574219 93.980469 C 73.730469 92.5625 76.789062 92.285156 78.300781 92.300781 C 79.53125 92.3125 80.792969 92.472656 81.972656 92.855469 C 82.632812 93.070312 83.3125 93.332031 83.921875 93.671875 C 84.417969 93.953125 84.878906 94.363281 85.082031 94.9375 C 85.300781 95.554688 85.222656 96.25 85.519531 96.84375 C 85.84375 97.484375 86.382812 97.953125 86.71875 98.585938 C 87.171875 99.4375 87.523438 100.683594 87.375 101.691406 C 87.242188 102.597656 86.6875 103.351562 86.105469 103.992188 C 86.003906 104.101562 84.941406 105.351562 84.742188 105.460938 L 68.429688 101.527344 " fill-opacity="1" fill-rule="evenodd"/></g></g></g></g><g clip-path="url(#0eddd5eb36)"><g clip-path="url(#8acacfb313)"><g clip-path="url(#4a9938bd0a)"><g clip-path="url(#e713cd1f2c)"><path fill="#ebbca7" d="M 68.832031 113.054688 L 66.820312 116.042969 L 64.382812 126.164062 L 77.027344 129.210938 L 79.464844 119.089844 L 79.109375 115.550781 L 68.832031 113.054688 " fill-opacity="1" fill-rule="evenodd"/></g></g></g></g><g clip-path="url(#a12b285356)"><g clip-path="url(#7abc8ebe25)"><g clip-path="url(#7e8a0b8e0c)"><g clip-path="url(#70df480c80)"><path fill="#f9c7b2" d="M 84.742188 105.460938 L 83.824219 109.269531 C 82.625 114.25 78 117.40625 73.496094 116.320312 C 68.988281 115.234375 66.3125 110.320312 67.511719 105.339844 L 68.429688 101.527344 C 68.429688 101.527344 69.582031 101.113281 70.964844 100.167969 C 70.964844 100.167969 75.378906 104.847656 83.117188 103.253906 C 83.117188 103.253906 83.894531 104.605469 84.742188 105.460938 " fill-opacity="1" fill-rule="evenodd"/></g></g></g></g><g clip-path="url(#385ce93775)"><g clip-path="url(#5a2716a915)"><g clip-path="url(#3e67c13cc8)"><g clip-path="url(#915ce7cda9)"><path fill="#354458" d="M 85.636719 143.550781 L 50.183594 135.007812 C 50.5625 133.421875 52.425781 125.742188 54.890625 121.339844 C 55.492188 120.257812 56.082031 119.46875 56.757812 118.78125 C 57.140625 118.390625 58.785156 116.773438 61.417969 116.03125 C 61.980469 115.871094 62.519531 115.769531 63.027344 115.714844 L 67.519531 123.785156 L 71.933594 122.046875 L 75.070312 125.605469 L 82.835938 120.425781 C 83.3125 120.726562 83.800781 121.09375 84.277344 121.539062 C 86.285156 123.398438 87.011719 125.589844 87.175781 126.109375 C 87.460938 127.03125 87.625 128.003906 87.671875 129.242188 C 87.859375 134.277344 86.023438 141.964844 85.636719 143.550781 " fill-opacity="1" fill-rule="evenodd"/></g></g></g></g><g clip-path="url(#d14988e108)"><g clip-path="url(#1a4f8c3cdc)"><g clip-path="url(#240a37cdb6)"><g clip-path="url(#89530624d4)"><path fill="#2a3747" d="M 59.507812 127.5 L 57.285156 136.71875 L 56.222656 136.464844 L 58.445312 127.246094 C 58.515625 126.953125 58.808594 126.773438 59.101562 126.84375 C 59.398438 126.914062 59.578125 127.207031 59.507812 127.5 " fill-opacity="1" fill-rule="evenodd"/></g></g></g></g><g clip-path="url(#9617a0e95e)"><g clip-path="url(#e363291a20)"><g clip-path="url(#261d5520b8)"><g clip-path="url(#66c45255bb)"><path fill="#2a3747" d="M 81.820312 132.878906 L 79.597656 142.097656 L 78.535156 141.839844 L 80.753906 132.621094 C 80.824219 132.328125 81.121094 132.148438 81.414062 132.21875 C 81.707031 132.289062 81.890625 132.585938 81.820312 132.878906 " fill-opacity="1" fill-rule="evenodd"/></g></g></g></g><g clip-path="url(#4213b05c7c)"><g clip-path="url(#51cdc41fcf)"><g clip-path="url(#6ad76597b4)"><g clip-path="url(#61a3fb30f2)"><path fill="#d35f4c" d="M 69.082031 123.113281 L 71.933594 122.046875 L 73.992188 124.214844 L 71.863281 126.445312 L 69.910156 125.972656 L 69.082031 123.113281 " fill-opacity="1" fill-rule="evenodd"/></g></g></g></g><g clip-path="url(#0899457b51)"><g clip-path="url(#b732a8449a)"><g clip-path="url(#edbe434655)"><g clip-path="url(#3fb291af3b)"><path fill="#e66753" d="M 70.511719 139.90625 L 71.863281 126.445312 L 69.910156 125.972656 L 64.984375 138.574219 L 70.511719 139.90625 " fill-opacity="1" fill-rule="evenodd"/></g></g></g></g><g clip-path="url(#9bf8418b2f)"><g clip-path="url(#9bdac6f112)"><g clip-path="url(#d9e49a4943)"><g clip-path="url(#393e81da33)"><path fill="#2a3747" d="M 71.933594 122.046875 L 79.464844 119.089844 C 80.183594 119.226562 81.460938 119.558594 82.835938 120.425781 L 75.066406 125.605469 L 71.933594 122.046875 " fill-opacity="1" fill-rule="evenodd"/></g></g></g></g><g clip-path="url(#f9c6b654be)"><g clip-path="url(#407a2f3756)"><g clip-path="url(#a9b806c3a1)"><g clip-path="url(#9c8aa42903)"><path fill="#2a3747" d="M 71.933594 122.046875 L 67.519531 123.785156 L 63.023438 115.714844 C 64.730469 115.527344 66.089844 115.828125 66.820312 116.042969 L 71.933594 122.046875 " fill-opacity="1" fill-rule="evenodd"/></g></g></g></g></svg>