<svg xmlns="http://www.w3.org/2000/svg" xmlns:xlink="http://www.w3.org/1999/xlink" width="400" zoomAndPan="magnify" viewBox="0 0 224.87999 225" height="200" preserveAspectRatio="xMidYMid meet" version="1.0"><defs><clipPath id="17fa915780"><path d="M 0 0.0585938 L 224.761719 0.0585938 L 224.761719 224.9375 L 0 224.9375 Z M 0 0.0585938 " clip-rule="nonzero"/></clipPath><clipPath id="f7483f94a5"><path d="M 48.808594 78 L 174 78 L 174 187 L 48.808594 187 Z M 48.808594 78 " clip-rule="nonzero"/></clipPath><clipPath id="ee6cedde17"><path d="M 143 79 L 176.238281 79 L 176.238281 119 L 143 119 Z M 143 79 " clip-rule="nonzero"/></clipPath><clipPath id="d64562e4c1"><path d="M 87 31.441406 L 176.238281 31.441406 L 176.238281 124.945312 L 87 124.945312 Z M 87 31.441406 " clip-rule="nonzero"/></clipPath><clipPath id="1d8f953b54"><path d="M 77.214844 172.304688 L 103.59375 172.304688 L 103.59375 193.335938 L 77.214844 193.335938 Z M 77.214844 172.304688 " clip-rule="nonzero"/></clipPath></defs><g clip-path="url(#17fa915780)"><path fill="#ffffff" d="M 0 0.0585938 L 224.878906 0.0585938 L 224.878906 224.941406 L 0 224.941406 Z M 0 0.0585938 " fill-opacity="1" fill-rule="nonzero"/><path fill="#ffffff" d="M 0 0.0585938 L 224.878906 0.0585938 L 224.878906 224.941406 L 0 224.941406 Z M 0 0.0585938 " fill-opacity="1" fill-rule="nonzero"/></g><path fill="#f79779" d="M 138.121094 90.390625 C 137.429688 89.292969 136.847656 88.816406 136.367188 88.960938 L 136.34375 88.902344 C 136.316406 88.738281 136.257812 88.550781 136.164062 88.332031 C 136.015625 87.929688 135.886719 87.597656 135.777344 87.34375 C 135.75 87.261719 135.730469 87.179688 135.714844 87.101562 C 135.351562 86.089844 135.359375 85.269531 135.738281 84.652344 L 136 84.730469 C 136.066406 84.949219 136.285156 85.554688 136.648438 86.554688 C 136.90625 87.1875 137.320312 88.265625 137.886719 89.792969 L 138.152344 90.441406 C 138.140625 90.421875 138.132812 90.40625 138.121094 90.390625 Z M 136.242188 89.648438 C 136.367188 89.839844 136.480469 90.128906 136.589844 90.519531 C 136.140625 90.601562 135.796875 90.667969 135.554688 90.722656 C 135.769531 90.789062 136.082031 90.84375 136.488281 90.882812 C 136.933594 90.964844 137.253906 91.039062 137.441406 91.105469 C 137.523438 91.1875 137.699219 91.445312 137.96875 91.875 C 138.199219 92.226562 138.476562 92.503906 138.800781 92.707031 C 138.867188 93.03125 138.859375 93.421875 138.78125 93.878906 C 138.726562 94.148438 138.570312 94.535156 138.3125 95.03125 C 138.273438 95.128906 138.226562 95.214844 138.171875 95.296875 C 137.820312 95.78125 137.40625 96.214844 136.933594 96.59375 C 136.851562 96.660156 136.757812 96.71875 136.648438 96.773438 C 136 97.042969 135.339844 97.234375 134.660156 97.339844 L 134.621094 97.300781 C 134.175781 96.652344 133.929688 96.273438 133.890625 96.167969 C 133.28125 95.289062 132.9375 94.488281 132.855469 93.757812 C 132.828125 93.082031 132.835938 92.59375 132.875 92.28125 C 132.929688 91.6875 133.160156 91.277344 133.566406 91.046875 C 133.851562 90.558594 134.230469 90.304688 134.703125 90.277344 C 134.851562 90.15625 135.09375 89.933594 135.433594 89.609375 C 135.757812 89.378906 136.027344 89.394531 136.242188 89.648438 Z M 136.851562 92.019531 C 136.3125 91.964844 136.007812 91.863281 135.9375 91.714844 C 135.992188 91.929688 136.035156 92.195312 136.0625 92.503906 C 136.128906 92.785156 136.019531 92.988281 135.738281 93.109375 C 135.492188 93.230469 135.257812 92.90625 135.027344 92.140625 C 135 91.828125 134.953125 91.597656 134.886719 91.453125 C 134.871094 91.15625 134.796875 90.9375 134.660156 90.804688 C 134.675781 90.953125 134.75 91.371094 134.886719 92.058594 C 134.980469 92.542969 134.988281 92.957031 134.902344 93.292969 C 134.753906 93.480469 134.613281 93.515625 134.480469 93.394531 C 134.289062 93.125 134.078125 92.691406 133.851562 92.097656 C 133.917969 92.582031 133.957031 92.941406 133.972656 93.171875 C 133.726562 93.265625 133.511719 93.171875 133.320312 92.886719 C 133.214844 92.507812 133.113281 92.253906 133.019531 92.117188 C 132.949219 92.550781 133.011719 92.960938 133.199219 93.355469 C 133.347656 93.757812 133.613281 94.082031 133.992188 94.324219 C 134.101562 94.394531 134.289062 94.574219 134.558594 94.871094 C 134.84375 95.046875 135.054688 95.019531 135.191406 94.792969 C 135.542969 94.222656 136.121094 93.703125 136.933594 93.230469 C 136.933594 93.152344 136.925781 92.949219 136.914062 92.625 C 136.914062 92.382812 136.894531 92.179688 136.851562 92.019531 Z M 140.382812 108.269531 C 140.453125 108.945312 140.738281 109.460938 141.246094 109.820312 C 141.011719 110.3125 140.785156 110.816406 140.566406 111.324219 C 140.363281 111.960938 140.335938 112.539062 140.484375 113.066406 C 140.648438 113.847656 141.046875 114.652344 141.683594 115.472656 L 142.058594 115.878906 L 141.460938 117.09375 C 141.242188 117.566406 140.90625 117.929688 140.445312 118.1875 C 139.972656 118.414062 139.46875 118.503906 138.945312 118.449219 C 138.753906 118.410156 138.570312 118.363281 138.394531 118.308594 C 138.421875 118.28125 138.449219 118.261719 138.476562 118.246094 C 138.921875 118.019531 139.253906 117.6875 139.46875 117.257812 C 139.578125 117.011719 139.375 115.386719 138.859375 112.378906 C 138.375 109.519531 138.050781 107.472656 137.886719 106.246094 C 137.726562 104.992188 137.570312 103.882812 137.421875 102.925781 C 137.273438 101.96875 137.175781 100.976562 137.136719 99.953125 C 137.109375 99.304688 136.867188 98.808594 136.40625 98.472656 C 136.417969 98.46875 136.433594 98.460938 136.445312 98.453125 C 136.921875 98.238281 137.164062 98.042969 137.175781 97.867188 C 137.199219 97.804688 137.21875 97.742188 137.238281 97.683594 L 140.382812 108.269531 " fill-opacity="1" fill-rule="evenodd"/><g clip-path="url(#f7483f94a5)"><path fill="#f89a75" d="M 147.140625 93.71875 C 147.84375 94.664062 148.8125 95.277344 150.042969 95.558594 C 151.285156 95.84375 152.4375 95.722656 153.492188 95.195312 C 154.546875 94.667969 155.203125 93.898438 155.460938 92.886719 L 146.410156 90.742188 C 146.179688 91.78125 146.421875 92.773438 147.140625 93.71875 Z M 134.988281 97.746094 C 135.539062 98.375 136.011719 98.617188 136.40625 98.472656 C 136.867188 98.808594 137.109375 99.304688 137.136719 99.953125 C 137.175781 100.976562 137.273438 101.96875 137.421875 102.925781 C 137.570312 103.882812 137.726562 104.992188 137.886719 106.246094 C 138.050781 107.472656 138.375 109.519531 138.859375 112.378906 C 139.375 115.386719 139.578125 117.011719 139.46875 117.257812 C 139.253906 117.6875 138.921875 118.019531 138.476562 118.246094 C 138.449219 118.261719 138.421875 118.28125 138.394531 118.308594 C 138.097656 118.1875 137.832031 118.019531 137.605469 117.800781 C 137.226562 117.4375 136.988281 117 136.894531 116.484375 L 134.988281 97.765625 Z M 156.433594 175.707031 C 156.367188 175.988281 156.3125 176.207031 156.273438 176.355469 C 156.285156 176.433594 156.292969 176.554688 156.292969 176.71875 C 156.292969 177.390625 156.304688 177.609375 156.332031 177.367188 C 156.265625 178.160156 156.230469 178.585938 156.230469 178.640625 C 156.148438 179.261719 156.050781 179.765625 155.925781 180.15625 C 155.453125 181.601562 154.992188 182.742188 154.546875 183.578125 C 153.625 185.25 152.59375 186.085938 151.441406 186.085938 C 150.792969 186.085938 150.308594 185.890625 149.980469 185.5 C 149.832031 185.296875 149.726562 185.164062 149.65625 185.097656 C 149.644531 185.054688 149.609375 185.023438 149.554688 184.996094 C 149.609375 184.832031 149.726562 184.476562 149.902344 183.921875 C 149.941406 183.816406 149.980469 183.742188 150.023438 183.699219 C 150.414062 183.039062 150.644531 182.457031 150.710938 181.960938 C 151.550781 179.046875 152.144531 176.542969 152.496094 174.449219 C 152.539062 174.167969 152.585938 173.898438 152.640625 173.640625 C 152.652344 173.546875 152.667969 173.457031 152.679688 173.378906 C 152.679688 173.351562 152.679688 173.332031 152.679688 173.316406 C 152.910156 171.535156 152.898438 169.539062 152.640625 167.328125 C 152.695312 167.21875 152.753906 167.109375 152.824219 167.003906 C 153.039062 166.570312 153.25 166.179688 153.453125 165.828125 C 153.953125 164.953125 154.3125 164.433594 154.527344 164.269531 C 155.460938 163.554688 156.378906 162.960938 157.285156 162.488281 C 158.003906 162.140625 158.53125 161.890625 158.867188 161.742188 C 159.179688 163.84375 159.09375 165.761719 158.605469 167.488281 C 158.269531 168.636719 157.683594 170.710938 156.859375 173.722656 C 156.710938 174.304688 156.625 174.695312 156.597656 174.894531 C 156.515625 175.179688 156.460938 175.449219 156.433594 175.707031 Z M 165.832031 121.261719 C 165.949219 121.035156 166.03125 120.722656 166.074219 120.332031 C 166.152344 119.660156 166.214844 119.15625 166.253906 118.8125 C 166.300781 118.460938 166.328125 118.28125 166.335938 118.269531 C 166.488281 117.835938 166.898438 117.148438 167.574219 116.203125 C 167.722656 115.988281 167.84375 115.804688 167.941406 115.65625 C 168.691406 116.496094 169.484375 117.40625 170.304688 118.386719 C 170.515625 118.640625 170.730469 118.898438 170.941406 119.160156 C 171.199219 119.484375 171.429688 119.765625 171.632812 120.007812 C 172.105469 120.585938 172.382812 120.925781 172.464844 121.019531 C 172.695312 121.34375 172.863281 121.660156 172.972656 121.972656 C 173.050781 122.214844 173.050781 122.523438 172.972656 122.902344 C 172.902344 123.265625 172.742188 123.511719 172.484375 123.632812 C 172.242188 123.738281 171.945312 123.878906 171.59375 124.054688 C 171.308594 124.203125 171.085938 124.351562 170.921875 124.5 C 169.894531 125.242188 168.648438 125.902344 167.1875 126.484375 C 166.632812 126.714844 165.289062 127.1875 163.152344 127.902344 C 162.429688 128.246094 161.835938 128.535156 161.367188 128.773438 C 160.570312 129.171875 160.132812 129.414062 160.066406 129.5 C 159.984375 129.621094 159.777344 129.757812 159.4375 129.90625 L 159.417969 129.90625 C 159.402344 129.917969 159.371094 129.929688 159.316406 129.945312 C 159.003906 130.082031 158.589844 130.234375 158.078125 130.410156 C 158.023438 130.433594 157.96875 130.453125 157.917969 130.472656 C 157.40625 130.660156 157.042969 130.753906 156.820312 130.753906 C 156.605469 130.742188 156.46875 130.734375 156.414062 130.734375 C 154.953125 131.03125 153.785156 130.941406 152.902344 130.472656 C 153.203125 130.285156 153.722656 130.152344 154.464844 130.085938 C 155.210938 130.007812 155.738281 129.859375 156.050781 129.640625 C 155.574219 129.710938 154.863281 129.835938 153.917969 130.027344 C 153.066406 130.203125 152.355469 130.25 151.789062 130.167969 L 151.847656 129.761719 C 152.144531 129.667969 152.484375 129.554688 152.863281 129.417969 C 154.109375 129 154.804688 128.765625 154.953125 128.710938 L 154.992188 128.570312 L 154.992188 128.558594 L 154.953125 128.46875 C 154.589844 128.492188 154.007812 128.621094 153.207031 128.863281 C 153.050781 128.910156 152.890625 128.960938 152.722656 129.015625 C 152.234375 129.164062 151.753906 129.316406 151.28125 129.480469 C 151.199219 129.464844 151.097656 129.453125 150.976562 129.4375 C 151.050781 129.234375 151.152344 129.046875 151.289062 128.882812 C 151.328125 128.832031 151.375 128.78125 151.421875 128.730469 C 151.773438 128.582031 152.179688 128.40625 152.640625 128.203125 C 154.019531 127.570312 154.804688 127.164062 154.992188 126.988281 C 154.167969 127.097656 153.234375 127.375 152.195312 127.820312 C 152.097656 127.847656 151.882812 127.941406 151.542969 128.101562 L 151.542969 128.0625 C 151.9375 127.699219 152.472656 127.363281 153.15625 127.0625 C 153.484375 126.914062 153.847656 126.777344 154.242188 126.648438 C 154.675781 126.503906 155.0625 126.375 155.398438 126.25 C 155.703125 126.136719 155.964844 126.035156 156.191406 125.9375 C 156.257812 126.125 156.378906 126.222656 156.554688 126.222656 C 156.960938 126.195312 157.3125 126 157.613281 125.636719 C 157.855469 125.363281 157.976562 125.148438 157.976562 124.988281 C 157.933594 124.382812 157.773438 123.734375 157.488281 123.042969 C 157.402344 122.847656 157.308594 122.644531 157.207031 122.4375 C 157.109375 122.289062 157.023438 122.152344 156.941406 122.03125 C 156.957031 122.019531 156.960938 122.003906 156.960938 121.992188 L 157.285156 121.566406 C 157.464844 121.726562 157.632812 121.957031 157.792969 122.253906 C 158.066406 122.6875 158.355469 123.238281 158.667969 123.914062 C 159.167969 124.9375 159.625 125.6875 160.046875 126.160156 C 160.84375 125.621094 161.496094 125.175781 161.992188 124.824219 C 162.507812 124.488281 163.203125 123.988281 164.085938 123.328125 C 164.976562 122.652344 165.679688 122.097656 166.195312 121.667969 C 166.074219 121.53125 165.949219 121.398438 165.832031 121.261719 Z M 154.914062 97.757812 C 154.894531 97.761719 154.878906 97.769531 154.863281 97.777344 C 154.078125 98.078125 153.238281 98.230469 152.335938 98.230469 C 151.46875 98.230469 150.660156 98.089844 149.910156 97.804688 C 149.015625 97.464844 148.199219 96.925781 147.464844 96.1875 C 146.195312 94.933594 145.523438 93.429688 145.445312 91.671875 C 145.441406 91.558594 145.4375 91.445312 145.4375 91.328125 C 145.4375 89.890625 145.824219 88.609375 146.605469 87.484375 C 146.816406 87.175781 147.058594 86.878906 147.332031 86.59375 C 147.375 86.546875 147.421875 86.496094 147.464844 86.453125 C 148.816406 85.101562 150.441406 84.429688 152.335938 84.429688 C 152.398438 84.429688 152.464844 84.429688 152.527344 84.429688 C 153.300781 84.667969 154.191406 85.085938 155.195312 85.683594 C 156.753906 86.585938 157.53125 87.316406 157.53125 87.867188 C 157.53125 88.421875 157.363281 89.128906 157.023438 89.992188 C 156.699219 90.832031 156.535156 91.390625 156.535156 91.671875 C 156.535156 92.023438 156.589844 92.300781 156.699219 92.503906 C 156.792969 92.707031 157.125 92.625 157.691406 92.261719 C 158.152344 91.992188 158.589844 91.445312 159.011719 90.621094 C 159.101562 90.449219 159.179688 90.273438 159.246094 90.09375 L 159.253906 90.09375 C 159.890625 90.09375 160.433594 90.316406 160.878906 90.761719 C 161.324219 91.207031 161.546875 91.746094 161.546875 92.382812 C 161.546875 93.015625 161.324219 93.550781 160.878906 93.980469 C 160.433594 94.441406 159.890625 94.667969 159.253906 94.667969 C 158.980469 94.667969 158.726562 94.625 158.484375 94.539062 C 158.171875 95.128906 157.757812 95.679688 157.246094 96.1875 C 156.539062 96.890625 155.761719 97.414062 154.914062 97.757812 Z M 81.050781 87.496094 C 81.40625 88.125 81.964844 88.632812 82.734375 89.023438 C 83.84375 89.5625 85.035156 89.683594 86.304688 89.386719 C 86.367188 89.371094 86.429688 89.355469 86.488281 89.335938 C 87.6875 89.011719 88.625 88.390625 89.308594 87.464844 C 89.429688 87.3125 89.539062 87.152344 89.632812 87 C 90.003906 86.382812 90.175781 85.742188 90.152344 85.085938 C 90.140625 84.867188 90.109375 84.648438 90.058594 84.429688 L 80.707031 86.613281 C 80.78125 86.929688 80.898438 87.222656 81.050781 87.496094 Z M 57.960938 105.597656 C 57.933594 105.636719 57.898438 105.691406 57.859375 105.757812 C 57.777344 105.855469 57.730469 105.960938 57.714844 106.082031 C 57.699219 106.117188 57.679688 106.152344 57.664062 106.183594 C 57.4375 106.675781 57.292969 106.972656 57.226562 107.074219 C 56.742188 107.886719 55.914062 108.433594 54.753906 108.714844 C 54.496094 108.742188 54.203125 108.773438 53.878906 108.816406 C 53.648438 108.683594 53.371094 108.519531 53.046875 108.332031 C 52.019531 107.820312 51.335938 107.441406 50.996094 107.195312 C 50.917969 107.144531 50.84375 107.097656 50.777344 107.054688 L 50.777344 102.296875 L 48.808594 99.648438 C 49.035156 99.351562 49.289062 99.15625 49.558594 99.058594 C 49.9375 98.941406 50.214844 98.984375 50.390625 99.203125 C 50.957031 99.730469 51.738281 100.503906 52.722656 101.53125 C 53.617188 102.378906 54.441406 102.980469 55.199219 103.332031 C 55.390625 103.195312 55.515625 103.0625 55.585938 102.925781 L 55.097656 100.84375 C 55.140625 100.84375 55.171875 100.863281 55.199219 100.902344 C 55.253906 100.621094 55.1875 100.054688 54.996094 99.203125 C 54.996094 98.5 55.332031 98.210938 56.011719 98.332031 C 56.429688 99.117188 56.761719 99.9375 57.003906 100.800781 C 57.058594 100.871094 57.085938 100.9375 57.085938 101.003906 C 57.113281 101.058594 57.125 101.117188 57.125 101.183594 C 57.261719 101.617188 57.382812 102.105469 57.492188 102.644531 C 57.625 103.285156 57.753906 104.066406 57.878906 104.980469 C 57.90625 105.179688 57.933594 105.386719 57.960938 105.597656 Z M 119.726562 97.402344 C 119.390625 97.359375 119.097656 97.332031 118.855469 97.320312 C 117.691406 97.023438 116.863281 96.476562 116.378906 95.679688 C 116.296875 95.558594 116.132812 95.214844 115.890625 94.648438 C 115.863281 94.554688 115.8125 94.460938 115.730469 94.367188 C 115.6875 94.285156 115.660156 94.222656 115.648438 94.183594 C 115.78125 92.996094 115.929688 92.011719 116.09375 91.230469 C 116.203125 90.703125 116.332031 90.21875 116.480469 89.769531 L 116.703125 89.003906 C 116.878906 88.433594 117.175781 87.742188 117.597656 86.917969 C 118.273438 86.808594 118.632812 87.078125 118.671875 87.726562 C 118.726562 88.265625 118.664062 88.828125 118.488281 89.40625 L 118.023438 91.511719 C 118.078125 91.644531 118.203125 91.789062 118.40625 91.9375 C 119.164062 91.585938 119.984375 90.980469 120.863281 90.117188 C 121.863281 89.105469 122.640625 88.332031 123.195312 87.808594 C 123.386719 87.59375 123.671875 87.539062 124.046875 87.644531 C 124.320312 87.753906 124.570312 87.949219 124.800781 88.234375 L 122.8125 90.882812 L 122.8125 95.640625 C 122.742188 95.679688 122.675781 95.722656 122.609375 95.761719 C 122.257812 96.019531 121.574219 96.410156 120.558594 96.933594 C 120.234375 97.109375 119.957031 97.265625 119.726562 97.402344 Z M 90.71875 85.753906 C 90.636719 87.632812 89.90625 89.238281 88.539062 90.582031 C 87.964844 91.15625 87.34375 91.621094 86.671875 91.96875 C 86.664062 91.96875 86.65625 91.976562 86.652344 91.976562 C 86.621094 91.996094 86.589844 92.011719 86.558594 92.027344 C 85.582031 92.507812 84.5 92.746094 83.324219 92.746094 C 81.953125 92.746094 80.71875 92.421875 79.621094 91.773438 C 79.074219 91.453125 78.566406 91.054688 78.085938 90.582031 C 77.78125 90.273438 77.503906 89.953125 77.265625 89.621094 C 77.132812 89.640625 76.992188 89.648438 76.851562 89.648438 C 76.175781 89.648438 75.597656 89.40625 75.125 88.921875 C 74.652344 88.449219 74.414062 87.875 74.414062 87.203125 C 74.414062 86.527344 74.652344 85.945312 75.125 85.460938 C 75.363281 85.222656 75.628906 85.046875 75.917969 84.925781 C 76.007812 85.199219 76.121094 85.472656 76.261719 85.742188 C 76.734375 86.648438 77.222656 87.246094 77.722656 87.542969 C 78.359375 87.964844 78.726562 88.058594 78.816406 87.828125 C 78.941406 87.597656 79 87.289062 79 86.898438 C 79 86.601562 78.851562 86.03125 78.554688 85.195312 C 78.257812 84.359375 78.109375 83.792969 78.109375 83.496094 C 78.109375 82.554688 78.953125 81.507812 80.644531 80.359375 C 82.253906 79.265625 83.613281 78.6875 84.722656 78.617188 C 85.847656 78.527344 86.832031 78.820312 87.6875 79.511719 C 88.523438 80.199219 89.09375 80.757812 89.390625 81.191406 C 89.382812 81.160156 89.371094 81.128906 89.359375 81.097656 C 89.402344 81.15625 89.441406 81.214844 89.484375 81.269531 C 89.78125 81.703125 90.03125 82.160156 90.222656 82.636719 C 90.558594 83.484375 90.730469 84.398438 90.730469 85.378906 C 90.730469 85.507812 90.726562 85.632812 90.71875 85.753906 " fill-opacity="1" fill-rule="evenodd"/></g><path fill="#f57f59" d="M 141.683594 108.917969 C 141.535156 109.214844 141.390625 109.515625 141.246094 109.820312 C 140.738281 109.460938 140.453125 108.945312 140.382812 108.269531 L 140.636719 107.761719 C 140.652344 107.796875 140.671875 107.828125 140.6875 107.863281 C 140.941406 108.3125 141.277344 108.664062 141.683594 108.917969 " fill-opacity="1" fill-rule="evenodd"/><path fill="#ee8960" d="M 151.421875 128.730469 C 151.476562 128.675781 151.535156 128.628906 151.605469 128.589844 L 151.542969 128.101562 C 151.882812 127.941406 152.097656 127.847656 152.195312 127.820312 C 153.234375 127.375 154.167969 127.097656 154.992188 126.988281 C 154.804688 127.164062 154.019531 127.570312 152.640625 128.203125 C 152.179688 128.40625 151.773438 128.582031 151.421875 128.730469 Z M 151.847656 129.761719 L 151.890625 129.5625 C 151.738281 129.5625 151.535156 129.535156 151.28125 129.480469 C 151.753906 129.316406 152.234375 129.164062 152.722656 129.015625 C 152.890625 128.960938 153.050781 128.910156 153.207031 128.863281 C 154.007812 128.621094 154.589844 128.492188 154.953125 128.46875 L 154.992188 128.558594 L 154.992188 128.570312 L 154.953125 128.710938 C 154.804688 128.765625 154.109375 129 152.863281 129.417969 C 152.484375 129.554688 152.144531 129.667969 151.847656 129.761719 Z M 156.941406 122.03125 C 157.023438 122.152344 157.109375 122.289062 157.207031 122.4375 C 157.308594 122.644531 157.402344 122.847656 157.488281 123.042969 C 157.773438 123.734375 157.933594 124.382812 157.976562 124.988281 C 157.976562 125.148438 157.855469 125.363281 157.613281 125.636719 C 157.3125 126 156.960938 126.195312 156.554688 126.222656 C 156.378906 126.222656 156.257812 126.125 156.191406 125.9375 C 156.300781 125.882812 156.402344 125.84375 156.496094 125.816406 C 156.726562 125.710938 156.90625 125.609375 157.042969 125.511719 C 157.53125 125.121094 157.644531 124.566406 157.386719 123.851562 C 157.238281 123.433594 157.132812 123.136719 157.0625 122.960938 C 157.015625 122.820312 156.980469 122.6875 156.953125 122.570312 C 156.9375 122.476562 156.925781 122.394531 156.921875 122.316406 C 156.921875 122.222656 156.929688 122.125 156.941406 122.03125 Z M 154.914062 102.359375 C 154.667969 102.5625 154.390625 102.75 154.078125 102.925781 C 153.253906 103.386719 152.621094 103.703125 152.171875 103.878906 C 151.429688 104.1875 150.738281 104.347656 150.105469 104.363281 C 149.964844 104.359375 149.84375 104.347656 149.738281 104.332031 C 149.535156 104.3125 149.390625 104.273438 149.292969 104.222656 C 149.101562 104.113281 148.980469 103.933594 148.925781 103.675781 C 148.84375 103.359375 148.808594 103.050781 148.824219 102.746094 C 148.828125 102.65625 148.835938 102.570312 148.84375 102.480469 L 149.566406 99.324219 L 149.496094 99.667969 C 149.683594 99.777344 149.902344 99.882812 150.144531 99.992188 C 151.320312 100.355469 152.1875 100.632812 152.742188 100.820312 C 153.726562 101.171875 154.453125 101.683594 154.914062 102.359375 Z M 167.941406 115.65625 C 167.84375 115.804688 167.722656 115.988281 167.574219 116.203125 C 166.898438 117.148438 166.488281 117.835938 166.335938 118.269531 C 166.328125 118.28125 166.300781 118.460938 166.253906 118.8125 C 166.214844 119.15625 166.152344 119.660156 166.074219 120.332031 C 166.03125 120.722656 165.949219 121.035156 165.832031 121.261719 C 165.136719 120.441406 164.355469 119.554688 163.484375 118.601562 C 164.074219 118.390625 164.765625 117.855469 165.566406 116.992188 C 165.917969 116.601562 166.222656 116.246094 166.476562 115.921875 C 166.820312 115.503906 167.066406 115.144531 167.21875 114.847656 C 167.453125 115.109375 167.695312 115.378906 167.941406 115.65625 Z M 136.851562 92.019531 C 136.894531 92.179688 136.914062 92.382812 136.914062 92.625 C 136.925781 92.949219 136.933594 93.152344 136.933594 93.230469 C 136.121094 93.703125 135.542969 94.222656 135.191406 94.792969 C 135.054688 95.019531 134.84375 95.046875 134.558594 94.871094 C 134.289062 94.574219 134.101562 94.394531 133.992188 94.324219 C 133.613281 94.082031 133.347656 93.757812 133.199219 93.355469 C 133.011719 92.960938 132.949219 92.550781 133.019531 92.117188 C 133.113281 92.253906 133.214844 92.507812 133.320312 92.886719 C 133.511719 93.171875 133.726562 93.265625 133.972656 93.171875 C 133.957031 92.941406 133.917969 92.582031 133.851562 92.097656 C 134.078125 92.691406 134.289062 93.125 134.480469 93.394531 C 134.613281 93.515625 134.753906 93.480469 134.902344 93.292969 C 134.988281 92.957031 134.980469 92.542969 134.886719 92.058594 C 134.75 91.371094 134.675781 90.953125 134.660156 90.804688 C 134.796875 90.9375 134.871094 91.15625 134.886719 91.453125 C 134.953125 91.597656 135 91.828125 135.027344 92.140625 C 135.257812 92.90625 135.492188 93.230469 135.738281 93.109375 C 136.019531 92.988281 136.128906 92.785156 136.0625 92.503906 C 136.035156 92.195312 135.992188 91.929688 135.9375 91.714844 C 136.007812 91.863281 136.3125 91.964844 136.851562 92.019531 Z M 136.242188 89.648438 L 136.40625 89.570312 C 136.417969 89.367188 136.40625 89.164062 136.367188 88.960938 C 136.847656 88.816406 137.429688 89.292969 138.121094 90.390625 L 138.152344 90.457031 C 138.464844 91.28125 138.679688 92.03125 138.800781 92.707031 C 138.476562 92.503906 138.199219 92.226562 137.96875 91.875 C 137.699219 91.445312 137.523438 91.1875 137.441406 91.105469 C 137.253906 91.039062 136.933594 90.964844 136.488281 90.882812 C 136.082031 90.84375 135.769531 90.789062 135.554688 90.722656 C 135.796875 90.667969 136.140625 90.601562 136.589844 90.519531 C 136.480469 90.128906 136.367188 89.839844 136.242188 89.648438 Z M 136.40625 98.472656 C 136.011719 98.617188 135.539062 98.375 134.988281 97.746094 C 134.882812 97.625 134.773438 97.492188 134.660156 97.339844 C 135.339844 97.234375 136 97.042969 136.648438 96.773438 C 136.757812 96.71875 136.851562 96.660156 136.933594 96.59375 C 137.40625 96.214844 137.820312 95.78125 138.171875 95.296875 C 138.144531 95.335938 138.132812 95.382812 138.132812 95.4375 C 137.886719 95.835938 137.589844 96.582031 137.238281 97.683594 C 137.21875 97.742188 137.199219 97.804688 137.175781 97.867188 C 137.164062 98.042969 136.921875 98.238281 136.445312 98.453125 C 136.433594 98.460938 136.417969 98.46875 136.40625 98.472656 Z M 152.234375 161.761719 C 154.304688 161.613281 156.378906 161.03125 158.464844 160.019531 C 158.640625 160.628906 158.761719 161.128906 158.828125 161.519531 C 158.84375 161.597656 158.855469 161.671875 158.867188 161.742188 C 158.53125 161.890625 158.003906 162.140625 157.285156 162.488281 C 156.378906 162.960938 155.460938 163.554688 154.527344 164.269531 C 154.3125 164.433594 153.953125 164.953125 153.453125 165.828125 C 153.25 166.179688 153.039062 166.570312 152.824219 167.003906 C 152.753906 167.109375 152.695312 167.21875 152.640625 167.328125 C 152.898438 169.539062 152.910156 171.535156 152.679688 173.316406 C 152.613281 173.410156 152.558594 173.492188 152.519531 173.558594 C 152.546875 173.53125 152.597656 173.472656 152.679688 173.378906 C 152.667969 173.457031 152.652344 173.546875 152.640625 173.640625 C 152.585938 173.898438 152.539062 174.167969 152.496094 174.449219 C 152.472656 174.558594 152.445312 174.667969 152.417969 174.773438 C 152.214844 175.785156 151.957031 176.710938 151.644531 177.546875 C 150.683594 180.109375 149.375 181.394531 147.707031 181.394531 C 147.492188 181.394531 147.445312 181.121094 147.566406 180.582031 C 147.59375 180.503906 147.613281 180.421875 147.628906 180.339844 C 147.667969 180.152344 147.714844 179.976562 147.769531 179.8125 C 147.90625 178.789062 148.011719 178.011719 148.09375 177.484375 C 148.136719 177.175781 148.222656 176.636719 148.359375 175.867188 C 148.480469 175.179688 148.554688 174.625 148.582031 174.207031 C 148.636719 172.832031 148.527344 171.207031 148.257812 169.332031 C 148.8125 167.859375 149.15625 167.003906 149.292969 166.757812 C 149.667969 166.179688 150.523438 165.246094 151.847656 163.96875 C 152.039062 163.792969 152.21875 163.621094 152.394531 163.460938 C 152.371094 162.8125 152.316406 162.246094 152.234375 161.761719 Z M 154.914062 97.757812 L 154.914062 97.804688 C 154.894531 97.796875 154.878906 97.785156 154.863281 97.777344 C 154.878906 97.769531 154.894531 97.761719 154.914062 97.757812 Z M 145.445312 91.671875 C 145.320312 91.585938 145.203125 91.484375 145.089844 91.371094 C 144.644531 90.9375 144.421875 90.40625 144.421875 89.769531 C 144.421875 89.136719 144.644531 88.597656 145.089844 88.152344 C 145.515625 87.730469 146.019531 87.507812 146.605469 87.484375 C 145.824219 88.609375 145.4375 89.890625 145.4375 91.328125 C 145.4375 91.445312 145.441406 91.558594 145.445312 91.671875 Z M 81.722656 96.328125 C 83.382812 94.304688 85.023438 93.199219 86.628906 93.007812 L 87.625 95.882812 C 87.839844 96.625 87.949219 97.171875 87.949219 97.523438 C 88.03125 98.128906 88.050781 98.683594 88.011719 99.183594 L 86.023438 97.929688 C 85.183594 97.441406 84.417969 97.09375 83.730469 96.875 C 82.890625 96.671875 82.21875 96.492188 81.722656 96.328125 Z M 57.960938 105.597656 C 58 105.773438 58.019531 105.941406 58.019531 106.105469 C 58.046875 106.265625 58.058594 106.421875 58.058594 106.570312 L 58.160156 107.296875 C 58.175781 107.492188 58.140625 107.6875 58.058594 107.886719 C 57.914062 108.253906 57.601562 108.632812 57.125 109.019531 C 56.601562 109.472656 56.082031 109.664062 55.574219 109.59375 C 55.398438 109.578125 55.230469 109.527344 55.054688 109.445312 C 54.949219 109.375 54.820312 109.308594 54.671875 109.242188 C 54.46875 109.09375 54.203125 108.949219 53.878906 108.816406 C 54.203125 108.773438 54.496094 108.742188 54.753906 108.714844 C 55.914062 108.433594 56.742188 107.886719 57.226562 107.074219 C 57.292969 106.972656 57.4375 106.675781 57.664062 106.183594 C 57.679688 106.152344 57.699219 106.117188 57.714844 106.082031 C 57.730469 105.960938 57.777344 105.855469 57.859375 105.757812 C 57.898438 105.691406 57.933594 105.636719 57.960938 105.597656 Z M 118.914062 97.828125 C 118.765625 97.894531 118.636719 97.96875 118.53125 98.046875 C 117.851562 98.359375 117.167969 98.21875 116.480469 97.625 C 115.75 97.015625 115.40625 96.4375 115.445312 95.882812 L 115.527344 95.15625 C 115.527344 95.019531 115.546875 94.871094 115.585938 94.710938 C 115.585938 94.535156 115.609375 94.359375 115.648438 94.183594 C 115.660156 94.222656 115.6875 94.285156 115.730469 94.367188 C 115.8125 94.460938 115.863281 94.554688 115.890625 94.648438 C 116.132812 95.214844 116.296875 95.558594 116.378906 95.679688 C 116.863281 96.476562 117.691406 97.023438 118.855469 97.320312 C 119.097656 97.332031 119.390625 97.359375 119.726562 97.402344 C 119.390625 97.550781 119.117188 97.691406 118.914062 97.828125 Z M 89.957031 81.332031 C 90.386719 81.433594 90.765625 81.652344 91.09375 81.980469 C 91.582031 82.464844 91.824219 83.042969 91.824219 83.71875 C 91.824219 84.394531 91.582031 84.96875 91.09375 85.441406 C 90.976562 85.5625 90.851562 85.667969 90.71875 85.753906 C 90.726562 85.632812 90.730469 85.507812 90.730469 85.378906 C 90.730469 84.398438 90.558594 83.484375 90.222656 82.636719 C 90.03125 82.160156 89.78125 81.703125 89.484375 81.269531 C 89.648438 81.277344 89.808594 81.296875 89.957031 81.332031 " fill-opacity="1" fill-rule="evenodd"/><g clip-path="url(#ee6cedde17)"><path fill="#2a3c93" d="M 154.914062 97.804688 L 154.914062 97.757812 C 155.761719 97.414062 156.539062 96.890625 157.246094 96.1875 C 157.757812 95.679688 158.171875 95.128906 158.484375 94.539062 C 158.726562 94.625 158.980469 94.667969 159.253906 94.667969 C 159.890625 94.667969 160.433594 94.441406 160.878906 93.980469 C 161.324219 93.550781 161.546875 93.015625 161.546875 92.382812 C 161.546875 91.746094 161.324219 91.207031 160.878906 90.761719 C 160.433594 90.316406 159.890625 90.09375 159.253906 90.09375 L 159.246094 90.09375 C 159.179688 90.273438 159.101562 90.449219 159.011719 90.621094 C 158.589844 91.445312 158.152344 91.992188 157.691406 92.261719 C 157.125 92.625 156.792969 92.707031 156.699219 92.503906 C 156.589844 92.300781 156.535156 92.023438 156.535156 91.671875 C 156.535156 91.390625 156.699219 90.832031 157.023438 89.992188 C 157.363281 89.128906 157.53125 88.421875 157.53125 87.867188 C 157.53125 87.316406 156.753906 86.585938 155.195312 85.683594 C 154.191406 85.085938 153.300781 84.667969 152.527344 84.429688 C 152.464844 84.429688 152.398438 84.429688 152.335938 84.429688 C 150.441406 84.429688 148.816406 85.101562 147.464844 86.453125 C 147.421875 86.496094 147.375 86.546875 147.332031 86.59375 C 147.058594 86.878906 146.816406 87.175781 146.605469 87.484375 C 146.019531 87.507812 145.515625 87.730469 145.089844 88.152344 C 144.644531 88.597656 144.421875 89.136719 144.421875 89.769531 C 144.421875 90.40625 144.644531 90.9375 145.089844 91.371094 C 145.203125 91.484375 145.320312 91.585938 145.445312 91.671875 C 145.523438 93.429688 146.195312 94.933594 147.464844 96.1875 C 148.199219 96.925781 149.015625 97.464844 149.910156 97.804688 L 149.675781 98.820312 C 148.992188 98.792969 148.308594 98.960938 147.628906 99.324219 C 147.109375 98.734375 146.636719 98.457031 146.207031 98.496094 C 146.109375 98.503906 146.011719 98.519531 145.914062 98.535156 C 144.433594 95.871094 143.691406 93.082031 143.691406 90.175781 C 143.691406 87.871094 144.378906 85.910156 145.75 84.296875 C 145.980469 83.75 146.421875 83.167969 147.078125 82.546875 C 148.09375 81.601562 149.332031 80.839844 150.792969 80.257812 C 152.253906 79.691406 153.511719 79.476562 154.566406 79.613281 C 155.621094 79.757812 156.164062 80.226562 156.191406 81.007812 C 156.195312 81.117188 156.1875 81.230469 156.171875 81.34375 C 158.546875 81.949219 160.515625 83.375 162.074219 85.621094 C 163.902344 88.253906 164.921875 91.527344 165.140625 95.4375 C 165.234375 97.3125 165.863281 98.945312 167.027344 100.335938 C 167.742188 101.199219 168.988281 102.257812 170.761719 103.511719 C 172.558594 104.78125 173.785156 105.792969 174.433594 106.546875 C 175.527344 107.84375 176.078125 109.355469 176.078125 111.082031 C 176.078125 113.199219 175.042969 115.089844 172.972656 116.75 C 172.058594 117.476562 171.167969 118.023438 170.304688 118.386719 C 169.484375 117.40625 168.691406 116.496094 167.941406 115.65625 C 167.695312 115.378906 167.453125 115.109375 167.21875 114.847656 C 167.382812 114.527344 167.441406 114.277344 167.390625 114.097656 C 167.285156 113.613281 166.519531 112.660156 165.097656 111.246094 C 163.691406 109.828125 162.394531 108.667969 161.203125 107.761719 C 161.195312 107.757812 161.183594 107.75 161.171875 107.742188 C 161.148438 107.570312 161.121094 107.402344 161.082031 107.238281 C 160.878906 106.414062 160.480469 105.707031 159.882812 105.113281 C 159.234375 104.597656 158.753906 104.207031 158.441406 103.9375 C 158.132812 103.695312 157.863281 103.460938 157.632812 103.230469 C 157.402344 103.042969 157.199219 102.84375 157.023438 102.644531 C 156.847656 102.371094 156.683594 102.136719 156.535156 101.933594 C 156.441406 101.773438 156.347656 101.636719 156.25 101.53125 C 155.941406 101.109375 155.664062 100.753906 155.417969 100.457031 C 155.285156 100.347656 155.113281 100.09375 154.914062 99.6875 L 154.914062 97.804688 " fill-opacity="1" fill-rule="evenodd"/></g><path fill="#95cbef" d="M 147.628906 99.324219 C 147.175781 99.5625 146.722656 99.886719 146.269531 100.296875 L 146.226562 100.296875 C 145.808594 100.929688 145.363281 101.699219 144.886719 102.601562 C 144.359375 103.695312 143.960938 104.507812 143.691406 105.03125 C 143.664062 105.085938 143.597656 105.273438 143.488281 105.597656 C 143.40625 105.773438 143.3125 105.957031 143.203125 106.144531 C 142.664062 107.046875 142.160156 107.972656 141.683594 108.917969 C 141.277344 108.664062 140.941406 108.3125 140.6875 107.863281 C 140.671875 107.828125 140.652344 107.796875 140.636719 107.761719 C 140.550781 107.59375 140.46875 107.417969 140.402344 107.238281 C 141.460938 105.1875 142.363281 102.996094 143.121094 100.660156 L 143.304688 100.234375 C 143.304688 100.179688 143.332031 100.132812 143.386719 100.09375 C 143.617188 99.703125 143.988281 99.351562 144.503906 99.042969 C 144.953125 98.792969 145.425781 98.625 145.914062 98.535156 C 146.011719 98.519531 146.109375 98.503906 146.207031 98.496094 C 146.636719 98.457031 147.109375 98.734375 147.628906 99.324219 Z M 153.15625 127.0625 C 152.851562 127.101562 152.53125 127.125 152.195312 127.132812 C 152.625 126.132812 152.84375 125.046875 152.84375 123.875 C 152.84375 122.6875 152.355469 121.695312 151.382812 120.898438 C 151.152344 120.710938 150.804688 120.480469 150.347656 120.210938 C 149.5625 119.722656 148.414062 119.097656 146.898438 118.328125 C 146.816406 118.328125 146.734375 118.328125 146.65625 118.328125 C 146.277344 118.3125 145.976562 118.308594 145.761719 118.308594 C 145.058594 118.308594 144.332031 118.445312 143.589844 118.710938 C 143.5625 118.578125 143.542969 118.4375 143.527344 118.289062 C 143.527344 117.9375 143.523438 117.671875 143.507812 117.5 L 142.597656 116.464844 C 143.285156 116.34375 143.925781 116.332031 144.523438 116.425781 C 145.441406 116.5625 146.179688 116.925781 146.734375 117.519531 L 147.503906 117.519531 C 148.25 117.574219 148.933594 117.699219 149.554688 117.902344 C 150.121094 118.089844 150.5625 118.1875 150.875 118.1875 C 152.171875 118.1875 153.132812 117.773438 153.757812 116.953125 C 154.257812 116.289062 154.558594 115.320312 154.667969 114.035156 C 154.730469 112.914062 154.777344 112.023438 154.8125 111.367188 C 154.820312 111.144531 154.824219 110.949219 154.832031 110.78125 C 154.886719 109.632812 155.054688 108.882812 155.339844 108.53125 C 156.636719 106.941406 158.144531 106.347656 159.863281 106.75 C 160.296875 106.847656 160.703125 107.007812 161.082031 107.238281 C 161.121094 107.402344 161.148438 107.570312 161.171875 107.742188 C 160.023438 106.84375 158.894531 106.722656 157.792969 107.378906 C 157.765625 107.394531 157.726562 107.421875 157.671875 107.460938 C 157.589844 107.515625 157.496094 107.574219 157.386719 107.644531 L 157.207031 107.761719 C 157.152344 107.796875 157.101562 107.832031 157.054688 107.863281 C 156.335938 108.359375 155.839844 108.863281 155.5625 109.382812 C 155.238281 109.976562 155.15625 110.625 155.316406 111.324219 C 155.480469 112.011719 156.523438 113.308594 158.441406 115.210938 C 158.535156 115.300781 158.628906 115.390625 158.71875 115.472656 C 158.347656 115.914062 158.046875 116.445312 157.816406 117.074219 C 157.558594 117.773438 157.277344 118.53125 156.984375 119.339844 C 156.65625 120.175781 156.46875 120.953125 156.414062 121.667969 C 156.402344 121.828125 156.394531 121.976562 156.394531 122.113281 C 156.351562 122.613281 156.351562 123.03125 156.394531 123.367188 C 156.691406 123.691406 156.78125 124.136719 156.65625 124.703125 C 156.367188 125.34375 155.945312 125.863281 155.398438 126.25 C 155.0625 126.375 154.675781 126.503906 154.242188 126.648438 C 153.847656 126.777344 153.484375 126.914062 153.15625 127.0625 Z M 88.070312 104.726562 C 87.992188 104.847656 87.941406 104.964844 87.929688 105.070312 C 87.441406 105.933594 86.71875 106.367188 85.757812 106.367188 C 84.1875 106.367188 81.9375 104.539062 79 100.882812 C 78.257812 99.953125 77.554688 99.046875 76.890625 98.171875 C 77.011719 97.859375 77.140625 97.597656 77.277344 97.382812 C 77.34375 97.125 77.4375 96.867188 77.5625 96.613281 C 77.628906 96.679688 77.691406 96.746094 77.742188 96.816406 C 80.679688 100.390625 83.261719 102.925781 85.492188 104.421875 C 85.75 103.292969 86.175781 102.253906 86.773438 101.308594 C 86.515625 102.132812 86.699219 102.75 87.320312 103.167969 C 87.414062 103.210938 87.503906 103.257812 87.585938 103.308594 C 87.679688 103.730469 87.839844 104.203125 88.070312 104.726562 Z M 82.570312 127.660156 C 82.207031 127.523438 81.871094 127.386719 81.558594 127.253906 C 81.246094 127.105469 80.921875 126.9375 80.585938 126.75 C 80.53125 126.734375 80.484375 126.707031 80.441406 126.667969 L 80.382812 126.605469 C 80.300781 126.566406 80.230469 126.53125 80.179688 126.503906 L 80.136719 126.425781 C 80.070312 126.382812 80.035156 126.355469 80.035156 126.34375 C 79.996094 126.34375 79.960938 126.324219 79.933594 126.28125 C 79.394531 125.984375 79.035156 125.539062 78.859375 124.945312 C 78.832031 124.664062 78.816406 124.210938 78.816406 123.589844 C 78.765625 123.46875 78.738281 123.339844 78.738281 123.207031 C 78.738281 122.410156 78.589844 121.449219 78.289062 120.332031 C 77.777344 118.660156 77.511719 117.722656 77.5 117.519531 C 77.226562 116.386719 76.613281 114.996094 75.652344 113.347656 C 74.433594 111.394531 73.691406 110.070312 73.421875 109.382812 C 73.367188 109.4375 73.328125 109.464844 73.300781 109.464844 C 73.378906 109.300781 73.421875 109.148438 73.421875 108.996094 C 73.691406 107.148438 73.824219 106.207031 73.824219 106.164062 C 73.824219 104.707031 73.507812 103.582031 72.875 102.785156 C 72.425781 102.246094 71.84375 101.839844 71.128906 101.570312 C 71.386719 101.394531 71.648438 101.226562 71.917969 101.066406 C 72.054688 101.011719 72.445312 100.816406 73.097656 100.476562 C 74.058594 101.609375 74.910156 103 75.652344 104.648438 C 75.949219 105.578125 76.503906 107.054688 77.316406 109.078125 C 78.167969 111.15625 78.769531 112.683594 79.121094 113.652344 C 80.003906 116.015625 80.8125 118.800781 81.558594 122.011719 C 82.03125 124.074219 82.371094 125.960938 82.570312 127.660156 Z M 95.945312 105.011719 C 95.863281 104.808594 95.816406 104.605469 95.804688 104.40625 C 95.476562 102.703125 95.28125 101.589844 95.214844 101.066406 C 95.132812 100.523438 95.1875 99.84375 95.375 99.019531 C 95.59375 98.15625 95.59375 97.308594 95.375 96.46875 C 95.226562 95.6875 94.800781 94.816406 94.097656 93.859375 C 95.167969 94.25 96.183594 94.75 97.144531 95.355469 C 97.195312 95.667969 97.234375 95.890625 97.261719 96.023438 C 97.535156 97.644531 97.789062 98.925781 98.035156 99.871094 C 98.441406 101.570312 99.328125 102.945312 100.695312 104 C 102.925781 105.308594 104.867188 106.460938 106.515625 107.460938 C 106.800781 107.609375 107.09375 107.75 107.390625 107.886719 C 107.242188 107.992188 107.125 108.082031 107.042969 108.148438 L 107.003906 108.148438 C 106.460938 108.484375 105.859375 108.632812 105.199219 108.59375 C 104.507812 108.671875 103.917969 108.527344 103.433594 108.148438 C 102.6875 107.6875 101.679688 107.222656 100.410156 106.75 C 98.976562 106.28125 97.914062 105.933594 97.222656 105.71875 C 96.886719 105.597656 96.460938 105.359375 95.945312 105.011719 Z M 89.332031 103.695312 C 89.046875 103.304688 88.84375 102.804688 88.722656 102.199219 C 88.722656 102.132812 88.714844 102.0625 88.699219 101.996094 C 88.632812 100.808594 88.558594 99.917969 88.476562 99.324219 C 88.625 99.390625 88.824219 99.539062 89.066406 99.769531 C 89.582031 100.242188 90.445312 101.050781 91.664062 102.199219 C 91.664062 100.875 91.417969 99.445312 90.933594 97.90625 C 90.539062 96.691406 90.074219 95.464844 89.535156 94.222656 C 89.4375 93.941406 89.289062 93.621094 89.085938 93.273438 C 88.597656 92.667969 87.789062 92.238281 86.652344 91.976562 C 86.65625 91.976562 86.664062 91.96875 86.671875 91.96875 L 89.230469 92.21875 C 89.5 92.570312 89.742188 93.003906 89.957031 93.515625 C 91.636719 97.414062 92.476562 100.402344 92.476562 102.480469 C 92.476562 102.898438 92.445312 103.25 92.394531 103.535156 C 92.230469 104.128906 91.878906 104.421875 91.339844 104.421875 C 91.203125 104.421875 90.796875 104.308594 90.121094 104.082031 C 89.808594 103.945312 89.546875 103.816406 89.332031 103.695312 " fill-opacity="1" fill-rule="evenodd"/><path fill="#e2f3fc" d="M 166.476562 115.921875 C 166.222656 116.246094 165.917969 116.601562 165.566406 116.992188 C 164.765625 117.855469 164.074219 118.390625 163.484375 118.601562 C 163.097656 118.738281 162.757812 118.734375 162.460938 118.589844 C 161.753906 118.246094 160.503906 117.207031 158.71875 115.472656 C 158.628906 115.390625 158.535156 115.300781 158.441406 115.210938 C 156.523438 113.308594 155.480469 112.011719 155.316406 111.324219 C 155.15625 110.625 155.238281 109.976562 155.5625 109.382812 C 155.839844 108.863281 156.335938 108.359375 157.054688 107.863281 C 157.035156 107.878906 157.019531 107.894531 157.003906 107.90625 C 157.039062 107.957031 157.078125 108.011719 157.125 108.066406 C 157.851562 109.015625 159.632812 110.605469 162.460938 112.84375 C 162.832031 113.140625 163.1875 113.421875 163.527344 113.695312 C 164.699219 114.613281 165.679688 115.355469 166.476562 115.921875 Z M 141.246094 109.820312 C 141.390625 109.515625 141.535156 109.214844 141.683594 108.917969 C 142.160156 107.972656 142.664062 107.046875 143.203125 106.144531 C 143.3125 105.957031 143.40625 105.773438 143.488281 105.597656 C 143.597656 105.273438 143.664062 105.085938 143.691406 105.03125 C 143.960938 104.507812 144.359375 103.695312 144.886719 102.601562 C 145.363281 101.699219 145.808594 100.929688 146.226562 100.296875 L 146.269531 100.296875 C 146.722656 99.886719 147.175781 99.5625 147.628906 99.324219 C 148.308594 98.960938 148.992188 98.792969 149.675781 98.820312 L 147.503906 102.359375 C 147.503906 102.371094 147.503906 102.386719 147.503906 102.398438 C 147.140625 103.089844 146.925781 103.777344 146.855469 104.464844 C 146.804688 104.734375 146.789062 105.003906 146.816406 105.273438 C 146.992188 105.246094 147.167969 105.195312 147.34375 105.113281 C 147.53125 105.0625 147.722656 104.988281 147.921875 104.898438 C 148.039062 104.851562 148.15625 104.792969 148.277344 104.726562 C 148.398438 104.671875 148.515625 104.605469 148.621094 104.523438 C 148.554688 104.902344 148.433594 105.316406 148.257812 105.757812 C 148.082031 106.246094 147.851562 106.757812 147.566406 107.296875 L 146.046875 110.132812 C 145.476562 111.222656 145.023438 112.140625 144.683594 112.882812 C 144.875 113.046875 145.160156 113.289062 145.539062 113.613281 C 146.402344 111.910156 147.667969 109.421875 149.332031 106.144531 C 149.453125 105.914062 149.566406 105.679688 149.675781 105.4375 C 149.769531 105.71875 149.839844 105.957031 149.878906 106.144531 C 149.949219 106.414062 149.980469 106.554688 149.980469 106.570312 C 150.132812 107.015625 150.265625 107.386719 150.386719 107.683594 C 150.746094 107.59375 151.109375 107.46875 151.472656 107.308594 C 151.824219 107.15625 152.179688 106.972656 152.539062 106.75 C 153.132812 106.386719 153.769531 105.921875 154.445312 105.355469 C 155.175781 104.679688 155.621094 104.257812 155.785156 104.082031 C 156.125 103.757812 156.414062 103.445312 156.65625 103.148438 C 156.726562 103.070312 156.78125 103 156.820312 102.945312 C 156.847656 102.894531 156.875 102.851562 156.902344 102.824219 C 156.902344 102.8125 156.921875 102.796875 156.960938 102.785156 C 156.976562 102.746094 156.996094 102.695312 157.023438 102.644531 C 157.199219 102.84375 157.402344 103.042969 157.632812 103.230469 C 157.863281 103.460938 158.132812 103.695312 158.441406 103.9375 C 158.753906 104.207031 159.234375 104.597656 159.882812 105.113281 C 160.480469 105.707031 160.878906 106.414062 161.082031 107.238281 C 160.703125 107.007812 160.296875 106.847656 159.863281 106.75 C 158.144531 106.347656 156.636719 106.941406 155.339844 108.53125 C 155.054688 108.882812 154.886719 109.632812 154.832031 110.78125 C 154.824219 110.949219 154.820312 111.144531 154.8125 111.367188 C 154.777344 112.023438 154.730469 112.914062 154.667969 114.035156 C 154.558594 115.320312 154.257812 116.289062 153.757812 116.953125 C 153.132812 117.773438 152.171875 118.1875 150.875 118.1875 C 150.5625 118.1875 150.121094 118.089844 149.554688 117.902344 C 148.933594 117.699219 148.25 117.574219 147.503906 117.519531 L 146.734375 117.519531 C 146.179688 116.925781 145.441406 116.5625 144.523438 116.425781 C 143.925781 116.332031 143.285156 116.34375 142.597656 116.464844 L 142.058594 115.878906 L 141.683594 115.472656 C 141.046875 114.652344 140.648438 113.847656 140.484375 113.066406 C 140.335938 112.539062 140.363281 111.960938 140.566406 111.324219 C 140.785156 110.816406 141.011719 110.3125 141.246094 109.820312 Z M 152.195312 127.132812 C 151.894531 127.132812 151.578125 127.125 151.238281 127.113281 C 147.058594 126.574219 144.441406 125.285156 143.386719 123.246094 C 143.347656 122.988281 143.3125 122.765625 143.285156 122.578125 C 143.269531 122.429688 143.265625 122.28125 143.265625 122.132812 C 143.238281 122.078125 143.238281 122.019531 143.265625 121.949219 C 143.292969 121.4375 143.371094 121.011719 143.507812 120.675781 C 143.601562 120.324219 143.671875 120.054688 143.710938 119.867188 C 143.804688 119.558594 143.800781 119.285156 143.691406 119.058594 C 143.625 118.949219 143.589844 118.835938 143.589844 118.710938 C 144.332031 118.445312 145.058594 118.308594 145.761719 118.308594 C 145.976562 118.308594 146.277344 118.3125 146.65625 118.328125 C 146.734375 118.328125 146.816406 118.328125 146.898438 118.328125 C 148.414062 119.097656 149.5625 119.722656 150.347656 120.210938 C 150.804688 120.480469 151.152344 120.710938 151.382812 120.898438 C 152.355469 121.695312 152.84375 122.6875 152.84375 123.875 C 152.84375 125.046875 152.625 126.132812 152.195312 127.132812 Z M 72.875 102.785156 C 73.507812 103.582031 73.824219 104.707031 73.824219 106.164062 C 73.824219 106.207031 73.691406 107.148438 73.421875 108.996094 C 73.421875 109.148438 73.378906 109.300781 73.300781 109.464844 C 73.191406 109.546875 73.097656 109.644531 73.015625 109.769531 L 71.308594 111.203125 C 71.257812 111.203125 71.214844 111.210938 71.1875 111.222656 C 71.148438 111.222656 71.105469 111.246094 71.066406 111.285156 C 71.015625 111.324219 70.945312 111.371094 70.863281 111.425781 C 70.082031 112.074219 69.335938 112.621094 68.632812 113.066406 C 68.226562 113.308594 67.523438 113.699219 66.519531 114.238281 C 66.167969 114.386719 65.863281 114.558594 65.609375 114.746094 C 64.039062 115.703125 62.335938 116.1875 60.496094 116.203125 C 59.683594 116.246094 58.941406 115.960938 58.261719 115.351562 C 57.9375 115.003906 57.628906 114.644531 57.328125 114.28125 C 57.152344 114.0625 56.972656 113.828125 56.78125 113.570312 C 56.671875 113.355469 56.550781 113.140625 56.417969 112.925781 C 55.96875 111.996094 55.726562 110.988281 55.6875 109.910156 C 55.648438 109.824219 55.609375 109.71875 55.574219 109.59375 C 56.082031 109.664062 56.601562 109.472656 57.125 109.019531 C 57.601562 108.632812 57.914062 108.253906 58.058594 107.886719 C 58.21875 108.089844 58.386719 108.308594 58.566406 108.53125 C 60.042969 110.421875 61.570312 111.367188 63.152344 111.367188 C 65.492188 111.367188 67.8125 109.96875 70.113281 107.175781 C 70.84375 106.285156 71.519531 105.320312 72.144531 104.28125 C 72.628906 103.460938 72.875 103.015625 72.875 102.945312 C 72.875 102.878906 72.875 102.824219 72.875 102.785156 Z M 94.097656 93.859375 C 94.800781 94.816406 95.226562 95.6875 95.375 96.46875 C 95.59375 97.308594 95.59375 98.15625 95.375 99.019531 C 95.1875 99.84375 95.132812 100.523438 95.214844 101.066406 C 95.28125 101.589844 95.476562 102.703125 95.804688 104.40625 C 95.816406 104.605469 95.863281 104.808594 95.945312 105.011719 C 95.984375 105.335938 96.011719 105.679688 96.027344 106.042969 L 96.351562 108.25 L 96.351562 108.351562 C 96.351562 111.007812 96.285156 113.289062 96.148438 115.191406 C 96.011719 117.066406 95.929688 118.585938 95.90625 119.746094 C 95.90625 119.867188 95.90625 119.96875 95.90625 120.046875 C 95.851562 120.238281 95.816406 120.414062 95.804688 120.574219 C 95.761719 120.683594 95.667969 121.378906 95.519531 122.660156 C 95.449219 123.535156 95.289062 124.21875 95.03125 124.703125 C 94.9375 124.839844 94.828125 124.953125 94.707031 125.046875 C 93.609375 126.222656 92.320312 127.070312 90.832031 127.597656 C 89.871094 127.90625 88.855469 128.125 87.789062 128.246094 C 87.585938 128.273438 87.386719 128.285156 87.199219 128.285156 C 86.023438 128.351562 84.851562 128.25 83.6875 127.984375 C 83.28125 127.886719 82.910156 127.78125 82.570312 127.660156 C 82.371094 125.960938 82.03125 124.074219 81.558594 122.011719 C 80.8125 118.800781 80.003906 116.015625 79.121094 113.652344 C 78.769531 112.683594 78.167969 111.15625 77.316406 109.078125 C 76.503906 107.054688 75.949219 105.578125 75.652344 104.648438 C 74.910156 103 74.058594 101.609375 73.097656 100.476562 C 73.328125 100.382812 73.609375 100.242188 73.949219 100.054688 C 75.207031 99.40625 76.1875 98.777344 76.890625 98.171875 C 77.554688 99.046875 78.257812 99.953125 79 100.882812 C 81.9375 104.539062 84.1875 106.367188 85.757812 106.367188 C 86.71875 106.367188 87.441406 105.933594 87.929688 105.070312 C 87.941406 104.964844 87.992188 104.847656 88.070312 104.726562 C 88.34375 105.605469 88.726562 106.710938 89.230469 108.046875 C 89.808594 109.894531 90.121094 111.546875 90.160156 113.007812 C 90.296875 114.125 90.332031 115.953125 90.261719 118.488281 C 90.195312 120.851562 90.257812 122.660156 90.445312 123.914062 C 90.527344 124.101562 90.6875 124.277344 90.933594 124.441406 C 91.066406 124.546875 91.292969 124.683594 91.601562 124.847656 C 92.65625 123.578125 93.054688 122.410156 92.800781 121.34375 C 92.53125 120.15625 92.351562 118.707031 92.273438 116.992188 C 92.21875 115.050781 92.152344 113.578125 92.070312 112.582031 C 91.988281 110.894531 91.820312 109.457031 91.5625 108.269531 C 91.195312 106.785156 90.640625 105.46875 89.898438 104.324219 C 89.722656 104.203125 89.566406 104.03125 89.433594 103.816406 C 89.390625 103.777344 89.355469 103.734375 89.332031 103.695312 C 89.546875 103.816406 89.808594 103.945312 90.121094 104.082031 C 90.796875 104.308594 91.203125 104.421875 91.339844 104.421875 C 91.878906 104.421875 92.230469 104.128906 92.394531 103.535156 C 92.445312 103.25 92.476562 102.898438 92.476562 102.480469 C 92.476562 100.402344 91.636719 97.414062 89.957031 93.515625 C 89.742188 93.003906 89.5 92.570312 89.230469 92.21875 C 89.714844 92.207031 90.140625 92.207031 90.507812 92.21875 C 91.804688 92.300781 92.875 92.691406 93.710938 93.394531 C 93.835938 93.554688 93.960938 93.710938 94.097656 93.859375 Z M 97.144531 95.355469 C 98.101562 95.964844 99.023438 96.644531 99.902344 97.402344 C 102.203125 99.453125 103.953125 101.085938 105.15625 102.296875 C 106.253906 101.542969 107.625 100.597656 109.277344 99.464844 C 111.117188 98.238281 112.476562 97.320312 113.355469 96.714844 C 113.558594 96.632812 113.820312 96.402344 114.144531 96.023438 C 114.1875 95.957031 114.226562 95.890625 114.269531 95.820312 C 114.578125 95.472656 114.777344 95.257812 114.855469 95.175781 C 115.085938 94.945312 115.332031 94.792969 115.585938 94.710938 C 115.546875 94.871094 115.527344 95.019531 115.527344 95.15625 L 115.445312 95.882812 C 115.40625 96.4375 115.75 97.015625 116.480469 97.625 C 117.167969 98.21875 117.851562 98.359375 118.53125 98.046875 C 118.636719 97.96875 118.765625 97.894531 118.914062 97.828125 C 118.941406 98.097656 118.957031 98.371094 118.957031 98.65625 C 116.628906 101.003906 115.335938 102.257812 115.082031 102.421875 C 114.929688 102.527344 114.207031 103.035156 112.910156 103.9375 C 112.109375 104.585938 111.402344 105.085938 110.777344 105.4375 C 110.292969 105.652344 109.675781 106.078125 108.929688 106.710938 C 108.066406 107.441406 107.4375 107.917969 107.042969 108.148438 C 107.125 108.082031 107.242188 107.992188 107.390625 107.886719 C 107.09375 107.75 106.800781 107.609375 106.515625 107.460938 C 104.867188 106.460938 102.925781 105.308594 100.695312 104 C 99.328125 102.945312 98.441406 101.570312 98.035156 99.871094 C 97.789062 98.925781 97.535156 97.644531 97.261719 96.023438 C 97.234375 95.890625 97.195312 95.667969 97.144531 95.355469 " fill-opacity="1" fill-rule="evenodd"/><path fill="#cd6d49" d="M 146.898438 161.113281 C 148.683594 161.640625 150.460938 161.855469 152.234375 161.761719 C 152.316406 162.246094 152.371094 162.8125 152.394531 163.460938 C 152.21875 163.621094 152.039062 163.792969 151.847656 163.96875 C 150.523438 165.246094 149.667969 166.179688 149.292969 166.757812 C 149.15625 167.003906 148.8125 167.859375 148.257812 169.332031 C 148.242188 169.222656 148.230469 169.105469 148.214844 168.984375 L 148.054688 167.914062 C 148.054688 167.898438 148.054688 167.886719 148.054688 167.871094 C 147.511719 165.09375 147.140625 162.996094 146.9375 161.578125 C 146.925781 161.445312 146.910156 161.289062 146.898438 161.113281 Z M 149.910156 97.804688 C 150.660156 98.089844 151.46875 98.230469 152.335938 98.230469 C 153.238281 98.230469 154.078125 98.078125 154.863281 97.777344 C 154.878906 97.785156 154.894531 97.796875 154.914062 97.804688 L 154.914062 100.316406 C 154.914062 100.34375 154.914062 100.363281 154.914062 100.375 C 154.914062 100.429688 154.914062 100.484375 154.914062 100.539062 C 154.953125 100.699219 155.023438 100.871094 155.113281 101.042969 L 155.113281 101.066406 C 155.167969 101.160156 155.238281 101.269531 155.316406 101.386719 L 155.480469 101.609375 L 155.5 101.632812 L 155.5 101.652344 C 155.339844 101.90625 155.140625 102.144531 154.914062 102.359375 C 154.453125 101.683594 153.726562 101.171875 152.742188 100.820312 C 152.1875 100.632812 151.320312 100.355469 150.144531 99.992188 C 149.902344 99.882812 149.683594 99.777344 149.496094 99.667969 L 149.566406 99.324219 L 149.675781 98.820312 Z M 86.628906 93.007812 C 85.023438 93.199219 83.382812 94.304688 81.722656 96.328125 C 81.300781 96.179688 81.003906 96.050781 80.828125 95.945312 C 80.761719 95.90625 80.691406 95.871094 80.625 95.84375 C 79.976562 95.398438 79.683594 94.777344 79.753906 93.980469 C 79.753906 93.886719 79.753906 93.777344 79.753906 93.65625 L 79.660156 92.402344 L 79.621094 91.773438 C 80.71875 92.421875 81.953125 92.746094 83.324219 92.746094 C 84.5 92.746094 85.582031 92.507812 86.558594 92.027344 L 86.628906 93.007812 " fill-opacity="1" fill-rule="evenodd"/><path fill="#f9fdff" d="M 157.023438 102.644531 C 156.996094 102.695312 156.976562 102.746094 156.960938 102.785156 C 156.921875 102.796875 156.902344 102.8125 156.902344 102.824219 C 156.875 102.851562 156.847656 102.894531 156.820312 102.945312 C 156.78125 103 156.726562 103.070312 156.65625 103.148438 C 156.414062 103.445312 156.125 103.757812 155.785156 104.082031 C 155.621094 104.257812 155.175781 104.679688 154.445312 105.355469 C 153.769531 105.921875 153.132812 106.386719 152.539062 106.75 C 152.179688 106.972656 151.824219 107.15625 151.472656 107.308594 C 151.109375 107.46875 150.746094 107.59375 150.386719 107.683594 C 150.265625 107.386719 150.132812 107.015625 149.980469 106.570312 C 149.980469 106.554688 149.949219 106.414062 149.878906 106.144531 C 149.839844 105.957031 149.769531 105.71875 149.675781 105.4375 C 149.566406 105.679688 149.453125 105.914062 149.332031 106.144531 C 147.667969 109.421875 146.402344 111.910156 145.539062 113.613281 C 145.160156 113.289062 144.875 113.046875 144.683594 112.882812 C 145.023438 112.140625 145.476562 111.222656 146.046875 110.132812 L 147.566406 107.296875 C 147.851562 106.757812 148.082031 106.246094 148.257812 105.757812 C 148.433594 105.316406 148.554688 104.902344 148.621094 104.523438 C 148.515625 104.605469 148.398438 104.671875 148.277344 104.726562 C 148.15625 104.792969 148.039062 104.851562 147.921875 104.898438 C 147.722656 104.988281 147.53125 105.0625 147.34375 105.113281 C 147.167969 105.195312 146.992188 105.246094 146.816406 105.273438 C 146.789062 105.003906 146.804688 104.734375 146.855469 104.464844 C 146.925781 103.777344 147.140625 103.089844 147.503906 102.398438 C 147.503906 102.386719 147.503906 102.371094 147.503906 102.359375 L 149.675781 98.820312 L 149.566406 99.324219 L 148.84375 102.480469 C 148.835938 102.570312 148.828125 102.65625 148.824219 102.746094 C 148.808594 103.050781 148.84375 103.359375 148.925781 103.675781 C 148.980469 103.933594 149.101562 104.113281 149.292969 104.222656 C 149.390625 104.273438 149.535156 104.3125 149.738281 104.332031 C 149.84375 104.347656 149.964844 104.359375 150.105469 104.363281 C 150.738281 104.347656 151.429688 104.1875 152.171875 103.878906 C 152.621094 103.703125 153.253906 103.386719 154.078125 102.925781 C 154.390625 102.75 154.667969 102.5625 154.914062 102.359375 C 155.140625 102.144531 155.339844 101.90625 155.5 101.652344 L 155.5 101.632812 L 155.480469 101.609375 L 155.316406 101.386719 C 155.238281 101.269531 155.167969 101.160156 155.113281 101.066406 L 155.113281 101.042969 C 155.023438 100.871094 154.953125 100.699219 154.914062 100.539062 C 154.914062 100.484375 154.914062 100.429688 154.914062 100.375 C 154.914062 100.363281 154.914062 100.34375 154.914062 100.316406 L 154.914062 99.6875 C 155.113281 100.09375 155.285156 100.347656 155.417969 100.457031 C 155.664062 100.753906 155.941406 101.109375 156.25 101.53125 C 156.347656 101.636719 156.441406 101.773438 156.535156 101.933594 C 156.683594 102.136719 156.847656 102.371094 157.023438 102.644531 Z M 167.21875 114.847656 C 167.066406 115.144531 166.820312 115.503906 166.476562 115.921875 C 165.679688 115.355469 164.699219 114.613281 163.527344 113.695312 C 163.1875 113.421875 162.832031 113.140625 162.460938 112.84375 C 159.632812 110.605469 157.851562 109.015625 157.125 108.066406 C 157.078125 108.011719 157.039062 107.957031 157.003906 107.90625 C 157.019531 107.894531 157.035156 107.878906 157.054688 107.863281 C 157.101562 107.832031 157.152344 107.796875 157.207031 107.761719 L 157.386719 107.644531 C 157.496094 107.574219 157.589844 107.515625 157.671875 107.460938 C 157.726562 107.421875 157.765625 107.394531 157.792969 107.378906 C 158.894531 106.722656 160.023438 106.84375 161.171875 107.742188 C 161.183594 107.75 161.195312 107.757812 161.203125 107.761719 C 162.394531 108.667969 163.691406 109.828125 165.097656 111.246094 C 166.519531 112.660156 167.285156 113.613281 167.390625 114.097656 C 167.441406 114.277344 167.382812 114.527344 167.21875 114.847656 Z M 88.476562 99.324219 C 88.085938 99.566406 87.800781 99.777344 87.625 99.953125 C 87.410156 100.207031 87.234375 100.472656 87.097656 100.742188 L 86.875 101.167969 C 86.832031 101.21875 86.800781 101.269531 86.773438 101.308594 C 86.175781 102.253906 85.75 103.292969 85.492188 104.421875 C 83.261719 102.925781 80.679688 100.390625 77.742188 96.816406 C 77.691406 96.746094 77.628906 96.679688 77.5625 96.613281 C 77.589844 96.476562 77.632812 96.34375 77.703125 96.207031 C 78.039062 95.507812 78.5625 94.808594 79.265625 94.121094 C 79.386719 93.972656 79.550781 93.820312 79.753906 93.65625 C 79.753906 93.777344 79.753906 93.886719 79.753906 93.980469 C 79.683594 94.777344 79.976562 95.398438 80.625 95.84375 C 80.691406 95.871094 80.761719 95.90625 80.828125 95.945312 C 81.003906 96.050781 81.300781 96.179688 81.722656 96.328125 C 82.21875 96.492188 82.890625 96.671875 83.730469 96.875 C 84.417969 97.09375 85.183594 97.441406 86.023438 97.929688 L 88.011719 99.183594 C 88.050781 98.683594 88.03125 98.128906 87.949219 97.523438 C 87.949219 97.171875 87.839844 96.625 87.625 95.882812 L 86.628906 93.007812 L 86.558594 92.027344 C 86.589844 92.011719 86.621094 91.996094 86.652344 91.976562 C 87.789062 92.238281 88.597656 92.667969 89.085938 93.273438 C 89.289062 93.621094 89.4375 93.941406 89.535156 94.222656 C 90.074219 95.464844 90.539062 96.691406 90.933594 97.90625 C 91.417969 99.445312 91.664062 100.875 91.664062 102.199219 C 90.445312 101.050781 89.582031 100.242188 89.066406 99.769531 C 88.824219 99.539062 88.625 99.390625 88.476562 99.324219 Z M 58.058594 107.886719 C 58.140625 107.6875 58.175781 107.492188 58.160156 107.296875 L 58.058594 106.570312 C 58.058594 106.421875 58.046875 106.265625 58.019531 106.105469 C 58.019531 105.941406 58 105.773438 57.960938 105.597656 C 57.933594 105.386719 57.90625 105.179688 57.878906 104.980469 C 58.058594 105.058594 58.226562 105.179688 58.386719 105.335938 C 58.558594 105.511719 58.730469 105.773438 58.894531 106.125 C 59.433594 107.203125 60.285156 107.851562 61.449219 108.066406 C 61.558594 108.121094 61.660156 108.160156 61.753906 108.1875 C 63.347656 108.039062 64.925781 107.367188 66.480469 106.164062 C 66.589844 106.03125 67.152344 105.371094 68.164062 104.183594 C 68.691406 103.507812 69.222656 102.972656 69.75 102.582031 C 69.882812 102.515625 70.003906 102.445312 70.113281 102.378906 C 70.410156 102.109375 70.75 101.839844 71.128906 101.570312 C 71.84375 101.839844 72.425781 102.246094 72.875 102.785156 C 72.875 102.824219 72.875 102.878906 72.875 102.945312 C 72.875 103.015625 72.628906 103.460938 72.144531 104.28125 C 71.519531 105.320312 70.84375 106.285156 70.113281 107.175781 C 67.8125 109.96875 65.492188 111.367188 63.152344 111.367188 C 61.570312 111.367188 60.042969 110.421875 58.566406 108.53125 C 58.386719 108.308594 58.21875 108.089844 58.058594 107.886719 " fill-opacity="1" fill-rule="evenodd"/><path fill="#2f2f50" d="M 151.542969 128.101562 L 151.605469 128.589844 C 151.535156 128.628906 151.476562 128.675781 151.421875 128.730469 C 151.375 128.78125 151.328125 128.832031 151.289062 128.882812 C 150.914062 128.859375 150.535156 128.824219 150.144531 128.773438 C 148.007812 128.460938 146.242188 127.785156 144.847656 126.75 C 143.859375 126.035156 143.269531 125.285156 143.082031 124.5 C 142.972656 124.164062 142.941406 123.824219 142.980469 123.488281 C 143.050781 123.152344 143.152344 122.847656 143.285156 122.578125 C 143.3125 122.765625 143.347656 122.988281 143.386719 123.246094 C 144.441406 125.285156 147.058594 126.574219 151.238281 127.113281 C 151.578125 127.125 151.894531 127.132812 152.195312 127.132812 C 152.53125 127.125 152.851562 127.101562 153.15625 127.0625 C 152.472656 127.363281 151.9375 127.699219 151.542969 128.0625 Z M 156.191406 125.9375 C 155.964844 126.035156 155.703125 126.136719 155.398438 126.25 C 155.945312 125.863281 156.367188 125.34375 156.65625 124.703125 C 156.78125 124.136719 156.691406 123.691406 156.394531 123.367188 C 156.351562 123.03125 156.351562 122.613281 156.394531 122.113281 C 156.476562 122.195312 156.554688 122.261719 156.636719 122.316406 C 156.746094 122.398438 156.851562 122.480469 156.953125 122.570312 C 156.980469 122.6875 157.015625 122.820312 157.0625 122.960938 C 157.132812 123.136719 157.238281 123.433594 157.386719 123.851562 C 157.644531 124.566406 157.53125 125.121094 157.042969 125.511719 C 156.90625 125.609375 156.726562 125.710938 156.496094 125.816406 C 156.402344 125.84375 156.300781 125.882812 156.191406 125.9375 " fill-opacity="1" fill-rule="evenodd"/><path fill="#cb1469" d="M 157.917969 130.472656 C 157.261719 131.195312 156.511719 132.019531 155.664062 132.941406 C 153.863281 134.882812 151.828125 137.050781 149.554688 139.4375 C 148.691406 140.328125 147.804688 141.253906 146.898438 142.210938 C 145.609375 143.558594 144.441406 145.144531 143.386719 146.964844 C 142.496094 148.558594 141.703125 150.332031 141.011719 152.289062 C 140.972656 152.34375 140.945312 152.402344 140.929688 152.472656 C 141.121094 149.613281 141.195312 146.703125 141.15625 143.75 C 141.128906 139.714844 140.890625 135.589844 140.445312 131.382812 C 140.28125 128.941406 141.203125 125.898438 143.203125 122.253906 C 143.21875 122.214844 143.238281 122.171875 143.265625 122.132812 C 143.265625 122.28125 143.269531 122.429688 143.285156 122.578125 C 143.152344 122.847656 143.050781 123.152344 142.980469 123.488281 C 142.941406 123.824219 142.972656 124.164062 143.082031 124.5 C 143.269531 125.285156 143.859375 126.035156 144.847656 126.75 C 146.242188 127.785156 148.007812 128.460938 150.144531 128.773438 C 150.535156 128.824219 150.914062 128.859375 151.289062 128.882812 C 151.152344 129.046875 151.050781 129.234375 150.976562 129.4375 C 151.097656 129.453125 151.199219 129.464844 151.28125 129.480469 C 151.535156 129.535156 151.738281 129.5625 151.890625 129.5625 L 151.847656 129.761719 L 151.789062 130.167969 C 152.355469 130.25 153.066406 130.203125 153.917969 130.027344 C 154.863281 129.835938 155.574219 129.710938 156.050781 129.640625 C 155.738281 129.859375 155.210938 130.007812 154.464844 130.085938 C 153.722656 130.152344 153.203125 130.285156 152.902344 130.472656 C 153.785156 130.941406 154.953125 131.03125 156.414062 130.734375 C 156.46875 130.734375 156.605469 130.742188 156.820312 130.753906 C 157.042969 130.753906 157.40625 130.660156 157.917969 130.472656 " fill-opacity="1" fill-rule="evenodd"/><path fill="#ee208d" d="M 158.464844 160.019531 C 156.378906 161.03125 154.304688 161.613281 152.234375 161.761719 C 150.460938 161.855469 148.683594 161.640625 146.898438 161.113281 C 144.746094 160.480469 142.597656 159.367188 140.445312 157.773438 C 140.648438 156.019531 140.808594 154.253906 140.929688 152.472656 C 140.945312 152.402344 140.972656 152.34375 141.011719 152.289062 C 141.703125 150.332031 142.496094 148.558594 143.386719 146.964844 C 144.441406 145.144531 145.609375 143.558594 146.898438 142.210938 C 147.804688 141.253906 148.691406 140.328125 149.554688 139.4375 C 151.828125 137.050781 153.863281 134.882812 155.664062 132.941406 C 156.511719 132.019531 157.261719 131.195312 157.917969 130.472656 C 157.96875 130.453125 158.023438 130.433594 158.078125 130.410156 C 158.589844 130.234375 159.003906 130.082031 159.316406 129.945312 C 159.371094 129.929688 159.402344 129.917969 159.417969 129.90625 L 159.4375 129.90625 C 159.777344 129.757812 159.984375 129.621094 160.066406 129.5 C 160.132812 129.414062 160.570312 129.171875 161.367188 128.773438 C 161.988281 130.234375 162.238281 131.660156 162.117188 133.042969 L 162.117188 157.773438 C 160.898438 158.679688 159.679688 159.425781 158.464844 160.019531 Z M 88.722656 102.199219 C 88.328125 102.765625 87.863281 103.089844 87.320312 103.167969 C 86.699219 102.75 86.515625 102.132812 86.773438 101.308594 C 86.800781 101.269531 86.832031 101.21875 86.875 101.167969 L 87.097656 100.742188 C 87.234375 100.472656 87.410156 100.207031 87.625 99.953125 C 87.800781 99.777344 88.085938 99.566406 88.476562 99.324219 C 88.558594 99.917969 88.632812 100.808594 88.699219 101.996094 C 88.714844 102.0625 88.722656 102.132812 88.722656 102.199219 " fill-opacity="1" fill-rule="evenodd"/><path fill="#831d4b" d="M 152.679688 173.378906 C 152.597656 173.472656 152.546875 173.53125 152.519531 173.558594 C 152.558594 173.492188 152.613281 173.410156 152.679688 173.316406 C 152.679688 173.332031 152.679688 173.351562 152.679688 173.378906 Z M 147.6875 186.554688 C 147.796875 186.40625 147.910156 186.261719 148.035156 186.128906 C 148.222656 185.75 148.398438 185.425781 148.5625 185.15625 C 148.667969 184.980469 148.917969 184.691406 149.3125 184.285156 C 149.554688 183.921875 149.855469 183.476562 150.207031 182.949219 C 150.136719 183.097656 150.0625 183.300781 149.980469 183.558594 C 149.953125 183.679688 149.929688 183.800781 149.902344 183.921875 C 149.726562 184.476562 149.609375 184.832031 149.554688 184.996094 C 149.609375 185.023438 149.644531 185.054688 149.65625 185.097656 C 149.726562 185.164062 149.832031 185.296875 149.980469 185.5 C 150.308594 185.890625 150.792969 186.085938 151.441406 186.085938 C 152.59375 186.085938 153.625 185.25 154.546875 183.578125 C 154.992188 182.742188 155.453125 181.601562 155.925781 180.15625 C 156.050781 179.765625 156.148438 179.261719 156.230469 178.640625 C 156.230469 178.585938 156.265625 178.160156 156.332031 177.367188 C 156.304688 177.609375 156.292969 177.390625 156.292969 176.71875 C 156.292969 176.554688 156.285156 176.433594 156.273438 176.355469 C 156.3125 176.207031 156.367188 175.988281 156.433594 175.707031 C 156.449219 175.664062 156.453125 175.625 156.453125 175.582031 C 157.074219 175.8125 157.496094 175.996094 157.714844 176.132812 C 158.121094 176.398438 158.339844 176.75 158.382812 177.183594 C 158.394531 177.789062 158.28125 178.363281 158.035156 178.902344 C 157.984375 179.039062 157.917969 179.167969 157.832031 179.289062 C 157.792969 179.515625 157.726562 179.800781 157.632812 180.136719 C 157.375 181.015625 157.238281 181.535156 157.226562 181.695312 C 157.199219 181.953125 157.210938 182.550781 157.265625 183.496094 C 157.238281 184.320312 157.03125 184.730469 156.636719 184.730469 C 156.40625 184.730469 156.230469 184.675781 156.109375 184.570312 L 155.785156 184.53125 C 155.769531 184.410156 155.796875 184.105469 155.867188 183.621094 C 155.894531 183.320312 155.894531 183.070312 155.867188 182.871094 C 155.648438 183.300781 155.46875 183.746094 155.316406 184.207031 C 155.238281 184.421875 155.15625 184.65625 155.074219 184.914062 C 155.046875 184.941406 155.035156 184.972656 155.035156 185.015625 C 154.898438 185.664062 154.8125 186.144531 154.769531 186.453125 C 154.648438 187.003906 154.558594 187.363281 154.507812 187.523438 C 154.34375 187.902344 154.128906 188.171875 153.859375 188.335938 C 153.113281 188.808594 152.207031 189.148438 151.136719 189.367188 C 149.675781 189.785156 148.59375 189.859375 147.890625 189.589844 C 146.554688 189.15625 146.484375 188.144531 147.6875 186.554688 " fill-opacity="1" fill-rule="evenodd"/><path fill="#441526" d="M 149.902344 183.921875 C 149.929688 183.800781 149.953125 183.679688 149.980469 183.558594 C 150.0625 183.300781 150.136719 183.097656 150.207031 182.949219 C 149.855469 183.476562 149.554688 183.921875 149.3125 184.285156 C 148.917969 184.691406 148.667969 184.980469 148.5625 185.15625 C 148.398438 185.425781 148.222656 185.75 148.035156 186.128906 C 147.910156 186.261719 147.796875 186.40625 147.6875 186.554688 C 147.527344 186.566406 147.324219 186.574219 147.078125 186.574219 L 144.035156 186.433594 C 142.574219 186.242188 142.574219 185.46875 144.035156 184.105469 C 144.671875 183.539062 145.1875 183.050781 145.578125 182.648438 C 145.984375 182.214844 146.296875 181.851562 146.511719 181.554688 C 146.714844 181.257812 147.085938 180.851562 147.628906 180.339844 C 147.613281 180.421875 147.59375 180.503906 147.566406 180.582031 C 147.445312 181.121094 147.492188 181.394531 147.707031 181.394531 C 149.375 181.394531 150.683594 180.109375 151.644531 177.546875 C 151.957031 176.710938 152.214844 175.785156 152.417969 174.773438 C 152.445312 174.667969 152.472656 174.558594 152.496094 174.449219 C 152.144531 176.542969 151.550781 179.046875 150.710938 181.960938 C 150.644531 182.457031 150.414062 183.039062 150.023438 183.699219 C 149.980469 183.742188 149.941406 183.816406 149.902344 183.921875 " fill-opacity="1" fill-rule="evenodd"/><path fill="#6c341f" d="M 89.957031 81.332031 C 89.808594 81.296875 89.648438 81.277344 89.484375 81.269531 C 89.441406 81.214844 89.402344 81.15625 89.359375 81.097656 C 89.371094 81.128906 89.382812 81.160156 89.390625 81.191406 C 89.09375 80.757812 88.523438 80.199219 87.6875 79.511719 C 86.832031 78.820312 85.847656 78.527344 84.722656 78.617188 C 83.613281 78.6875 82.253906 79.265625 80.644531 80.359375 C 78.953125 81.507812 78.109375 82.554688 78.109375 83.496094 C 78.109375 83.792969 78.257812 84.359375 78.554688 85.195312 C 78.851562 86.03125 79 86.601562 79 86.898438 C 79 87.289062 78.941406 87.597656 78.816406 87.828125 C 78.726562 88.058594 78.359375 87.964844 77.722656 87.542969 C 77.222656 87.246094 76.734375 86.648438 76.261719 85.742188 C 76.121094 85.472656 76.007812 85.199219 75.917969 84.925781 C 75.628906 85.046875 75.363281 85.222656 75.125 85.460938 C 74.652344 85.945312 74.414062 86.527344 74.414062 87.203125 C 74.414062 87.875 74.652344 88.449219 75.125 88.921875 C 75.597656 89.40625 76.175781 89.648438 76.851562 89.648438 C 76.992188 89.648438 77.132812 89.640625 77.265625 89.621094 C 77.503906 89.953125 77.78125 90.273438 78.085938 90.582031 C 78.566406 91.054688 79.074219 91.453125 79.621094 91.773438 L 79.660156 92.402344 C 79.632812 92.394531 79.601562 92.390625 79.570312 92.382812 C 77.160156 91.871094 75.292969 90.59375 73.96875 88.558594 C 72.617188 86.519531 72.195312 84.300781 72.710938 81.898438 C 73.1875 79.683594 74.320312 77.917969 76.109375 76.59375 C 76.070312 76.535156 76.035156 76.476562 75.996094 76.414062 C 75.46875 75.496094 75.511719 74.792969 76.121094 74.308594 C 76.714844 73.796875 77.703125 73.640625 79.082031 73.84375 C 80.210938 74.019531 81.328125 74.382812 82.429688 74.9375 C 82.699219 74.972656 82.96875 75.019531 83.242188 75.078125 C 85.625 75.589844 87.488281 76.867188 88.84375 78.902344 C 89.351562 79.691406 89.722656 80.5 89.957031 81.332031 " fill-opacity="1" fill-rule="evenodd"/><path fill="#ffffff" d="M 147.140625 93.71875 C 146.421875 92.773438 146.179688 91.78125 146.410156 90.742188 L 155.460938 92.886719 C 155.203125 93.898438 154.546875 94.667969 153.492188 95.195312 C 152.4375 95.722656 151.285156 95.84375 150.042969 95.558594 C 148.8125 95.277344 147.84375 94.664062 147.140625 93.71875 Z M 81.050781 87.496094 C 80.898438 87.222656 80.78125 86.929688 80.707031 86.613281 L 90.058594 84.429688 C 90.109375 84.648438 90.140625 84.867188 90.152344 85.085938 C 90.175781 85.742188 90.003906 86.382812 89.632812 87 C 89.539062 87.152344 89.429688 87.3125 89.308594 87.464844 C 88.625 88.390625 87.6875 89.011719 86.488281 89.335938 C 86.429688 89.355469 86.367188 89.371094 86.304688 89.386719 C 85.035156 89.683594 83.84375 89.5625 82.734375 89.023438 C 81.964844 88.632812 81.40625 88.125 81.050781 87.496094 " fill-opacity="1" fill-rule="evenodd"/><g clip-path="url(#d64562e4c1)"><path fill="#f13ea7" d="M 89.332031 103.695312 C 89.355469 103.734375 89.390625 103.777344 89.433594 103.816406 C 89.566406 104.03125 89.722656 104.203125 89.898438 104.324219 C 90.640625 105.46875 91.195312 106.785156 91.5625 108.269531 C 91.820312 109.457031 91.988281 110.894531 92.070312 112.582031 C 92.152344 113.578125 92.21875 115.050781 92.273438 116.992188 C 92.351562 118.707031 92.53125 120.15625 92.800781 121.34375 C 93.054688 122.410156 92.65625 123.578125 91.601562 124.847656 C 91.292969 124.683594 91.066406 124.546875 90.933594 124.441406 C 90.6875 124.277344 90.527344 124.101562 90.445312 123.914062 C 90.257812 122.660156 90.195312 120.851562 90.261719 118.488281 C 90.332031 115.953125 90.296875 114.125 90.160156 113.007812 C 90.121094 111.546875 89.808594 109.894531 89.230469 108.046875 C 88.726562 106.710938 88.34375 105.605469 88.070312 104.726562 C 87.839844 104.203125 87.679688 103.730469 87.585938 103.308594 C 87.503906 103.257812 87.414062 103.210938 87.320312 103.167969 C 87.863281 103.089844 88.328125 102.765625 88.722656 102.199219 C 88.84375 102.804688 89.046875 103.304688 89.332031 103.695312 Z M 151.320312 32.636719 C 152.09375 31.828125 153.101562 31.429688 154.34375 31.445312 C 155.871094 31.484375 156.886719 31.988281 157.386719 32.960938 C 157.902344 34 158.152344 35.519531 158.136719 37.515625 L 156.71875 53.949219 C 156.609375 55.527344 156.328125 56.699219 155.867188 57.46875 C 155.433594 58.292969 154.757812 58.699219 153.835938 58.683594 C 152.863281 58.683594 152.234375 58.292969 151.949219 57.511719 C 151.636719 56.753906 151.355469 55.527344 151.097656 53.828125 L 150.121094 35.996094 C 150.136719 34.511719 150.535156 33.394531 151.320312 32.636719 Z M 131.757812 53.097656 C 131.488281 52.25 131.515625 51.535156 131.839844 50.953125 C 132.125 50.332031 132.625 49.914062 133.34375 49.699219 C 134.222656 49.441406 134.898438 49.542969 135.371094 50 C 135.859375 50.5 136.285156 51.324219 136.648438 52.472656 L 138.882812 62.1875 C 139.113281 63.117188 139.171875 63.851562 139.0625 64.390625 C 138.96875 64.929688 138.660156 65.28125 138.132812 65.445312 C 137.578125 65.632812 137.136719 65.53125 136.8125 65.140625 C 136.5 64.75 136.109375 64.089844 135.636719 63.15625 Z M 139.046875 68.074219 C 139.667969 67.886719 140.269531 67.941406 140.851562 68.238281 C 141.472656 68.535156 141.878906 68.988281 142.066406 69.59375 C 142.324219 70.335938 142.261719 70.96875 141.886719 71.496094 C 141.5625 72.007812 141.085938 72.359375 140.464844 72.546875 C 139.855469 72.75 139.261719 72.738281 138.679688 72.507812 C 138.085938 72.25 137.671875 71.765625 137.441406 71.050781 C 137.253906 70.441406 137.3125 69.851562 137.625 69.269531 C 137.921875 68.675781 138.394531 68.277344 139.046875 68.074219 Z M 153.960938 63.277344 C 155.054688 63.292969 155.980469 63.683594 156.738281 64.453125 C 157.550781 65.25 157.957031 66.179688 157.957031 67.246094 C 157.996094 68.515625 157.578125 69.472656 156.699219 70.117188 C 155.925781 70.753906 154.992188 71.0625 153.898438 71.050781 C 152.828125 71.050781 151.910156 70.734375 151.136719 70.101562 C 150.324219 69.382812 149.929688 68.414062 149.941406 67.183594 C 149.941406 66.117188 150.339844 65.203125 151.136719 64.433594 C 151.894531 63.664062 152.835938 63.277344 153.960938 63.277344 Z M 174.839844 51.5625 C 175.691406 51.910156 176.160156 52.425781 176.238281 53.097656 C 176.292969 53.785156 176.097656 54.691406 175.652344 55.8125 L 171.269531 64.777344 C 170.863281 65.625 170.449219 66.226562 170.03125 66.578125 C 169.597656 66.941406 169.125 67.023438 168.609375 66.820312 C 168.070312 66.605469 167.796875 66.246094 167.796875 65.75 C 167.785156 65.25 167.890625 64.488281 168.121094 63.460938 L 171.46875 53.21875 C 171.796875 52.398438 172.269531 51.851562 172.890625 51.582031 C 173.488281 51.296875 174.136719 51.289062 174.839844 51.5625 Z M 164.59375 72.648438 C 164.292969 72.082031 164.28125 71.449219 164.550781 70.746094 C 164.792969 70.152344 165.222656 69.714844 165.832031 69.429688 C 166.425781 69.1875 167.039062 69.1875 167.675781 69.429688 C 168.285156 69.675781 168.71875 70.09375 168.976562 70.6875 C 169.273438 71.304688 169.296875 71.914062 169.054688 72.507812 C 168.8125 73.25 168.367188 73.707031 167.714844 73.882812 C 167.148438 74.058594 166.558594 74.027344 165.949219 73.78125 C 165.355469 73.554688 164.902344 73.175781 164.59375 72.648438 " fill-opacity="1" fill-rule="evenodd"/></g><path fill="#2a3c8d" d="M 75.855469 182.871094 C 75.800781 182.871094 75.742188 182.871094 75.671875 182.871094 C 75.320312 182.746094 75.089844 182.652344 74.984375 182.585938 C 74.738281 182.449219 74.597656 182.269531 74.558594 182.039062 C 74.464844 181.21875 74.484375 180.082031 74.617188 178.640625 C 74.792969 177.019531 74.871094 175.875 74.839844 175.199219 C 74.691406 173.082031 74.589844 171.503906 74.535156 170.464844 C 74.402344 168.574219 74.332031 166.96875 74.332031 165.644531 C 74.332031 161.992188 74.800781 158.828125 75.734375 156.15625 C 76.371094 153.617188 76.722656 150.40625 76.789062 146.519531 C 76.722656 142.191406 76.742188 138.945312 76.851562 136.785156 C 76.621094 134.167969 76.703125 131.671875 77.09375 129.296875 C 77.429688 127.246094 78.007812 125.34375 78.816406 123.589844 C 78.816406 124.210938 78.832031 124.664062 78.859375 124.945312 C 79.035156 125.539062 79.394531 125.984375 79.933594 126.28125 C 79.960938 126.324219 79.996094 126.34375 80.035156 126.34375 C 80.035156 126.355469 80.070312 126.382812 80.136719 126.425781 L 80.179688 126.503906 C 80.230469 126.53125 80.300781 126.566406 80.382812 126.605469 L 80.441406 126.667969 C 80.484375 126.707031 80.53125 126.734375 80.585938 126.75 C 80.921875 126.9375 81.246094 127.105469 81.558594 127.253906 C 81.871094 127.386719 82.207031 127.523438 82.570312 127.660156 C 82.910156 127.78125 83.28125 127.886719 83.6875 127.984375 C 84.851562 128.25 86.023438 128.351562 87.199219 128.285156 C 87.199219 128.488281 87.199219 128.699219 87.199219 128.914062 C 87.199219 134.445312 86.550781 139.53125 85.25 144.175781 C 85.035156 144.996094 84.222656 147.546875 82.816406 151.824219 C 81.773438 154.941406 81.089844 157.511719 80.765625 159.535156 C 79.941406 164.457031 79.570312 171.960938 79.652344 182.039062 C 79.652344 182.335938 79.652344 182.648438 79.652344 182.972656 C 79.296875 183.105469 78.886719 183.171875 78.414062 183.171875 L 77.90625 183.171875 C 77.714844 183.171875 77.539062 183.144531 77.378906 183.09375 L 77.316406 183.09375 C 76.855469 183.078125 76.371094 183.003906 75.855469 182.871094 " fill-opacity="1" fill-rule="evenodd"/><path fill="#192341" d="M 92.191406 171.679688 C 91.949219 171.71875 91.691406 171.765625 91.417969 171.820312 C 91.367188 171.820312 91.316406 171.820312 91.277344 171.820312 C 91.117188 171.820312 90.925781 171.820312 90.710938 171.820312 C 88.828125 171.875 87.253906 171.328125 85.980469 170.179688 C 85.96875 170.167969 85.960938 170.140625 85.960938 170.097656 C 85.609375 169.628906 85.414062 169.019531 85.375 168.277344 C 85.375 168.265625 85.375 168.230469 85.375 168.175781 C 85.332031 167.757812 85.359375 167.136719 85.453125 166.316406 C 85.601562 164.898438 85.59375 163.199219 85.433594 161.214844 C 85.351562 160.5 85.289062 159.8125 85.25 159.152344 C 85.15625 157.9375 85.074219 156.9375 85.007812 156.15625 C 85.914062 153.753906 86.828125 151.222656 87.746094 148.566406 C 90.003906 142.007812 91.136719 136.089844 91.136719 130.816406 C 91.136719 129.84375 91.035156 128.773438 90.832031 127.597656 C 92.320312 127.070312 93.609375 126.222656 94.707031 125.046875 C 94.828125 125.910156 95.050781 127.089844 95.375 128.589844 C 95.929688 131.234375 96.207031 133.332031 96.207031 134.882812 C 96.207031 137.703125 95.601562 141.117188 94.382812 145.125 C 93.164062 149.117188 92.554688 152.203125 92.554688 154.375 C 92.554688 154.414062 92.664062 158.089844 92.882812 165.402344 C 92.785156 167.929688 92.554688 170.019531 92.191406 171.679688 " fill-opacity="1" fill-rule="evenodd"/><path fill="#3c50ab" d="M 90.832031 127.597656 C 91.035156 128.773438 91.136719 129.84375 91.136719 130.816406 C 91.136719 136.089844 90.003906 142.007812 87.746094 148.566406 C 86.828125 151.222656 85.914062 153.753906 85.007812 156.15625 L 85.007812 156.09375 C 84.765625 156.484375 84.542969 157.050781 84.339844 157.792969 C 84.109375 158.699219 83.933594 159.304688 83.808594 159.617188 C 83.148438 161.03125 82.660156 162.65625 82.347656 164.492188 C 82.132812 165.921875 81.984375 167.625 81.902344 169.59375 C 81.890625 170.765625 81.882812 172.515625 81.882812 174.835938 C 81.839844 176.886719 81.734375 178.59375 81.558594 179.957031 C 81.636719 180.953125 81.429688 181.683594 80.929688 182.140625 C 80.5625 182.507812 80.136719 182.78125 79.652344 182.972656 C 79.652344 182.648438 79.652344 182.335938 79.652344 182.039062 C 79.570312 171.960938 79.941406 164.457031 80.765625 159.535156 C 81.089844 157.511719 81.773438 154.941406 82.816406 151.824219 C 84.222656 147.546875 85.035156 144.996094 85.25 144.175781 C 86.550781 139.53125 87.199219 134.445312 87.199219 128.914062 C 87.199219 128.699219 87.199219 128.488281 87.199219 128.285156 C 87.386719 128.285156 87.585938 128.273438 87.789062 128.246094 C 88.855469 128.125 89.871094 127.90625 90.832031 127.597656 Z M 95.214844 169.796875 C 94.929688 170.171875 94.613281 170.503906 94.261719 170.789062 C 93.664062 171.207031 92.976562 171.503906 92.191406 171.679688 C 92.554688 170.019531 92.785156 167.929688 92.882812 165.402344 C 92.664062 158.089844 92.554688 154.414062 92.554688 154.375 C 92.554688 152.203125 93.164062 149.117188 94.382812 145.125 C 95.601562 141.117188 96.207031 137.703125 96.207031 134.882812 C 96.207031 133.332031 95.929688 131.234375 95.375 128.589844 C 95.050781 127.089844 94.828125 125.910156 94.707031 125.046875 C 94.828125 124.953125 94.9375 124.839844 95.03125 124.703125 C 95.289062 124.21875 95.449219 123.535156 95.519531 122.660156 C 95.667969 121.378906 95.761719 120.683594 95.804688 120.574219 C 95.816406 120.414062 95.851562 120.238281 95.90625 120.046875 C 96.148438 120.535156 96.230469 121.214844 96.148438 122.09375 C 96.066406 122.820312 96.027344 123.253906 96.027344 123.386719 C 96.027344 123.875 96.109375 124.277344 96.269531 124.601562 C 97.445312 127.855469 98.191406 131.578125 98.5 135.773438 C 98.5 137.351562 98.296875 139.148438 97.890625 141.15625 C 97.742188 141.726562 97.351562 143.472656 96.714844 146.398438 C 96.335938 148.53125 95.769531 150.269531 95.011719 151.621094 C 94.792969 153.199219 94.71875 155.417969 94.789062 158.28125 C 94.871094 161.355469 94.84375 163.59375 94.707031 165 C 94.652344 165.484375 94.761719 166.300781 95.03125 167.449219 C 95.261719 168.515625 95.324219 169.296875 95.214844 169.796875 " fill-opacity="1" fill-rule="evenodd"/><path fill="#4a1b14" d="M 80.585938 192.523438 C 80.355469 192.445312 80.136719 192.375 79.933594 192.320312 C 78.648438 191.929688 77.742188 191.214844 77.214844 190.175781 C 76.933594 189.21875 76.65625 188.011719 76.382812 186.554688 C 76.097656 184.988281 75.882812 183.808594 75.734375 183.011719 C 75.761719 182.984375 75.800781 182.945312 75.855469 182.890625 L 75.855469 182.871094 C 76.371094 183.003906 76.855469 183.078125 77.316406 183.09375 L 77.378906 183.09375 C 77.539062 183.144531 77.714844 183.171875 77.90625 183.171875 L 78.414062 183.171875 C 78.886719 183.171875 79.296875 183.105469 79.652344 182.972656 C 80.136719 182.78125 80.5625 182.507812 80.929688 182.140625 C 81.089844 182.585938 81.308594 183.105469 81.578125 183.699219 C 81.292969 183.984375 80.847656 184.28125 80.238281 184.589844 C 78.941406 185.277344 78.289062 185.890625 78.289062 186.433594 C 78.289062 188.386719 79.054688 190.417969 80.585938 192.523438 Z M 85.980469 170.179688 C 87.253906 171.328125 88.828125 171.875 90.710938 171.820312 C 90.925781 171.820312 91.117188 171.820312 91.277344 171.820312 C 91.316406 171.820312 91.367188 171.820312 91.417969 171.820312 C 91.691406 171.765625 91.949219 171.71875 92.191406 171.679688 C 92.976562 171.503906 93.664062 171.207031 94.261719 170.789062 C 94.613281 170.503906 94.929688 170.171875 95.214844 169.796875 C 95.214844 169.851562 95.222656 169.878906 95.234375 169.878906 C 95.492188 170.023438 95.796875 170.167969 96.148438 170.300781 L 96.207031 170.992188 C 96.207031 171.53125 95.574219 172.269531 94.300781 173.214844 C 95.046875 173.6875 96.019531 174.140625 97.222656 174.570312 C 98.777344 175.097656 100.28125 175.359375 101.726562 175.359375 C 102.351562 175.359375 102.925781 175.359375 103.453125 175.359375 C 103.453125 175.484375 103.445312 175.589844 103.433594 175.683594 C 102.566406 176.15625 101.625 176.359375 100.609375 176.292969 C 99.839844 176.292969 98.902344 176.125 97.789062 175.785156 C 97.167969 175.625 96.242188 175.328125 95.011719 174.894531 C 93.875 174.546875 92.921875 174.355469 92.152344 174.328125 C 91.824219 174.273438 91.292969 174.242188 90.546875 174.230469 C 89.800781 174.1875 89.242188 174.148438 88.863281 174.105469 C 87.589844 173.890625 86.679688 173.390625 86.125 172.609375 C 85.878906 172.269531 85.730469 171.875 85.679688 171.414062 C 85.679688 170.996094 85.777344 170.585938 85.980469 170.179688 " fill-opacity="1" fill-rule="evenodd"/><path fill="#76311c" d="M 75.671875 182.871094 C 75.742188 182.871094 75.800781 182.871094 75.855469 182.871094 L 75.855469 182.890625 C 75.800781 182.945312 75.761719 182.984375 75.734375 183.011719 C 75.695312 182.929688 75.671875 182.882812 75.671875 182.871094 Z M 84.460938 190.703125 C 84.5 191.160156 84.433594 191.53125 84.257812 191.816406 C 84.039062 192.164062 83.734375 192.375 83.34375 192.445312 C 82.640625 192.632812 81.941406 192.691406 81.253906 192.625 C 81.039062 192.597656 80.8125 192.5625 80.585938 192.523438 C 79.054688 190.417969 78.289062 188.386719 78.289062 186.433594 C 78.289062 185.890625 78.941406 185.277344 80.238281 184.589844 C 80.847656 184.28125 81.292969 183.984375 81.578125 183.699219 C 81.699219 183.886719 81.808594 184.058594 81.902344 184.207031 C 82.160156 184.675781 82.53125 185.378906 83.019531 186.308594 C 83.898438 187.996094 84.378906 189.460938 84.460938 190.703125 Z M 103.453125 175.359375 C 102.925781 175.359375 102.351562 175.359375 101.726562 175.359375 C 100.28125 175.359375 98.777344 175.097656 97.222656 174.570312 C 96.019531 174.140625 95.046875 173.6875 94.300781 173.214844 C 95.574219 172.269531 96.207031 171.53125 96.207031 170.992188 L 96.148438 170.300781 C 96.472656 170.4375 96.804688 170.570312 97.144531 170.707031 C 98.089844 171.003906 98.765625 171.238281 99.171875 171.414062 C 100.875 172.019531 102.105469 172.722656 102.863281 173.519531 C 103.339844 173.910156 103.535156 174.523438 103.453125 175.359375 " fill-opacity="1" fill-rule="evenodd"/><g clip-path="url(#1d8f953b54)"><path fill="#232121" d="M 77.214844 190.175781 C 77.742188 191.214844 78.648438 191.929688 79.933594 192.320312 C 80.136719 192.375 80.355469 192.445312 80.585938 192.523438 C 80.8125 192.5625 81.039062 192.597656 81.253906 192.625 C 81.941406 192.691406 82.640625 192.632812 83.34375 192.445312 C 83.734375 192.375 84.039062 192.164062 84.257812 191.816406 C 84.433594 191.53125 84.5 191.160156 84.460938 190.703125 C 84.582031 191.347656 84.617188 191.824219 84.5625 192.121094 C 84.492188 192.660156 84.214844 192.988281 83.730469 193.109375 C 82.378906 193.460938 81.050781 193.398438 79.753906 192.929688 C 78.261719 192.402344 77.417969 191.484375 77.214844 190.175781 Z M 86.125 172.609375 C 86.679688 173.390625 87.589844 173.890625 88.863281 174.105469 C 89.242188 174.148438 89.800781 174.1875 90.546875 174.230469 C 91.292969 174.242188 91.824219 174.273438 92.152344 174.328125 C 92.921875 174.355469 93.875 174.546875 95.011719 174.894531 C 96.242188 175.328125 97.167969 175.625 97.789062 175.785156 C 98.902344 176.125 99.839844 176.292969 100.609375 176.292969 C 101.625 176.359375 102.566406 176.15625 103.433594 175.683594 C 103.488281 176.347656 103.183594 176.777344 102.519531 176.980469 C 102.304688 176.996094 101.695312 177.019531 100.695312 177.0625 C 100.03125 177.085938 99.300781 177.019531 98.5 176.859375 C 97.945312 176.695312 97.222656 176.460938 96.332031 176.152344 C 95.328125 175.8125 94.605469 175.570312 94.160156 175.421875 C 93.347656 175.207031 92.609375 175.097656 91.949219 175.097656 C 91.824219 175.21875 91.730469 175.367188 91.664062 175.542969 C 91.636719 175.636719 91.589844 175.785156 91.519531 175.988281 C 90.9375 175.960938 90.054688 175.894531 88.863281 175.785156 C 87.820312 175.625 86.988281 175.347656 86.367188 174.957031 C 86.015625 174.742188 85.839844 174.375 85.839844 173.863281 C 85.867188 173.675781 85.960938 173.257812 86.125 172.609375 " fill-opacity="1" fill-rule="evenodd"/></g><path fill="#4b5fb5" d="M 99.800781 50.246094 C 101.191406 50.097656 102.613281 50.320312 104.0625 50.914062 C 105.425781 51.464844 106.558594 52.214844 107.449219 53.160156 C 108.304688 54.144531 108.824219 55.167969 109.011719 56.234375 C 109.203125 57.355469 109.09375 58.414062 108.6875 59.414062 C 108.351562 60.238281 107.898438 60.875 107.328125 61.335938 C 106.789062 61.808594 106.183594 62.179688 105.523438 62.449219 L 101.078125 64.128906 L 100.410156 64.59375 L 99.960938 65.019531 L 99.3125 65.929688 C 98.730469 66.835938 97.960938 67.089844 97 66.699219 C 96.5 66.496094 96.15625 66.152344 95.964844 65.667969 C 95.75 65.222656 95.769531 64.679688 96.027344 64.046875 C 96.363281 63.238281 96.777344 62.597656 97.261719 62.125 C 97.75 61.679688 98.292969 61.300781 98.886719 60.992188 L 102.984375 59.453125 L 104.019531 58.824219 C 104.359375 58.554688 104.601562 58.234375 104.753906 57.855469 C 105.074219 57.074219 105.070312 56.316406 104.730469 55.589844 C 104.378906 54.847656 103.742188 54.285156 102.824219 53.910156 C 101.796875 53.488281 100.921875 53.4375 100.207031 53.746094 C 99.503906 54.070312 98.765625 54.675781 97.992188 55.566406 C 97.234375 56.484375 96.410156 56.761719 95.519531 56.398438 C 94.976562 56.222656 94.597656 55.859375 94.382812 55.304688 C 94.179688 54.777344 94.160156 54.304688 94.320312 53.886719 C 94.699219 52.972656 95.371094 52.167969 96.332031 51.480469 C 97.292969 50.789062 98.449219 50.378906 99.800781 50.246094 Z M 96.636719 68.054688 C 97.214844 68.296875 97.636719 68.703125 97.890625 69.269531 C 98.136719 69.863281 98.136719 70.449219 97.890625 71.03125 C 97.609375 71.730469 97.183594 72.175781 96.613281 72.367188 C 96.058594 72.527344 95.492188 72.488281 94.910156 72.242188 C 94.316406 72 93.882812 71.636719 93.609375 71.152344 C 93.328125 70.558594 93.320312 69.929688 93.589844 69.269531 C 93.835938 68.6875 94.253906 68.277344 94.847656 68.035156 C 95.429688 67.804688 96.027344 67.8125 96.636719 68.054688 Z M 79.507812 32.234375 C 81.863281 32.042969 84.011719 32.300781 85.960938 33 C 87.894531 33.769531 89.378906 34.855469 90.40625 36.261719 C 91.527344 37.71875 92.15625 39.300781 92.292969 41.015625 C 92.414062 42.445312 92.230469 43.695312 91.746094 44.761719 C 91.296875 45.824219 90.703125 46.785156 89.957031 47.632812 L 84.804688 53.238281 L 84.195312 54.375 L 83.890625 55.324219 L 83.605469 57.085938 C 83.445312 58.785156 82.53125 59.703125 80.867188 59.839844 C 80.003906 59.90625 79.257812 59.667969 78.636719 59.128906 C 78.027344 58.65625 77.675781 57.875 77.582031 56.78125 C 77.472656 55.390625 77.59375 54.175781 77.945312 53.140625 C 78.296875 52.140625 78.796875 51.210938 79.449219 50.347656 L 84.15625 45.183594 L 85.191406 43.523438 C 85.476562 42.917969 85.589844 42.285156 85.535156 41.625 C 85.425781 40.273438 84.867188 39.214844 83.851562 38.445312 C 82.808594 37.609375 81.496094 37.25 79.914062 37.371094 C 78.140625 37.523438 76.863281 38.085938 76.078125 39.074219 C 75.292969 40.046875 74.683594 41.433594 74.253906 43.242188 C 73.820312 45.105469 72.824219 46.097656 71.269531 46.21875 C 70.375 46.339844 69.578125 46.089844 68.875 45.46875 C 68.199219 44.863281 67.828125 44.199219 67.757812 43.484375 C 67.636719 41.90625 68.007812 40.285156 68.875 38.628906 C 69.742188 36.925781 71.101562 35.496094 72.953125 34.335938 C 74.835938 33.136719 77.019531 32.433594 79.507812 32.234375 Z M 62.242188 48.523438 C 63.539062 48.648438 64.613281 49.039062 65.46875 49.699219 C 66.402344 50.386719 67.058594 51.238281 67.433594 52.25 C 67.746094 53.085938 67.855469 53.859375 67.757812 54.574219 C 67.679688 55.304688 67.488281 55.988281 67.191406 56.621094 L 65.0625 60.871094 L 64.898438 61.660156 L 64.878906 62.289062 L 65.019531 63.378906 C 65.222656 64.433594 64.835938 65.148438 63.863281 65.527344 C 63.347656 65.714844 62.855469 65.699219 62.382812 65.484375 C 61.949219 65.308594 61.613281 64.898438 61.367188 64.25 C 61.058594 63.441406 60.90625 62.691406 60.921875 62.003906 C 60.960938 61.339844 61.105469 60.703125 61.347656 60.082031 L 63.273438 56.152344 L 63.621094 54.980469 C 63.6875 54.574219 63.648438 54.175781 63.496094 53.785156 C 63.1875 52.988281 62.660156 52.445312 61.914062 52.148438 C 61.144531 51.824219 60.300781 51.835938 59.378906 52.1875 C 58.335938 52.578125 57.660156 53.144531 57.351562 53.886719 C 57.050781 54.617188 56.929688 55.5625 56.984375 56.722656 C 57.050781 57.894531 56.632812 58.65625 55.726562 59.007812 C 55.210938 59.25 54.683594 59.246094 54.144531 58.988281 C 53.628906 58.730469 53.292969 58.394531 53.128906 57.976562 C 52.777344 57.058594 52.722656 56.019531 52.96875 54.859375 C 53.195312 53.699219 53.765625 52.597656 54.671875 51.5625 C 55.59375 50.523438 56.78125 49.726562 58.242188 49.171875 C 59.621094 48.660156 60.957031 48.445312 62.242188 48.523438 Z M 64.511719 66.761719 C 65.109375 66.542969 65.695312 66.5625 66.277344 66.820312 C 66.859375 67.089844 67.261719 67.515625 67.476562 68.09375 C 67.746094 68.8125 67.738281 69.425781 67.453125 69.9375 C 67.171875 70.421875 66.730469 70.773438 66.136719 70.988281 C 65.542969 71.21875 64.964844 71.253906 64.410156 71.089844 C 63.816406 70.847656 63.390625 70.390625 63.132812 69.714844 C 62.917969 69.132812 62.9375 68.5625 63.195312 67.992188 C 63.449219 67.414062 63.890625 67.003906 64.511719 66.761719 Z M 78.757812 63.320312 C 79.421875 62.550781 80.28125 62.117188 81.335938 62.023438 C 82.335938 61.957031 83.222656 62.246094 83.992188 62.894531 C 84.777344 63.554688 85.210938 64.386719 85.289062 65.382812 C 85.386719 66.597656 85.101562 67.542969 84.441406 68.214844 C 83.761719 68.851562 82.925781 69.203125 81.925781 69.269531 C 80.910156 69.363281 80.023438 69.152344 79.265625 68.640625 C 78.4375 68.019531 77.984375 67.128906 77.90625 65.96875 C 77.824219 64.972656 78.109375 64.089844 78.757812 63.320312 " fill-opacity="1" fill-rule="evenodd"/></svg>